<?xml version="1.0" encoding="UTF-8"?>
<svg id="Layer_1" data-name="Layer 1" xmlns="http://www.w3.org/2000/svg" viewBox="0 0 297.94 297.94">
  <defs>
    <style>
      .cls-1 {
        fill: #000;
      }

      .cls-1, .cls-2, .cls-3, .cls-4, .cls-5, .cls-6, .cls-7, .cls-8 {
        stroke-width: 0px;
      }

      .cls-2 {
        fill: #032c55;
      }

      .cls-3 {
        fill: #ee3340;
      }

      .cls-4 {
        fill: #2697fd;
      }

      .cls-5 {
        fill: #1963a6;
      }

      .cls-6 {
        fill: #fdfefe;
      }

      .cls-7 {
        fill: #fbd825;
      }

      .cls-8 {
        fill: #fefefe;
      }
    </style>
  </defs>
  <path class="cls-8" d="M87.02,31.77c-.26-1.04.71-1.28,1.23-1.7,17.83-14.15,37.56-23.51,60.81-23.91.51,1.63.49,3.26.02,4.9-21.58.14-40.95,7.22-58.88,18.8-1.04.67-2.14,1.25-3.21,1.88l.02.03Z"/>
  <path class="cls-8" d="M149.09,284.58c-2.37-.19-4.12-1.35-5.54-3.26-8.13-10.99-16.06-22.12-23.87-33.46,1.5-.31,1.91.91,2.57,1.62,7.22,7.81,14.41,15.65,21.61,23.49,1.4,1.53,2.87,2.92,5.18,2.69.58,2.97.51,5.95.05,8.93Z"/>
  <path class="cls-8" d="M86.99,31.74c-.23.55-.62.75-1.19.56l.06.04c.22-.52.55-.84,1.16-.57,0,0-.02-.03-.02-.03Z"/>
  <polygon class="cls-8" points="84.43 33.33 84.32 33.55 84.45 33.57 84.43 33.33"/>
  <path class="cls-8" d="M85.8,32.3c-.01.14-.02.27-.04.41-.1-.04-.2-.09-.29-.13.13-.08.26-.16.39-.24,0,0-.06-.04-.06-.04Z"/>
  <g>
    <path class="cls-7" d="M121.06,34.14c8.67-3.37,17.76-4.36,26.94-4.85,9.08.35,18.03,1.51,26.6,4.73-.05.87-.14,1.73-.14,2.6,0,48.18,0,96.37,0,144.55,0,.87.1,1.73.16,2.6-8.55,3.38-17.49,4.58-26.62,4.74-9.16-.24-18.16-1.38-26.78-4.73.02-.48.05-.97.05-1.45,0-48.54,0-97.07,0-145.61,0-.86-.14-1.72-.21-2.58Z"/>
    <path class="cls-1" d="M121.06,34.14c.07.86.21,1.72.21,2.58.01,48.54,0,97.07,0,145.61,0,.48-.03.97-.05,1.45-6.54-1.51-12.13-4.98-17.65-8.57-13.16-8.57-22.64-20.32-28.94-34.56-6.16-13.93-7.65-28.56-5.53-43.64,1.91-13.57,7.05-25.78,15.44-36.51,9.59-12.26,21.48-21.54,36.51-26.36Z"/>
    <path class="cls-3" d="M174.6,34.02c21.5,7.68,36.83,22.12,46.14,42.81,18.53,41.2-2.05,90.56-44.19,106.43-.62.23-1.28.34-1.93.51-.05-.87-.16-1.73-.16-2.6,0-48.18,0-96.37,0-144.55,0-.87.09-1.73.14-2.6Z"/>
    <g>
      <path class="cls-5" d="M162.79.1c3.1,2.17,6.84,1.79,10.28,2.56,48.93,11.02,84.79,55.91,84.57,106.21-.07,15.37-5.18,29.6-11.02,43.54-14.78,35.27-34.86,67.57-55.92,99.28-7.37,11.1-15.26,21.86-22.65,32.95-3.79,5.69-8.16,10.49-14.52,13.2h-4.63c-.05-4.3-.1-8.6-.15-12.9.99-3.07,1.05-6.15.02-9.22,0-25.53.01-51.06.02-76.59,28.22-.4,51.48-11.23,69.57-33.13,17.02-20.59,23.32-44.61,19.27-70.45-7.1-45.28-43.3-75.87-88.76-76.88-.02-2.61-.04-5.22-.06-7.83.89-1.67.86-3.34-.02-5.01.04-1.91.08-3.82.12-5.73,4.63,0,9.27,0,13.9,0Z"/>
      <path class="cls-4" d="M148.8,10.84c.02,2.61.04,5.22.06,7.83-3.83.4-7.68.66-11.48,1.23-35.56,5.41-60.51,25-72.62,58.73-12.29,34.24-5.21,65.81,19.45,92.53,17.2,18.64,39.28,27.4,64.56,27.96,0,25.53-.01,51.06-.02,76.59-2.95.26-4.48-1.89-6.16-3.72-4.7-5.12-9.34-10.3-14.07-15.39-1.21-1.3-2.05-3.45-5.02-2.6,6.75,9.32,13.38,18.46,19.98,27.61,1.32,1.83,3.14,2.8,5.25,3.32.05,4.3.1,8.6.15,12.9h-5.79c-7.07-4.03-11.46-10.57-15.98-17.03-25.85-36.94-50.79-74.44-70.15-115.34-6.88-14.53-13.42-29.31-15.66-45.35-3.93-28.07,3.82-53.4,20.39-75.9C79.23,20.41,103.01,6.36,132.07,1.34c1.06-.18,2.39.23,2.92-1.24,4.63,0,9.27,0,13.9,0-.04,1.91-.08,3.82-.12,5.73-19.45.47-36.75,7.08-52.33,18.72,16.64-7.79,33.71-13.86,52.35-13.71Z"/>
      <path class="cls-2" d="M148.78,199.13c-25.28-.56-47.36-9.31-64.56-27.96-24.66-26.73-31.74-58.3-19.45-92.53,12.11-33.73,37.06-53.32,72.62-58.73,3.8-.58,7.65-.83,11.48-1.23,45.46,1.01,81.65,31.6,88.76,76.88,4.05,25.84-2.25,49.85-19.27,70.45-18.09,21.9-41.35,32.73-69.57,33.13ZM175.53,183.78c.92-.2,1.91-.26,2.76-.63,18.91-8.32,33.13-21.45,42.31-40.26,9-18.46,10.13-37.44,4.22-56.7-7.74-25.24-24.62-42.27-48.97-51.98-18.04-6.21-36.05-7.23-54,.34-8,1.91-14.63,6.3-21.27,11.02-14.21,10.1-22.52,24.4-27.94,40.27-4.85,14.21-4.67,28.75-.67,43.69,4.95,18.47,15.29,32.6,29.87,44.02,6.03,4.72,12.56,8.88,20.36,10.27,17.78,6.69,35.55,6.46,53.32-.04Z"/>
      <path class="cls-6" d="M148.8,10.84c-18.65-.15-35.71,5.92-52.35,13.71,15.58-11.63,32.88-18.25,52.33-18.72.88,1.67.92,3.33.02,5.01Z"/>
      <path class="cls-6" d="M148.75,284.94c-2.12-.52-3.93-1.49-5.25-3.32-6.6-9.15-13.23-18.29-19.98-27.61,2.97-.86,3.81,1.3,5.02,2.6,4.74,5.09,9.37,10.27,14.07,15.39,1.68,1.83,3.21,3.98,6.16,3.72,1.03,3.08.97,6.15-.02,9.22Z"/>
    </g>
  </g>
</svg>