<?xml version="1.0" encoding="UTF-8"?>
<svg id="Layer_1" data-name="Layer 1" xmlns="http://www.w3.org/2000/svg" viewBox="0 0 297.94 297.94">
  <defs>
    <style>
      .cls-1 {
        fill: #032c55;
      }

      .cls-1, .cls-2, .cls-3, .cls-4, .cls-5, .cls-6, .cls-7, .cls-8 {
        stroke-width: 0px;
      }

      .cls-2 {
        fill: #2660ec;
      }

      .cls-3 {
        fill: #2697fd;
      }

      .cls-4 {
        fill: #fdfdfd;
      }

      .cls-5 {
        fill: #1963a6;
      }

      .cls-6 {
        fill: #d7d7d7;
      }

      .cls-7 {
        fill: #fdfefe;
      }

      .cls-8 {
        fill: #fb023d;
      }
    </style>
  </defs>
  <g>
    <path class="cls-8" d="M69.27,79.03c11.97-35.9,46.24-62.01,83.22-63.39,39.54-1.47,75.42,21.15,90.3,57.01.91,2.18,3.39,4.67-.39,6.67-2.16.02-4.32.05-6.48.07-12.54-.1-25.07-.19-37.61-.33-2.41-.03-4.81.18-4.2,3.38,1.74,9.08-3.95,8.52-10.04,8.58-4.8.04-6.48-1.48-5.28-6.11,7.27,4.15,11.07,2.05,11.35-6.3.05-1.54-.03-3.08.01-4.62.12-4.29-.67-8.39-5.68-8.9-5.14-.52-6.42,3.55-7.09,7.72l-4.98-.04c-.09-1.75-.25-3.5-.25-5.26-.02-4.17-1.82-6.89-6.19-6.8-4.4.09-5.96,3.02-5.93,7.1.03,3.74.17,7.48-.04,11.21-.26,4.7,1.69,7.55,6.26,8.59-.13,1.07,0,2.55-1.27,2.77-5.2.87-10.45.83-15.64.04-1.27-.19-.99-1.75-1.06-2.81,2.17-.59,4.59-1.32,5.23-3.6,1.87-6.67,1.81-13.5.04-20.17-.7-2.62-3.26-3.44-5.93-3.14-2.71.31-4.3,1.9-5.03,4.53-.7,2.52.69,5.35-1.2,7.67-1.57-.1-3.15-.2-4.72-.3-.07-4.24-1.59-7.74-6.31-7.52-5.03.24-6.19,4.11-6.04,8.53.06,1.76-.04,3.53.02,5.29.28,8.13,4.46,10.21,11.57,5.78,1.8,6.85-2.67,6.22-7.07,6.27-5.3.06-10.58.73-8.83-7.5.61-2.85-.42-4.5-3.84-4.43-13.69.29-27.38.37-41.07.52-1.94-.18-3.89-.36-5.83-.53Z"/>
    <path class="cls-2" d="M242.21,139.31c4.58,1.04,1.71,3.71.97,5.49-9.54,22.95-25.6,39.72-48.22,49.8-46.91,20.92-101.44-.15-122.62-47.18-1.17-2.59-2.67-5.14-2.46-8.17,1.77-.05,3.55-.1,5.33-.15,15.36.12,30.72.23,46.08.35,3.45,6.63,7.17,13,14.71,15.8,3.9,1.6,7.85,2.93,12.16,2.54,6.07-.02,12.15-.03,18.22-.05,4.44.36,8.56-.63,12.39-2.9,7.2-2.81,10.97-8.84,14.25-15.33.52-.06,1.03-.11,1.55-.17,13.74-.03,27.48-.06,41.23-.09,2.14.02,4.28.04,6.42.05Z"/>
    <path class="cls-4" d="M235.91,79.4c6.26,19.97,6.53,39.92-.12,59.86-13.74.03-27.49.06-41.23.09-.4-.35-.8-.7-1.2-1.04.25-2.38.06-4.12-3.18-3.95-3.83.21-7.7-.09-11.55-.16l.12.12c-.04-4.05-.08-8.1-.12-12.14,3.76.02,7.54-.14,11.29.13,3.47.25,4.64-.96,4.51-4.49-.68-17.72,3.43-14.09-14.49-14.44-.43,0-.86.17-1.3.27-.06-3.08-.14-6.16-.16-9.24-.01-1.64-.22-2.82-2.22-3.38-7.03-1.95-10.16.26-10.03,7.44.03,1.73.39,3.45.6,5.17-6.27-1.36-12.54-.07-18.81,0,.07-2.2-.09-4.43.25-6.59.78-5.02-1.24-6.23-6.11-6.23-4.87,0-6.89,1.2-6.11,6.22.33,2.15.12,4.39.16,6.59-4.17-.11-8.35-.16-12.52-.34-2.32-.1-3.4.43-3.71,3.19-1.74,15.5-1.55,15.81,13.59,15.77.88,0,1.76-.05,2.64-.07-.04,4.05-.09,8.1-.13,12.15l.13-.14c-3.68.08-7.42.59-11.03.13-4.87-.62-4.71,1.82-3.88,5.14-15.36-.12-30.72-.23-46.08-.35-2.78-12.1-4.85-24.22-4.31-36.79.34-7.87,3.67-15.02,4.19-22.75,13.69-.16,27.38-.24,41.07-.52,3.42-.07,4.44,1.58,3.84,4.43-1.75,8.23,3.53,7.56,8.83,7.5,4.4-.05,8.87.58,7.07-6.27.26-4.03.51-8.05.77-12.08,1.57.1,3.15.2,4.72.3.02,2.61-.18,5.26.12,7.84.45,3.93,2,7.08,6.77,6.87.08,1.06-.21,2.61,1.06,2.81,5.2.79,10.45.83,15.64-.04,1.28-.21,1.14-1.7,1.27-2.77,8.53-2.24,4.97-9.53,6.15-14.85,1.66.01,3.32.03,4.98.04.74,4-.55,8.24,1.4,12.1-1.2,4.63.48,6.15,5.28,6.11,6.09-.06,11.78.5,10.04-8.58-.61-3.2,1.79-3.41,4.2-3.38,12.53.14,25.07.22,37.61.33Z"/>
    <path class="cls-2" d="M148.28,87.63c-4.76.2-6.31-2.94-6.77-6.87-.3-2.58-.1-5.22-.12-7.84,1.89-2.32.51-5.15,1.2-7.67.73-2.63,2.32-4.22,5.03-4.53,2.66-.3,5.23.52,5.93,3.14,1.77,6.67,1.83,13.5-.04,20.17-.64,2.28-3.06,3.01-5.23,3.6Z"/>
    <path class="cls-2" d="M172.41,72.78c-1.18,5.31,2.38,12.6-6.15,14.85-4.56-1.05-6.51-3.9-6.26-8.59.2-3.73.07-7.47.04-11.21-.03-4.08,1.53-7,5.93-7.1,4.37-.09,6.16,2.63,6.19,6.8,0,1.75.17,3.5.25,5.26Z"/>
    <path class="cls-2" d="M178.79,84.92c-1.94-3.86-.65-8.1-1.4-12.1.66-4.17,1.94-8.24,7.09-7.72,5.01.51,5.79,4.61,5.68,8.9-.04,1.54.04,3.08-.01,4.62-.28,8.35-4.08,10.46-11.35,6.3Z"/>
    <path class="cls-2" d="M136.67,72.62c-.26,4.03-.51,8.05-.77,12.08-7.11,4.43-11.29,2.35-11.57-5.78-.06-1.76.04-3.53-.02-5.29-.14-4.42,1.01-8.3,6.04-8.53,4.71-.22,6.24,3.27,6.31,7.52Z"/>
    <path class="cls-8" d="M166.37,157.74c-6.07.02-12.15.03-18.22.05,0-7.87,0-15.74.01-23.62,0,0-.14.13-.14.13,6.26,0,12.51,0,18.77-.01l-.12-.11c-.1,7.85-.2,15.7-.3,23.55Z"/>
    <path class="cls-4" d="M148.17,134.18c0,7.87,0,15.74-.01,23.62-4.31.39-8.26-.93-12.16-2.54.07-7.03.13-14.05.2-21.08,0,0-.13.14-.13.14,4.03-.05,8.07-.09,12.1-.14Z"/>
    <path class="cls-4" d="M166.37,157.74c.1-7.85.2-15.7.3-23.55,4.03.04,8.05.08,12.08.12l-.12-.12c.04,6.89.09,13.77.13,20.66-3.83,2.26-7.95,3.26-12.39,2.9Z"/>
    <path class="cls-8" d="M136.2,134.18c-.07,7.03-.13,14.05-.2,21.08-7.53-2.8-11.26-9.17-14.71-15.8-.84-3.32-1-5.77,3.88-5.14,3.61.46,7.35-.05,11.03-.13Z"/>
    <path class="cls-8" d="M178.77,154.85c-.04-6.89-.09-13.77-.13-20.66,3.85.08,7.71.37,11.55.16,3.24-.17,3.43,1.57,3.18,3.95-.35.34-.47.74-.35,1.22-3.28,6.49-7.04,12.52-14.25,15.33Z"/>
    <path class="cls-6" d="M193.01,139.52c-.12-.47,0-.88.35-1.22.4.35.8.7,1.2,1.05-.52.06-1.04.11-1.55.17Z"/>
    <path class="cls-8" d="M148.02,103.63c6.27-.08,12.54-1.37,18.81,0,0,0-.16-.13-.16-.13,0,6.27,0,12.54,0,18.81l.12-.11c-6.25,0-12.51,0-18.76-.01l.13.13c0-6.28,0-12.55,0-18.83l-.15.15Z"/>
    <path class="cls-8" d="M136.2,122.17c-.88.02-1.76.07-2.64.07-15.14.04-15.32-.28-13.59-15.77.31-2.76,1.39-3.29,3.71-3.19,4.17.18,8.35.23,12.52.34,0,0-.14-.13-.14-.13,0,6.27,0,12.54,0,18.81l.13-.13Z"/>
    <path class="cls-8" d="M178.64,103.62c.43-.09.87-.27,1.3-.27,17.92.35,13.81-3.27,14.49,14.44.14,3.53-1.03,4.74-4.51,4.49-3.75-.27-7.52-.11-11.29-.13,0,0,.12.14.12.14,0-6.27,0-12.54,0-18.81l-.12.13Z"/>
    <path class="cls-8" d="M136.2,103.62c-.04-2.2.17-4.44-.16-6.59-.78-5.03,1.24-6.23,6.11-6.22,4.87,0,6.89,1.22,6.11,6.23-.34,2.16-.18,4.39-.25,6.59,0,0,.15-.15.15-.15-4.03,0-8.07,0-12.1,0,0,0,.14.13.14.13Z"/>
    <path class="cls-8" d="M166.82,103.62c-.21-1.72-.57-3.45-.6-5.17-.13-7.18,3.01-9.39,10.03-7.44,2.01.56,2.21,1.74,2.22,3.38.02,3.08.1,6.16.16,9.24,0,0,.12-.13.12-.13-4.03,0-8.06,0-12.1,0l.16.13Z"/>
    <path class="cls-8" d="M148.17,134.18c-4.03.05-8.07.09-12.1.14.04-4.05.09-8.1.13-12.15,0,0-.13.13-.13.13,4.03,0,8.06,0,12.09,0l-.13-.13c0,4.05,0,8.09,0,12.14l.14-.13Z"/>
    <path class="cls-8" d="M178.76,134.31c-4.03-.04-8.05-.08-12.08-.12,0,0,.12.11.12.11-.94-4.04-.93-8.08,0-12.12l-.12.11c4.03,0,8.06,0,12.1,0,0,0-.13-.14-.12-.14.04,4.05.08,8.1.12,12.14Z"/>
    <path class="cls-4" d="M166.79,122.18c-.93,4.04-.94,8.08,0,12.12-6.26,0-12.51,0-18.77.01,0-4.05,0-8.09,0-12.14,6.25,0,12.51,0,18.76.01Z"/>
    <path class="cls-4" d="M148.16,122.31c-4.03,0-8.06,0-12.09,0,0-6.27,0-12.54,0-18.81,4.03,0,8.07,0,12.1,0,0,6.28,0,12.55,0,18.83Z"/>
    <path class="cls-4" d="M178.76,122.3c-4.03,0-8.06,0-12.1,0,0-6.27,0-12.54,0-18.81,4.03,0,8.06,0,12.1,0,0,6.27,0,12.54,0,18.81Z"/>
  </g>
  <g>
    <path class="cls-5" d="M170.83.1c3.1,2.17,6.84,1.79,10.28,2.56,48.93,11.02,84.79,55.91,84.57,106.21-.07,15.37-5.18,29.6-11.02,43.54-14.78,35.27-34.86,67.57-55.92,99.28-7.37,11.1-15.26,21.86-22.65,32.95-3.79,5.69-8.16,10.49-14.52,13.2h-4.63c-.05-4.3-.1-8.6-.15-12.9.99-3.07,1.05-6.15.02-9.22,0-25.53.01-51.06.02-76.59,28.22-.4,51.48-11.23,69.57-33.13,17.02-20.59,23.32-44.61,19.27-70.45-7.1-45.28-43.3-75.87-88.76-76.88-.02-2.61-.04-5.22-.06-7.83.89-1.67.86-3.34-.02-5.01.04-1.91.08-3.82.12-5.73,4.63,0,9.27,0,13.9,0Z"/>
    <path class="cls-3" d="M156.84,10.84c.02,2.61.04,5.22.06,7.83-3.83.4-7.68.66-11.48,1.23-35.56,5.41-60.51,25-72.62,58.73-12.29,34.24-5.21,65.81,19.45,92.53,17.2,18.64,39.28,27.4,64.56,27.96,0,25.53-.01,51.06-.02,76.59-2.95.26-4.48-1.89-6.16-3.72-4.7-5.12-9.34-10.3-14.07-15.39-1.21-1.3-2.05-3.45-5.02-2.6,6.75,9.32,13.38,18.46,19.98,27.61,1.32,1.83,3.14,2.8,5.25,3.32.05,4.3.1,8.6.15,12.9h-5.79c-7.07-4.03-11.46-10.57-15.98-17.03-25.85-36.94-50.79-74.44-70.15-115.34-6.88-14.53-13.42-29.31-15.66-45.35-3.93-28.07,3.82-53.4,20.39-75.9C87.27,20.41,111.05,6.36,140.11,1.34c1.06-.18,2.39.23,2.92-1.24,4.63,0,9.27,0,13.9,0-.04,1.91-.08,3.82-.12,5.73-19.45.47-36.75,7.08-52.33,18.72,16.64-7.79,33.71-13.86,52.35-13.71Z"/>
    <path class="cls-1" d="M156.82,199.13c-25.28-.56-47.36-9.31-64.56-27.96-24.66-26.73-31.74-58.3-19.45-92.53,12.11-33.73,37.06-53.32,72.62-58.73,3.8-.58,7.65-.83,11.48-1.23,45.46,1.01,81.65,31.6,88.76,76.88,4.05,25.84-2.25,49.85-19.27,70.45-18.09,21.9-41.35,32.73-69.57,33.13ZM183.57,183.78c.92-.2,1.91-.26,2.76-.63,18.91-8.32,33.13-21.45,42.31-40.26,9-18.46,10.13-37.44,4.22-56.7-7.74-25.24-24.62-42.27-48.97-51.98-18.04-6.21-36.05-7.23-54,.34-8,1.91-14.63,6.3-21.27,11.02-14.21,10.1-22.52,24.4-27.94,40.27-4.85,14.21-4.67,28.75-.67,43.69,4.95,18.47,15.29,32.6,29.87,44.02,6.03,4.72,12.56,8.88,20.36,10.27,17.78,6.69,35.55,6.46,53.32-.04Z"/>
    <path class="cls-7" d="M156.84,10.84c-18.65-.15-35.71,5.92-52.35,13.71,15.58-11.63,32.88-18.25,52.33-18.72.88,1.67.92,3.33.02,5.01Z"/>
    <path class="cls-7" d="M156.79,284.94c-2.12-.52-3.93-1.49-5.25-3.32-6.6-9.15-13.23-18.29-19.98-27.61,2.97-.86,3.81,1.3,5.02,2.6,4.74,5.09,9.37,10.27,14.07,15.39,1.68,1.83,3.21,3.98,6.16,3.72,1.03,3.08.97,6.15-.02,9.22Z"/>
  </g>
</svg>