<?xml version="1.0" encoding="UTF-8"?>
<svg id="Layer_1" data-name="Layer 1" xmlns="http://www.w3.org/2000/svg" viewBox="0 0 297.94 297.94">
  <defs>
    <style>
      .cls-1 {
        fill: #020000;
      }

      .cls-1, .cls-2, .cls-3, .cls-4, .cls-5, .cls-6, .cls-7, .cls-8, .cls-9, .cls-10, .cls-11 {
        stroke-width: 0px;
      }

      .cls-2 {
        fill: #edf6fe;
      }

      .cls-3 {
        fill: #fecc00;
      }

      .cls-4 {
        fill: #f2f9fe;
      }

      .cls-5 {
        fill: #2697fd;
      }

      .cls-6 {
        fill: #9aa0a5;
      }

      .cls-7 {
        fill: #032b54;
      }

      .cls-8 {
        fill: #2f4d88;
      }

      .cls-9 {
        fill: #1963a6;
      }

      .cls-10 {
        fill: #03417f;
      }

      .cls-11 {
        fill: #dc0000;
      }
    </style>
  </defs>
  <g>
    <path class="cls-11" d="M217.11,74.8c3.18,9.55,4.86,19.36,4.37,29.41-.39,8.05-1.58,16.02-4.66,23.57-.87-.05-1.73-.14-2.6-.14-48.16,0-96.32,0-144.48,0-.87,0-1.74.08-2.6.12-6.33-17.67-6.28-35.36-.13-53.06,49.46,0,98.91-.02,148.37-.02.58,0,1.15.08,1.73.12Z"/>
    <path class="cls-1" d="M217.11,74.8c-.58-.04-1.15-.12-1.73-.12-49.46,0-98.91,0-148.37.02,1.83-6.79,5.23-12.85,9.18-18.56,10.63-15.37,24.9-25.92,42.83-31.3,9.18-2.76,18.66-4.42,28.2-3.46,29.13,2.93,51.39,16.72,65.47,42.81,1.83,3.38,3.61,6.8,4.42,10.62Z"/>
    <path class="cls-3" d="M67.13,127.75c.87-.04,1.74-.12,2.6-.12,48.16,0,96.32,0,144.48,0,.87,0,1.73.09,2.6.14-3.26,9.89-8.66,18.48-15.54,26.25-9.37,10.58-20.79,17.94-34.13,22.51-29.68,10.16-64.04,1.05-84.63-22.54-6.79-7.78-12.21-16.36-15.38-26.26Z"/>
  </g>
  <path class="cls-9" d="M141.85-7.31c47.43-1.99,93.46,33.98,105.49,81.79,5.55,22.07,3,43.04-5.34,63.84-13.41,33.42-31.75,64.14-51.37,94.14-9.6,14.67-19.88,28.88-29.65,43.45-3.79,5.66-8.15,10.45-14.52,13.15h-4.63c.05-4.2.09-8.4.14-12.6,2.76-.75,4.67-2.63,6.28-4.83,5.55-7.61,11.09-15.23,16.53-22.92.6-.85,2.17-1.97.04-3.6-5.15,5.64-10.27,11.3-15.47,16.9-2.04,2.2-3.71,5.07-7.37,4.83-.08-25.36-.17-50.72-.25-76.08,28.41-.46,51.78-11.48,69.91-33.42,16.86-20.41,22.91-44.36,18.86-69.82-7.19-45.19-43.28-75.47-88.69-76.49.05-2.52.1-5.05.15-7.57,18.52-.44,35.38,5.55,51.82,13.35C178.55,4.79,161.18-1.12,141.97-1.97c-.04-1.78-.08-3.56-.12-5.34Z"/>
  <path class="cls-5" d="M141.96,276.45c-.05,4.2-.09,8.4-.14,12.6h-5.79c-7.08-4.01-11.47-10.53-15.99-16.97-25.86-36.8-50.81-74.16-70.17-114.93-6.87-14.48-13.36-29.21-15.66-45.19-3.83-26.67,3.09-51.1,18.5-72.75C74.38,8.77,104.22-6.97,141.85-7.31c.04,1.78.08,3.56.12,5.34l-.3.41c-19.64-.2-36.69,7.05-52.36,18.41,16.61-7.95,33.87-13.29,52.37-13.9l.27.48c-.05,2.52-.1,5.05-.15,7.57,0,0,.08.12.08.12-47.41.06-89.73,37.22-89.86,89.53-.14,53.72,43.42,90.5,89.79,89.97l-.08.12c.08,25.36.17,50.72.25,76.08l-.3.47c-2.7-.33-4.43-2.12-6.14-4-4.66-5.14-9.32-10.28-14.05-15.35-1.21-1.3-2.07-3.42-5.08-2.55,6.76,9.29,13.36,18.4,19.99,27.49,1.29,1.76,2.86,3.14,5.26,2.99.05.22.15.42.31.58Z"/>
  <path class="cls-7" d="M141.79,11c45.41,1.03,81.51,31.31,88.69,76.49,4.05,25.47-1.99,49.42-18.86,69.82-18.13,21.94-41.5,32.96-69.91,33.42,0,0,.08-.12.08-.12.03-3.45.06-6.9.09-10.35,9.15.23,17.95-1.52,26.48-4.75.74-.2,1.5-.33,2.21-.61,31.2-12.35,50.6-41.16,50.35-74.77-.25-33.56-20.29-61.8-52.42-73.88-5.35-1.44-10.6-3.36-16.21-3.67-3.25-2.22-6.94-.63-10.37-1.21-.02-3.42-.04-6.85-.05-10.27l-.08-.12Z"/>
  <path class="cls-6" d="M141.97-1.97c19.21.85,36.58,6.76,51.79,18.74-16.44-7.8-33.3-13.78-51.82-13.35,0,0-.27-.48-.27-.48,0-1.5,0-3,0-4.51l.3-.41Z"/>
  <path class="cls-6" d="M141.97,266.82c3.67.25,5.33-2.63,7.37-4.83,5.2-5.59,10.31-11.26,15.47-16.9,2.13,1.62.56,2.75-.04,3.6-5.44,7.69-10.98,15.31-16.53,22.92-1.61,2.2-3.52,4.09-6.28,4.83-.16-.16-.26-.36-.31-.58,0-2.86,0-5.72.01-8.58l.3-.47Z"/>
  <path class="cls-10" d="M141.89,180.27c-.03,3.45-.06,6.9-.09,10.35-46.36.53-89.92-36.25-89.79-89.97.13-52.31,42.45-89.47,89.86-89.53.02,3.42.04,6.85.05,10.27-3.85.66-7.95-1.12-11.63,1.19-5.44-.3-9.94,3.34-15.24,3.62-35.64,14.27-54.42,43.83-52.12,82.03,1.78,29.65,23.84,58.05,52.28,67.28,8.45,4.04,17.47,4.93,26.68,4.75Z"/>
  <path class="cls-2" d="M141.67-1.56c0,1.5,0,3,0,4.51-18.5.61-35.76,5.95-52.37,13.9C104.98,5.49,122.03-1.76,141.67-1.56Z"/>
  <path class="cls-4" d="M141.67,267.29c0,2.86,0,5.72-.01,8.58-2.4.14-3.98-1.23-5.26-2.99-6.63-9.09-13.24-18.19-19.99-27.49,3.01-.87,3.87,1.25,5.08,2.55,4.73,5.07,9.4,10.21,14.05,15.35,1.71,1.88,3.44,3.67,6.14,4Z"/>
  <path class="cls-8" d="M152.3,22.6c-7.33,0-14.67,0-22-.01,3.68-2.31,7.78-.54,11.63-1.19,3.44.58,7.13-1.02,10.38,1.21Z"/>
</svg>