<?xml version="1.0" encoding="UTF-8"?>
<svg id="Layer_1" data-name="Layer 1" xmlns="http://www.w3.org/2000/svg" viewBox="0 0 297.94 297.94">
  <defs>
    <style>
      .cls-1 {
        fill: #c76b94;
      }

      .cls-1, .cls-2, .cls-3, .cls-4, .cls-5, .cls-6, .cls-7, .cls-8, .cls-9, .cls-10, .cls-11, .cls-12, .cls-13, .cls-14, .cls-15, .cls-16, .cls-17, .cls-18, .cls-19, .cls-20, .cls-21, .cls-22, .cls-23 {
        stroke-width: 0px;
      }

      .cls-2 {
        fill: #a71417;
      }

      .cls-3 {
        fill: #b8b7b7;
      }

      .cls-4 {
        fill: #edf6fe;
      }

      .cls-5 {
        fill: #9b3311;
      }

      .cls-6 {
        fill: #fdc301;
      }

      .cls-7 {
        fill: #f2f9fe;
      }

      .cls-8 {
        fill: #911619;
      }

      .cls-9 {
        fill: #2697fd;
      }

      .cls-10 {
        fill: #a11d15;
      }

      .cls-11 {
        fill: #9aa0a5;
      }

      .cls-12 {
        fill: #0c54a5;
      }

      .cls-13 {
        fill: #032b54;
      }

      .cls-14 {
        fill: #2f4d88;
      }

      .cls-15 {
        fill: #a88a05;
      }

      .cls-16 {
        fill: #c60d1e;
      }

      .cls-17 {
        fill: #1963a6;
      }

      .cls-18 {
        fill: #786b0a;
      }

      .cls-19 {
        fill: #c18c04;
      }

      .cls-20 {
        fill: #03417f;
      }

      .cls-21 {
        fill: #c4c5c4;
      }

      .cls-22 {
        fill: #fecf00;
      }

      .cls-23 {
        fill: #bca700;
      }
    </style>
  </defs>
  <g>
    <path class="cls-6" d="M62.17,120.19v-20.01c1.28-1.29.96-3.05,1.26-4.6,1.84-9.61,4.84-18.77,10.1-27.09l.15.14s-.13.16-.13.16c.22-.02.44-.04.67-.06,1-.06,1.99-.17,2.99-.17,45.57,0,91.13,0,136.7,0,1,0,1.99.11,2.99.17.22.02.44.04.67.06l-.12-.15.14-.14c6.53,10.48,9.96,22.01,11,34.21,1.48,17.5-1.84,34.01-11,49.17l-.14-.14.12-.15c-.22.02-.44.04-.67.06-1,.06-1.99.17-2.99.17-45.57,0-91.13,0-136.7,0-1,0-1.99-.11-2.99-.17-.22-.02-.44-.04-.67-.06l.12.15-.14.14c-5.23-8.21-8.16-17.28-10.04-26.76-.33-1.66-.07-3.5-1.32-4.93ZM146.93,140.08l2.1.02c.46.04.96.81,1.3.29.56-.85-.65-.8-.9-1.28-.69-.85,2.95-1.33.21-2.36-.01-1.52-.4-2.92-1.38-4.11.01-2.16.03-4.33.04-6.49,2.12.13-.32,2.31,1.25,2.69,3.17-2.74,2.92-3.97-1.32-6.44.03-.79.06-1.58.09-2.37,2.29-.32,3.55-1.88,3.72-3.93.21-2.45-2.42-2.37-3.79-3.42,0-1.93,0-3.86,0-5.79.3-.89.6-1.79.9-2.68.59-1.12.39-1.85-.97-2.03-.1-1.18,1.88-2.42.06-3.49-1.91-1.13-4.01-1.06-5.85.13-1.96,1.26.65,2.18.44,3.36-1.39.18-1.45.97-.94,2.04.3.92.6,1.84.9,2.77.03.17.01.33-.06.48-.78,1.47-.33,3.07-.52,4.61-1.49.34-3.3-.26-4.34,1.44-.87-3.64-.33-7.32-.3-10.98-1.03-1.49-2.6-.73-3.93-.95-.78-.13-1.93.45-2.19-.8-.18-.88.32-1.67.95-2.36.85-.93,2.41-1.29,2.39-2.93,4.06-4.62,3.46-3.98-1.82-5.86-.99-.35-2.18-.15-3.27-.21-.67-.5-1.42-.51-2.19-.36-1.29-.38-2.59-.76-3.88-1.14-.57-.45-1.53-.63-1.3-1.67.2-.92,1-1.12,1.77-1.25,1.01-.17,2.14-.19,2.88.47,2.82,2.51,6.6.43,9.58,2.18-3.43-2.67-7.68-3.28-11.59-4.3-2.29-.6-3.22-1.06-3.24-3.25,0-.76-.44-1.35-1.17-1.36-.72,0-1.18.58-1.19,1.34-.01,1.24-.42,3.19-1.29,2.99-3.84-.86-6.36,2.76-10.13,2.47-2.26-.17-5.18.87-5.63,4.11-.42,2.99,1.08,4.84,3.79,5.85.41.47.82.94,1.22,1.4.9,1.29,3.02,2.19,2.22,4.04-.57,1.31-2.38.55-3.61.57-1.85.03-2.51.83-2.48,2.62.05,2.85-.05,5.7-.09,8.56-.14.05-.27.1-.42.14-1.25-.83-2.71-.48-4.06-.74.05-2.67-.65-5.37.38-7.99.46-1.03.28-1.76-.94-2,.48-1.16,1.73-2.53.11-3.45-1.5-.85-3.32-1.27-5.08-.25-1.5.88-.7,2-.39,3.08-.68.77-1.95,1.33-.91,2.68.28.96.56,1.93.84,2.89,0,1.86.01,3.73.02,5.59-.69.26-.9.8-.88,1.48-3.06.27-3.41.94-2.25,3.59.63,1.43,1.71,1.89,3.05,2.14.04.89.08,1.79.12,2.68-.49.26-.96.56-1.47.77-1.35.57-2.48,1.32-1.62,2.98.99,1.9,2.01-.16,3.04-.1-.02,2.33-.03,4.67-.05,7-.83,1.05-1.38,2.21-1.38,3.59-1.47.78-.59,2.03-.6,3.1.45-.13.89-.25,1.34-.38,1.65,2.11,5.61,2.12,7.31.02,2.55-.29,1.28-1.6.73-2.72-.54-1.46-1.08-2.92-1.62-4.39-.1-.22-.06-.4.13-.55.02-2.82.04-5.64.06-8.46,1.91-1.51,3.27-3.12.99-5.4-.46-.5-1.41-.73-1.09-1.68.37-1.09,1.4-.62,2.15-.81.83.58,2.05.27,2.72,1.2-.02,4.98-.05,9.97-.07,14.95,0,1.25.21,2.43,1.09,3.39.32.6.64,1.21.96,1.81.11.1.25.16.4.15.48.43.96.87,1.44,1.3.54.75,1.27,1.18,2.21,1.22.69.18,1.38.36,2.07.54,2.78.74,5.48,2.36,8.48.84.67-.24,1.33-.48,2-.73,2.01,2.23,4.12.79,6.2.16,4.26-.6,7.7-2.28,8.92-6.84.61-4.47.28-8.95.2-13.43.11-1.72-.59-3.55.72-5.1,1.25,1.61,3.1.17,4.53.88,0,.53-.02,1.05-.02,1.58-3.29,1.54-3.39,3.15-.38,5.87-.19,4.49.21,9.01-.86,13.44-1.85,1.28-.95,2.4.18,3.53.04.04-.16.34-.28.49-.05.06-.22.08-.29.03-.08-.05-.16-.2-.14-.28.06-.17.2-.46.27-.45.99.16,1.96.95,2.96.01.92,1.07,1.84.92,2.76,0Z"/>
    <path class="cls-16" d="M154.88,26.81c4.68,1.11,9.42,2,14.02,3.36,20.67,6.14,36.6,18.54,47.98,36.83.29.46.46,1,.68,1.5,0,0-.14.14-.14.14,0,0,.12.15.12.15-.22-.02-.44-.04-.67-.06-1-.06-1.99-.17-2.99-.17-45.57,0-91.13,0-136.7,0-1,0-1.99.11-2.99.17-.22.02-.44.04-.67.06,0,0,.13-.16.13-.16,0,0-.15-.14-.15-.14.18-.4.32-.82.55-1.19,13.15-21.26,31.99-34.31,56.52-39.17,1.67-.33,3.51-.09,4.94-1.32,6.45,0,12.9,0,19.34,0Z"/>
    <path class="cls-16" d="M217.56,151.88c-9.27,16.5-22.89,28.11-40.22,35.38-37.15,15.58-80.75,1.69-102.26-32.47-.59-.93-1.04-1.94-1.56-2.91,0,0,.14-.14.14-.14,0,0-.12-.15-.12-.15.22.02.44.04.67.06,1,.06,1.99.17,2.99.17,45.57,0,91.13,0,136.7,0,1,0,1.99-.11,2.99-.17.22-.02.44-.04.67-.06l-.12.15.14.14Z"/>
    <path class="cls-21" d="M137.56,102.53c-.03,3.66-.56,7.34.3,10.98.12.49.23.99.35,1.48-1.31,1.55-.62,3.38-.72,5.1-3.73.64-7.48.33-11.23.18-.08-.28-.16-.55-.25-.83-.13-.41-.26-.82-.39-1.24-.46-1.78-1.43-3.05-3.34-3.39,0,0-.15-.14-.14-.14-2.43-1.25-1.24-3.5-1.28-5.27-.15-7-.06-7.01,6.74-7.38,3.31.44,6.68-.41,9.97.51ZM135.15,105.57c-1.45-.25-2.56.16-3.76-.7-1.31-.95-2.87-.42-3.18,1.4-.53,3.09-1.71,1.92-2.88.52-.61-.72-1.08-1.11-1.79-.23-.74.92.4.96.66,1.43.4.69,2.14.94.88,2.19-.41.41-1.45.36-1.02,1.27.46.98,1.32.41,2.05.29.64-.11,1.37-.42,1.89.14.8.88-.53,1.27-.58,1.99-.05.73-1.78,1.39-.41,2.09,1.38.71,3.18.61,4.5-.11.97-.53.6-2.38.14-2.96-1.91-2.44-.19-4.34.3-6.55,1.8.74.15,2.66,1.66,3.44-.05-1.6,1.11-2.65,1.54-4.21Z"/>
    <path class="cls-2" d="M102.95,112.83c.14-.04.28-.09.42-.14,1.42-2.57.47-5.34.64-8.01.11-1.77.64-2.6,2.51-2.56,2.3.05,4.6-.09,6.9-.15,1.1.06,2.23.28,3.3.13,3.06-.42,3.9,1,3.67,3.79-.18,2.19-.02,4.41-.03,6.62,0,1.23.2,2.24,1.77,2.15,0,0,.15.14.14.14-.93.44-1.85.88-2.78,1.32-.13.11-.27.16-.44.14-2.51-1.02-3.17-3.01-2.88-5.5.18-1.7.01-3.38-1.45-4.43-1.01-.72-.68,1.34-1.66,1.23.1-2.98-.15-3.62-1.2-3.27-2.05.68-3.92,4.4-3.27,6.72.43,1.54.79,3.03-.35,4.37-.56.66-.89,1.34-.42,2.09.56.91,1.75.91,2.38.55,1.67-.93,3.12-.35,4.65.19,0,1.65-1.05,1.96-2.42,1.94-2.75-.03-5.49-.02-8.24-.02-.3-1.13.1-2.38-.6-3.44-.67-.93-1.89-.61-2.72-1.19-.12-1.52.2-2.71,2.08-2.7Z"/>
    <path class="cls-15" d="M113.42,101.98c-2.3.06-4.6.2-6.9.15-1.87-.04-2.4.78-2.51,2.56-.17,2.67.78,5.44-.64,8.01.04-2.85.14-5.71.09-8.56-.03-1.79.63-2.59,2.48-2.62,1.24-.02,3.05.74,3.61-.57.8-1.85-1.32-2.75-2.22-4.04,1.4-.13,2.87.15,4.15-.7.81.48,1.17.1,1.32-.69l.03-.05c.27-.07.53-.14.8-.22,0,0,.2.16.2.16.08.28.16.57.24.85.34-.2.68-.4,1.02-.6.36-.05.72-.11,1.09-.16.15.36.18.84.74.82.07,0,.19-.14.19-.21-.05-.56-.55-.5-.91-.63.02-.42.05-.84.07-1.26l.08.07c2.79-.27,5.59-2.2,8.38,0,0,0,.06-.06.06-.06,0,.43,0,.85,0,1.28-.68.24-1.42.77-.24,1.05,1.76.42,3.64.28,5.44.54,1.97.28.57-1.11.9-1.63,1.3,0,2.6,0,3.91,0,.01,1.63-1.54,2-2.39,2.93-.62.68-1.13,1.47-.95,2.36.25,1.25,1.4.67,2.19.8,1.33.23,2.9-.54,3.93.95-3.29-.91-6.66-.06-9.97-.51-.03-.21-.06-.41-.08-.62.21-.46,1.53-.94.9-1.03-3.65-.5-7.43-2.17-10.97.43-1.34.38-3.38-1.63-4.02,1.17Z"/>
    <path class="cls-8" d="M104.19,120.16c2.75,0,5.49,0,8.24.02,1.37.01,2.42-.3,2.42-1.94,1.33-.83,2.11-1.62,1.04-3.4-.69-1.16-.61-2.76.28-4.06-.3,2.49.37,4.48,2.88,5.5-1.17.51-.4,1.92-1.41,2.72-1.68,1.33-.66,3.04.21,4.41.94,1.48,2.49,1.91,4.08,1.24,1.66-.7,2.84-2.21,2.35-3.94-.65-2.29-1.21-5.15-4.79-4.57.93-.44,1.85-.88,2.78-1.32,1.92.34,2.89,1.61,3.34,3.39.13.41.26.82.4,1.24.08.28.16.55.25.83-.02.21-.01.42.02.62-.01.42-.03.83-.04,1.25,0,0-.02.07-.02.07-.68,1.16-1.36,2.32-2.04,3.49-.47.18-.95.37-1.42.55-.8.43-1.6.86-2.4,1.29-1.26-1.14-1.47-.19-1.46.8,0,2.64.09,5.28.15,7.92-.06.15-.05.29.03.43l-.75.29v-9.69c-.43,3.24-1.64,6.54,0,9.68-.23.66-.73,1.04-1.37,1.26-.03-2.98-.05-5.97-.08-8.95-.02-2.08.35-4.24-1.34-5.94-.26-1.48-.95-2.49-2.63-2.46-.97-.1-1.46.38-1.44,1.32.14,5.83-.49,11.67.34,17.49-.1.12-.14.25-.11.39-.69-.18-1.38-.36-2.07-.54-.06-.46-.12-.92-.18-1.39.02-4.92.08-9.84.04-14.76,0-.95.52-2.35-1.25-2.49-1.16.92-.67,2.22-.69,3.35-.09,4.69-.09,9.38-.12,14.07-.48-.43-.96-.87-1.44-1.3.1-.06.2-.12.28-.2.98-5.29,1.07-10.58-.06-15.86-.24-.02-.47-.04-.71-.06-.42-.02-.85-.03-1.27-.05,0-.23-.02-.47-.03-.7ZM110.36,137.81c.09,0,.18,0,.27,0v-15.76c-.09,0-.18,0-.27,0v15.76Z"/>
    <path class="cls-15" d="M106.11,95.51c-2.71-1.01-4.21-2.85-3.79-5.85.45-3.24,3.37-4.28,5.63-4.11,3.77.29,6.29-3.33,10.13-2.47.87.2,1.28-1.76,1.29-2.99,0-.76.47-1.35,1.19-1.34.72,0,1.16.59,1.17,1.36.02,2.19.95,2.66,3.24,3.25,3.91,1.02,8.16,1.62,11.59,4.3-2.98-1.75-6.75.33-9.58-2.18-.75-.66-1.88-.64-2.88-.47-.77.13-1.57.33-1.77,1.25-.23,1.04.73,1.22,1.3,1.68-.8.18-1.29.61-1.56,1.45-.25.77-.49,1.93-1.57,1.79-1.11-.15-1.35-1.27-1.53-2.25-.08-.43-.11-.87-.16-1.3.03-3.53-2.51-3.16-4.3-2.23-2.05,1.06-4.01,1.42-6.23,1.55-2.16.13-3.85,1.15-3.33,3.84-.77,1.86,1.55,2.95,1.17,4.72Z"/>
    <path class="cls-2" d="M120.35,127.55c.8-.43,1.6-.86,2.4-1.29.06,2.55-.69,5.13.22,7.66.46,2.57,3.09,2.37,4.6,3.6,2.2.23,4.55.82,5.43-2.2.2-.16.4-.32.59-.48.35-.21.9-.34,1.02-.64,1.56-3.75.95-7.78.26-11.42-.27-1.42-4.36-.08-6.68-.49-.64-.11-1.31-.1-1.96-.15.01-.42.03-.83.04-1.25,2.54,0,5.08.11,7.61-.03,2.36-.13,3.04.9,3.05,3.13,0,3.18-.47,6.39.36,9.54-1.23,4.56-4.66,6.24-8.92,6.84-1.29-1.17-2.82-1.57-4.53-1.43-1.05-.31-.74-1.64-1.56-2.12-.24-.39-.49-.77-.73-1.16-.06-1.21-1.15-.08-1.5-.66l.29-7.46Z"/>
    <path class="cls-10" d="M118.8,87.63c.05.43.08.87.16,1.3.18.98.42,2.1,1.53,2.25,1.08.14,1.31-1.02,1.57-1.79.28-.84.76-1.27,1.56-1.45,1.29.38,2.59.76,3.88,1.14,1.31,2.93-2.16,3.32-2.77,5.23-2.8-2.19-5.59-.27-8.38,0-.96-1.74-3.68-2.53-2.79-5.25l5.25-1.43Z"/>
    <path class="cls-5" d="M138.22,114.99c-.12-.49-.23-.99-.35-1.48,1.04-1.69,2.85-1.1,4.34-1.44,0,0,.31.02.31.02l.31-.06c.87.07,1.74.15,2.61.22.94.14,1.88.29,2.82.43,1.37,1.05,3.99.97,3.79,3.42-.17,2.05-1.43,3.61-3.72,3.93-.05-.75-.16-1.5-.13-2.25.07-1.65-.25-2.69-2.3-2.17-1,.25-2.13-.39-3.14.25-1.43-.71-3.27.74-4.53-.87Z"/>
    <path class="cls-10" d="M142.34,123.32c-3.01-2.71-2.9-4.33.38-5.87-.23,3.95,2.79,4.28,5.51,4.95,4.25,2.47,4.49,3.7,1.32,6.44-1.56-.37.88-2.55-1.25-2.69-.66-.33-1.32-.67-1.98-1-1.14-.5-2.28-1.01-3.42-1.51-.16-.16-.34-.27-.56-.33Z"/>
    <path class="cls-10" d="M106.11,95.51c.39-1.76-1.94-2.86-1.17-4.72,2.47-1.15,4.96-2.15,7.69-.77-.13.4-.14.98-.42,1.17-2.72,1.88-2.31,3.25.62,4.29,0,0-.03.05-.03.05-.44.23-.88.46-1.32.69-1.28.85-2.75.56-4.15.7-.41-.47-.82-.94-1.22-1.4Z"/>
    <path class="cls-10" d="M92.91,126.2c-1.02-.06-2.04,2-3.04.1-.86-1.66.27-2.41,1.62-2.98.51-.21.98-.51,1.47-.77,2.06-.19,3.65-1.43,5.37-2.37,1.2-.24.37-1.86,1.48-2.16,2.28,2.28.91,3.89-1,5.4-.4.15-.8.31-1.2.46-.55.29-1.11.57-1.66.86-1.14.24-2.22.59-3.05,1.46Z"/>
    <path class="cls-10" d="M134.78,95.5c-1.3,0-2.6,0-3.91,0-.03-.41-.05-.83-.08-1.24-.02-.57-.22-1.04-.74-1.33-.19-.03-.36-.1-.51-.21-.05-1.1-1.2-2.24.15-3.28,1.1.05,2.28-.15,3.27.21,5.28,1.88,5.88,1.24,1.82,5.86Z"/>
    <path class="cls-21" d="M92.91,126.2c.83-.88,1.92-1.22,3.05-1.46,1.66,2.74.53,5.74.8,8.61-1.31.27-2.62.3-3.91-.14.02-2.33.03-4.67.05-7Z"/>
    <path class="cls-3" d="M98.33,120.18c-1.72.94-3.31,2.19-5.37,2.37-.04-.89-.08-1.79-.12-2.68-.38-3.03,1.17-4.3,4.02-4.36,3.2.7.73,3.19,1.48,4.67Z"/>
    <path class="cls-3" d="M148.23,122.41c-2.72-.67-5.73-1.01-5.51-4.95,0-.53.02-1.05.02-1.58,1.01-.65,2.14,0,3.14-.26,2.05-.52,2.37.53,2.3,2.17-.03.75.08,1.5.13,2.25-.03.79-.06,1.58-.09,2.37Z"/>
    <path class="cls-18" d="M92.97,101.49c-.31-1.08-1.11-2.21.39-3.08,1.76-1.03,3.58-.6,5.08.25,1.63.92.37,2.29-.11,3.45-2.07,2.24-3.85,2.02-5.36-.61Z"/>
    <path class="cls-12" d="M149.64,136.77c2.75,1.03-.9,1.5-.21,2.36-.9-.17-1.85-.61-2.53.44-.92.12-1.95-.32-2.73.53-1,.93-1.97.14-2.96-.01-.07-.01-.21.28-.27.45-.02.07.06.23.14.28.07.04.24.02.29-.03.12-.15.32-.45.28-.49-1.12-1.13-2.03-2.25-.18-3.53,2.72-.82,5.44-.8,8.16,0ZM144.6,138.03c-1.47-.46-2.03-.8-2.47,0h2.47Z"/>
    <path class="cls-18" d="M142.82,102.18c.21-1.18-2.39-2.1-.44-3.36,1.85-1.19,3.94-1.26,5.85-.13,1.82,1.08-.15,2.32-.06,3.49-1.79.59-3.57,1.18-5.36,0Z"/>
    <path class="cls-23" d="M149.64,136.77c-2.72-.8-5.44-.83-8.16,0,1.07-4.43.67-8.95.86-13.44.22.06.4.17.56.33-.01,2.21.1,4.44-.08,6.64-.21,2.6.62,3.78,3.33,3.12.7-.25,1.41-.5,2.11-.76.98,1.2,1.37,2.59,1.38,4.11Z"/>
    <path class="cls-10" d="M96.86,115.51c-2.85.06-4.39,1.33-4.02,4.36-1.34-.25-2.42-.71-3.05-2.14-1.16-2.66-.81-3.32,2.25-3.59.97-.35,2.43.32,2.76-1.33,0,0,.01,0,.01,0,2.15-.22,3.31.32,2.04,2.7Z"/>
    <path class="cls-23" d="M92.85,133.2c1.29.45,2.59.42,3.91.14.62-.31,1.24-.62,1.86-.92.54,1.46,1.08,2.92,1.62,4.39-2.93,0-5.85-.01-8.78-.02,0-1.37.56-2.53,1.38-3.59Z"/>
    <path class="cls-21" d="M92.92,112.66c0-1.86-.01-3.73-.02-5.59,3.91-1.09,4.7-.54,4.78,3.38.01.54.02,1.09.03,1.63-.96.24-1.93.49-2.89.73,0,0-.01,0-.01,0-.63-.05-1.26-.1-1.88-.14Z"/>
    <path class="cls-15" d="M97.71,112.08c0-.54-.02-1.09-.03-1.63-.08-3.92-.87-4.48-4.78-3.38-.28-.96-.56-1.93-.84-2.89,2.4-.02,4.81-.05,7.21-.07-1.03,2.62-.33,5.32-.38,7.99-.39,0-.79,0-1.18,0Z"/>
    <path class="cls-12" d="M91.47,136.79c2.93,0,5.85.01,8.78.02.55,1.12,1.82,2.43-.73,2.72l.03.02c-.72-1-1.84-.36-2.73-.66.31-1.27,1.89-.21,2.42-1.14h-6.81l.02.23c1.48.28,2.96.57,4.43.85-.02.25-.04.49-.06.73,0,0,.07-.05.07-.05-.91,0-1.83,0-2.74,0l.08.04c-.69-.75-1.37-.92-2.06,0,0,0,.04-.05.04-.05-.45.13-.89.25-1.34.38.01-1.07-.87-2.31.6-3.1Z"/>
    <path class="cls-21" d="M145.44,112.25c-.87-.07-1.74-.15-2.61-.22-.03-1.52-.07-3.04-.1-4.56.07-.15.09-.32.06-.48,1.1-.69,2.25-.72,3.43-.26-.24,1.84.6,3.84-.78,5.53Z"/>
    <path class="cls-5" d="M97.71,112.08c.39,0,.79,0,1.18,0,1.35.26,2.81-.09,4.06.74-1.88-.02-2.19,1.17-2.08,2.7-.75.19-1.78-.28-2.15.81-.32.95.63,1.18,1.09,1.68-1.11.3-.28,1.93-1.48,2.16-.74-1.48,1.72-3.97-1.48-4.67,1.26-2.37.11-2.91-2.04-2.7.96-.24,1.93-.49,2.89-.73Z"/>
    <path class="cls-5" d="M137.3,133.53c-.83-3.15-.35-6.36-.36-9.54,0-2.23-.69-3.26-3.05-3.13-2.53.14-5.07.03-7.61.03-.03-.21-.04-.41-.02-.62,3.75.15,7.5.47,11.23-.17.08,4.48.42,8.96-.2,13.43Z"/>
    <path class="cls-3" d="M148.26,132.65c-.7.25-1.41.5-2.11.76.06-2.75.11-5.5.17-8.25.66.33,1.32.67,1.98,1-.01,2.16-.03,4.33-.04,6.49Z"/>
    <path class="cls-15" d="M107.42,138.33c.03-4.69.03-9.38.12-14.07.02-1.13-.46-2.43.69-3.35-.02,4.85-.06,9.71-.06,14.56,0,1.07-.21,2.3,1.27,2.69.06.46.12.92.18,1.39-.94-.04-1.66-.47-2.2-1.22Z"/>
    <path class="cls-23" d="M142.82,102.18c1.79,1.18,3.57.6,5.36,0,1.37.18,1.57.92.97,2.04-2.43,0-4.85,0-7.27,0-.51-1.06-.45-1.85.94-2.04Z"/>
    <path class="cls-3" d="M111.69,140.09c-.03-.14,0-.27.11-.38.33-.07.66-.14.99-.21.99.13,1.95.13,2.73-.63.45,0,.89,0,1.34,0l.05.04c.03.15.08.29.17.41.72,1.14,2.1,1.02,3.1,1.61-3.01,1.52-5.7-.1-8.48-.84Z"/>
    <path class="cls-3" d="M98.63,132.42c-.62.31-1.24.62-1.86.92-.27-2.87.86-5.87-.8-8.61.55-.29,1.11-.57,1.66-.86,1.58,2.5-.13,5.46,1.14,8-.19.14-.23.33-.13.55Z"/>
    <path class="cls-15" d="M104.19,120.16c0,.23.02.47.03.7.03,4.68-.44,9.38.63,14.02l-.25.19c-.88-.97-1.09-2.14-1.08-3.39.03-4.98.05-9.97.07-14.95.7,1.06.3,2.31.6,3.44Z"/>
    <path class="cls-3" d="M145.44,112.25c1.38-1.68.54-3.68.78-5.53.68.06,1.36.12,2.04.17,0,1.93,0,3.86,0,5.79-.94-.14-1.88-.29-2.82-.43Z"/>
    <path class="cls-15" d="M148.26,106.9c-.68-.06-1.36-.12-2.04-.17-1.19-.46-2.33-.43-3.43.26-.3-.92-.6-1.84-.9-2.77,2.42,0,4.85,0,7.27,0-.3.89-.6,1.79-.89,2.68ZM144.39,105.23c.38.09.72.3.96.21.33-.12,1.2.49.91-.44-.07-.23-1.19-.3-1.87.22Z"/>
    <path class="cls-5" d="M129.69,89.43c-1.34,1.04-.19,2.18-.15,3.28-.24.27-.48.54-.72.8-1.34.25-2.69.49-4.04.74,0,0-.06.06-.06.06.61-1.91,4.08-2.31,2.77-5.23.78-.16,1.52-.14,2.19.36Z"/>
    <path class="cls-3" d="M123.84,138.94c1.71-.15,3.24.25,4.53,1.43-2.08.63-4.19,2.07-6.2-.16-.03-.2-.04-.4,0-.6l1.68-.67Z"/>
    <path class="cls-5" d="M105.49,120.91c.24.02.47.04.71.06.02,5.29.04,10.57.06,15.86-.08.08-.18.15-.28.2-.16,0-.29-.05-.4-.15-.03-.68-.06-1.36-.1-2.04,0-4.64.01-9.28.02-13.92Z"/>
    <path class="cls-23" d="M99.27,104.1c-2.4.02-4.8.05-7.21.07-1.05-1.35.23-1.92.91-2.68,1.51,2.63,3.29,2.86,5.36.61,1.23.24,1.4.97.94,2Z"/>
    <path class="cls-12" d="M99.52,139.53c-1.7,2.1-5.66,2.09-7.31-.02,0,0-.04.05-.04.05.69,0,1.38,0,2.06,0,0,0-.08-.04-.08-.04.92.84,1.83,1.11,2.74,0,0,0-.07.05-.07.05.91,0,1.82,0,2.73-.01l-.03-.02Z"/>
    <path class="cls-23" d="M98.76,131.87c-1.27-2.54.44-5.5-1.14-8,.4-.15.8-.31,1.2-.46-.02,2.82-.04,5.64-.06,8.46Z"/>
    <path class="cls-12" d="M122.16,139.6c-.03.2-.03.4,0,.6-.67.24-1.33.48-2,.73-1-.59-2.38-.47-3.1-1.61.78.01,1.57.02,2.35.02.28-.01.56-.03.83-.04,0,0,.26.02.26.02l.24-.08c.47.12.94.24,1.41.36Z"/>
    <path class="cls-3" d="M146.9,139.56c.69-1.05,1.63-.61,2.53-.44.25.48,1.45.43.9,1.28-.34.52-.84-.25-1.3-.29-.59-.72-1.45-.42-2.18-.59l.05.05Z"/>
    <path class="cls-3" d="M144.17,140.09c.78-.85,1.81-.4,2.73-.53,0,0-.05-.05-.05-.05.09.18.12.37.09.57-.92.92-1.84,1.08-2.76,0Z"/>
    <path class="cls-5" d="M92.92,112.66c.63.05,1.26.1,1.88.14-.33,1.66-1.79.99-2.76,1.33-.02-.68.18-1.22.88-1.48Z"/>
    <path class="cls-23" d="M142.73,107.47c.03,1.52.07,3.04.1,4.56,0,0-.31.06-.31.06,0,0-.31-.02-.31-.02.19-1.53-.27-3.14.52-4.61Z"/>
    <path class="cls-15" d="M105.47,134.84c.03.68.06,1.36.1,2.04-.32-.6-.64-1.21-.97-1.81,0,0,.25-.19.25-.19.21,0,.42-.01.62-.04Z"/>
    <path class="cls-12" d="M146.93,140.08c.04-.2,0-.39-.09-.57.73.18,1.6-.13,2.18.59-.7,0-1.4-.01-2.1-.02Z"/>
    <path class="cls-22" d="M73.54,68.79c.22-.02.44-.04.67-.06-.22.02-.44.04-.67.06Z"/>
    <path class="cls-22" d="M216.88,68.73c.22.02.44.04.67.06-.22-.02-.44-.04-.67-.06Z"/>
    <path class="cls-22" d="M74.21,151.65c-.22-.02-.44-.04-.67-.06.22.02.44.04.67.06Z"/>
    <path class="cls-22" d="M217.55,151.59c-.22.02-.44.04-.67.06.22-.02.44-.04.67-.06Z"/>
    <path class="cls-1" d="M135.15,105.57c-.43,1.56-1.59,2.61-1.54,4.21-1.5-.78.14-2.7-1.66-3.44-.49,2.21-2.21,4.11-.3,6.55.46.59.83,2.44-.14,2.96-1.32.72-3.12.82-4.5.11-1.36-.7.36-1.36.41-2.09.05-.72,1.38-1.11.58-1.99-.51-.57-1.25-.25-1.89-.14-.73.13-1.6.69-2.05-.29-.43-.92.62-.87,1.02-1.27,1.26-1.25-.49-1.51-.88-2.19-.27-.47-1.41-.51-.66-1.43.71-.88,1.18-.49,1.79.23,1.17,1.39,2.35,2.56,2.88-.52.31-1.82,1.87-2.35,3.18-1.4,1.19.86,2.31.44,3.76.7Z"/>
    <path class="cls-18" d="M127.52,101.4c.02.21.04.41.08.62-6.8.38-6.88.38-6.74,7.38.04,1.77-1.15,4.02,1.28,5.27-1.57.09-1.78-.92-1.77-2.15.02-2.21-.14-4.43.03-6.62.23-2.8-.61-4.22-3.67-3.79-1.07.15-2.2-.08-3.3-.13.64-2.8,2.67-.79,4.02-1.17,3.29,1.37,6.71.57,10.08.59Z"/>
    <path class="cls-5" d="M126.01,119.44c-.13-.41-.26-.83-.4-1.24.13.41.26.83.4,1.24Z"/>
    <path class="cls-18" d="M116.18,110.78c-.89,1.3-.97,2.9-.28,4.06,1.07,1.78.29,2.57-1.04,3.4-1.52-.54-2.97-1.12-4.65-.19-.64.36-1.82.35-2.38-.55-.46-.74-.14-1.43.42-2.09,1.14-1.35.78-2.84.35-4.37-.65-2.32,1.22-6.04,3.27-6.72,1.06-.35,1.3.29,1.2,3.27.98.11.65-1.95,1.66-1.23,1.46,1.04,1.62,2.73,1.45,4.43Z"/>
    <path class="cls-12" d="M119.49,116.13c3.58-.59,4.14,2.28,4.79,4.57.49,1.73-.69,3.24-2.35,3.94-1.59.67-3.14.23-4.08-1.24-.87-1.37-1.89-3.08-.21-4.41,1.01-.8.24-2.21,1.41-2.72.17.02.32-.03.44-.15Z"/>
    <path class="cls-10" d="M127.52,101.4c-3.37-.03-6.79.77-10.08-.59,3.54-2.6,7.33-.93,10.97-.43.63.09-.69.56-.9,1.03Z"/>
    <path class="cls-5" d="M112.83,95.48c-2.93-1.04-3.34-2.41-.62-4.29.28-.19.28-.77.42-1.17.05-.56.27-.97.92-.96-.89,2.72,1.83,3.52,2.79,5.25,0,0-.08-.07-.08-.07-1,.03-2.15-.33-2.63,1.02-.27.07-.53.14-.8.22Z"/>
    <path class="cls-18" d="M128.83,93.51c.24-.27.48-.54.72-.8.15.11.32.18.51.21.25.44.5.89.74,1.33.03.41.05.83.08,1.24-.32.52,1.08,1.91-.9,1.63-1.8-.26-3.68-.13-5.44-.54-1.18-.28-.44-.81.24-1.05,1,.09,2.02.25,2.75-.71.68.29,1.33.52,1.33-.63-.01-.22-.02-.45-.04-.67Z"/>
    <path class="cls-10" d="M127.53,94.81c-.73.96-1.75.8-2.75.71,0-.43,0-.85,0-1.28,1.34-.25,2.69-.49,4.03-.74.01.22.02.45.04.67-.44.21-.89.42-1.33.63Z"/>
    <path class="cls-10" d="M113.63,95.26c.49-1.35,1.64-.99,2.63-1.02-.02.42-.05.84-.07,1.26h-.02c-.36.07-.72.12-1.09.17-.42-.08-.84-.17-1.26-.25l-.2-.16Z"/>
    <path class="cls-5" d="M116.19,95.5c.36.13.85.07.91.63,0,.07-.12.21-.19.21-.56.01-.59-.46-.74-.82,0,0,.01-.01.01-.01Z"/>
    <path class="cls-5" d="M113.83,95.42c.42.08.84.17,1.26.25-.34.2-.68.4-1.02.6-.08-.28-.16-.57-.24-.85Z"/>
    <path class="cls-5" d="M111.49,96.21c.44-.23.88-.46,1.32-.69-.15.79-.51,1.17-1.32.69Z"/>
    <path class="cls-19" d="M122.98,133.91c-.91-2.53-.15-5.11-.22-7.66.47-.18.95-.37,1.42-.55.81.69,2.24.39,2.67,1.71.25.77.6,1.63,1.59.9.76-.55.22-1.32.14-2.07-.19-1.77-2.84-1.98-2.36-4.03,0,0,.02-.07.02-.07.65.05,1.32.03,1.96.15,2.32.41,6.41-.93,6.68.49.69,3.64,1.3,7.67-.26,11.42-.13.3-.67.43-1.02.64.82-2.4-.98-1.81-2.15-1.84-1.49-.04-1.97,1.17-1.75,2.18.39,1.75,1.54.01,2.34.22.3.08.64-.05.97-.08-.88,3.02-3.23,2.43-5.43,2.2,1.37-1.84-.64-4.9,2.57-6.04-1.87-.82-3.02-.59-3.93.98-.67,1.15-1.65,2.13-3.24,1.47ZM130.45,128.07c.34-.8.64-1.53.08-2.53-.59,1.04-.17,1.75-.08,2.53Z"/>
    <path class="cls-5" d="M115.52,138.87c-.79.75-1.75.75-2.73.63.04-6.2.08-12.4.12-18.6,1.67-.04,2.37.98,2.63,2.46-.14,5.17-1.12,10.34,0,15.51Z"/>
    <path class="cls-23" d="M115.52,138.87c-1.11-5.17-.13-10.34,0-15.51,1.69,1.7,1.32,3.86,1.34,5.94.03,2.98.05,5.97.08,8.95-.05.2-.08.41-.09.61-.45,0-.89,0-1.34,0Z"/>
    <path class="cls-23" d="M112.9,120.9c-.04,6.2-.08,12.4-.12,18.6-.33.07-.66.14-.99.21-.83-5.82-.19-11.66-.34-17.49-.02-.94.47-1.42,1.44-1.32Z"/>
    <path class="cls-23" d="M109.44,138.17c-1.48-.4-1.27-1.62-1.27-2.69,0-4.85.03-9.71.06-14.56,1.77.14,1.25,1.54,1.25,2.49.04,4.92-.02,9.84-.04,14.76Z"/>
    <path class="cls-23" d="M105.47,134.84c-.21.03-.42.04-.62.04-1.07-4.63-.6-9.34-.63-14.02.42.02.85.03,1.27.05,0,4.64-.01,9.28-.02,13.92Z"/>
    <path class="cls-5" d="M126.22,122.21c-.48,2.05,2.16,2.26,2.36,4.03.08.75.62,1.51-.14,2.07-1,.73-1.35-.13-1.59-.9-.42-1.32-1.86-1.02-2.67-1.71.68-1.16,1.36-2.32,2.04-3.48Z"/>
    <path class="cls-2" d="M110.36,137.81v-15.76c.09,0,.18,0,.27,0v15.76c-.09,0-.18,0-.27,0Z"/>
    <path class="cls-23" d="M120.35,127.55c-.1,2.49-.19,4.97-.29,7.45-.16.38-.32.75-.48,1.13-.18.05-.36.1-.55.15-.05-2.64-.14-5.28-.15-7.92,0-1,.21-1.94,1.46-.8Z"/>
    <path class="cls-2" d="M106.26,136.83c-.02-5.29-.04-10.57-.06-15.86,1.13,5.28,1.04,10.57.06,15.86Z"/>
    <path class="cls-2" d="M118.31,136.98c-1.64-3.15-.43-6.44,0-9.68,0,3.23,0,6.46,0,9.69,0,0,0,0,0,0Z"/>
    <path class="cls-3" d="M116.86,138.86c0-.21.04-.41.09-.61.64-.23,1.13-.6,1.37-1.26,0,0,0,0,0,0,.25-.1.5-.19.75-.29.36.04.73.09,1.09.13.03.83.07,1.65.1,2.48-.28.01-.56.03-.83.04-.84-.15-1.68-.29-2.52-.44l-.05-.04Z"/>
    <path class="cls-1" d="M120.16,136.83c-.36-.04-.73-.08-1.09-.13-.08-.14-.09-.28-.03-.43.18-.05.36-.1.55-.15.72.1,1.42.1,1.98-.47.24.39.49.77.73,1.16,0,0-.18.18-.18.18-.23.14-.46.29-.7.43-.42-.2-.84-.4-1.26-.6Z"/>
    <path class="cls-6" d="M113.55,89.06c-.65,0-.87.4-.92.96-2.73-1.38-5.22-.38-7.69.77-.52-2.69,1.18-3.71,3.33-3.84,2.22-.14,4.18-.49,6.23-1.55,1.79-.93,4.33-1.3,4.3,2.23-1.75.48-3.5.95-5.25,1.43Z"/>
    <path class="cls-10" d="M122.98,133.91c1.6.66,2.58-.31,3.24-1.47.91-1.57,2.05-1.8,3.93-.98-3.22,1.15-1.2,4.2-2.57,6.04-1.51-1.23-4.14-1.03-4.6-3.6Z"/>
    <path class="cls-10" d="M133,135.31c-.32.03-.67.16-.97.08-.8-.21-1.94,1.53-2.34-.22-.23-1.01.26-2.22,1.75-2.18,1.17.03,2.97-.56,2.15,1.84-.2.16-.4.32-.59.48Z"/>
    <path class="cls-1" d="M122.16,139.6c-.47-.12-.94-.24-1.41-.36.23-.12.47-.24.7-.37.76-.44.8-1.13.65-1.88,0,0,.18-.18.18-.18.82.48.51,1.81,1.56,2.12-.57.22-1.13.45-1.69.67Z"/>
    <path class="cls-3" d="M121.56,135.66c-.56.57-1.26.57-1.98.47.16-.38.32-.75.48-1.13.34.57,1.43-.56,1.5.66Z"/>
    <path class="cls-21" d="M146.32,125.16c-.06,2.75-.11,5.5-.17,8.25-2.71.67-3.55-.52-3.33-3.12.18-2.2.06-4.43.08-6.64,1.14.5,2.28,1.01,3.42,1.51Z"/>
    <path class="cls-5" d="M130.8,94.25c-.25-.44-.49-.89-.74-1.33.53.29.72.76.74,1.33Z"/>
    <path class="cls-3" d="M144.6,138.03h-2.47c.44-.8.99-.46,2.47,0Z"/>
    <path class="cls-3" d="M96.87,138.83c-1.48-.28-2.96-.57-4.43-.85l-.02-.23h6.81c-.53.93-2.11-.13-2.42,1.14,0,0,.06-.06.06-.06Z"/>
    <path class="cls-3" d="M99.55,139.55c-.91,0-1.82,0-2.73.01.02-.24.04-.49.06-.73,0,0-.06.06-.06.06.89.3,2.01-.33,2.73.66Z"/>
    <path class="cls-3" d="M96.89,139.51c-.91,1.11-1.83.84-2.74,0,.91,0,1.83,0,2.74,0Z"/>
    <path class="cls-3" d="M94.22,139.56c-.69,0-1.38,0-2.06,0,.69-.92,1.38-.75,2.06,0Z"/>
    <path class="cls-1" d="M116.91,138.91c.84.15,1.68.29,2.52.44-.78,0-1.57-.01-2.35-.02-.08-.13-.14-.27-.17-.42Z"/>
    <path class="cls-23" d="M144.39,105.23c.68-.52,1.8-.46,1.87-.22.29.92-.58.32-.91.44-.24.08-.58-.12-.96-.21Z"/>
    <path class="cls-5" d="M121.46,138.88c-.23.12-.47.24-.7.37,0,0-.24.08-.24.08,0,0-.26-.02-.26-.02-.03-.82-.07-1.65-.1-2.47.42.2.84.4,1.26.6.02.48.03.97.04,1.45Z"/>
    <path class="cls-5" d="M127.53,94.81c.44-.21.89-.42,1.33-.63,0,1.15-.65.92-1.33.63Z"/>
    <path class="cls-5" d="M130.45,128.07c-.09-.79-.51-1.49.08-2.53.56,1,.26,1.73-.08,2.53Z"/>
    <path class="cls-3" d="M121.46,138.88c-.01-.48-.03-.97-.04-1.45.23-.15.46-.29.7-.43.15.75.11,1.44-.65,1.88Z"/>
  </g>
  <path class="cls-17" d="M146.35.82c47.43-1.99,93.46,33.98,105.49,81.79,5.55,22.07,3,43.04-5.34,63.84-13.41,33.42-31.75,64.14-51.37,94.14-9.6,14.67-19.88,28.88-29.65,43.45-3.79,5.66-8.15,10.45-14.52,13.15h-4.63c.05-4.2.09-8.4.14-12.6,2.76-.75,4.67-2.63,6.28-4.83,5.55-7.61,11.09-15.23,16.53-22.92.6-.85,2.17-1.97.04-3.6-5.15,5.64-10.27,11.3-15.47,16.9-2.04,2.2-3.71,5.07-7.37,4.83-.08-25.36-.17-50.72-.25-76.08,28.41-.46,51.78-11.48,69.91-33.42,16.86-20.41,22.91-44.36,18.86-69.82-7.19-45.19-43.28-75.47-88.69-76.49.05-2.52.1-5.05.15-7.57,18.52-.44,35.38,5.55,51.82,13.35-15.21-11.98-32.58-17.9-51.79-18.74-.04-1.78-.08-3.56-.12-5.34Z"/>
  <path class="cls-9" d="M146.46,284.59c-.05,4.2-.09,8.4-.14,12.6h-5.79c-7.08-4.01-11.47-10.53-15.99-16.97-25.86-36.8-50.81-74.16-70.17-114.93-6.87-14.48-13.36-29.21-15.66-45.19-3.83-26.67,3.09-51.1,18.5-72.75C78.88,16.91,108.72,1.17,146.35.82c.04,1.78.08,3.56.12,5.34l-.3.41c-19.64-.2-36.69,7.05-52.36,18.41,16.61-7.95,33.87-13.29,52.37-13.9l.27.48c-.05,2.52-.1,5.05-.15,7.57,0,0,.08.12.08.12-47.41.06-89.73,37.22-89.86,89.53-.14,53.72,43.42,90.5,89.79,89.97l-.08.12c.08,25.36.17,50.72.25,76.08l-.3.47c-2.7-.33-4.43-2.12-6.14-4-4.66-5.14-9.32-10.28-14.05-15.35-1.21-1.3-2.07-3.42-5.08-2.55,6.76,9.29,13.36,18.4,19.99,27.49,1.29,1.76,2.86,3.14,5.26,2.99.05.22.15.42.31.58Z"/>
  <path class="cls-13" d="M146.29,19.14c45.41,1.03,81.51,31.31,88.69,76.49,4.05,25.47-1.99,49.42-18.86,69.82-18.13,21.94-41.5,32.96-69.91,33.42,0,0,.08-.12.08-.12.03-3.45.06-6.9.09-10.35,9.15.23,17.95-1.52,26.48-4.75.74-.2,1.5-.33,2.21-.61,31.2-12.35,50.6-41.16,50.35-74.77-.25-33.56-20.29-61.8-52.42-73.88-5.35-1.44-10.6-3.36-16.21-3.67-3.25-2.22-6.94-.63-10.37-1.21-.02-3.42-.04-6.85-.05-10.27l-.08-.12Z"/>
  <path class="cls-11" d="M146.47,6.17c19.21.85,36.58,6.76,51.79,18.74-16.44-7.8-33.3-13.78-51.82-13.35,0,0-.27-.48-.27-.48,0-1.5,0-3,0-4.51l.3-.41Z"/>
  <path class="cls-11" d="M146.47,274.96c3.67.25,5.33-2.63,7.37-4.83,5.2-5.59,10.31-11.26,15.47-16.9,2.13,1.62.56,2.75-.04,3.6-5.44,7.69-10.98,15.31-16.53,22.92-1.61,2.2-3.52,4.09-6.28,4.83-.16-.16-.26-.36-.31-.58,0-2.86,0-5.72.01-8.58l.3-.47Z"/>
  <path class="cls-20" d="M146.39,188.41c-.03,3.45-.06,6.9-.09,10.35-46.36.53-89.92-36.25-89.79-89.97.13-52.31,42.45-89.47,89.86-89.53.02,3.42.04,6.85.05,10.27-3.85.66-7.95-1.12-11.63,1.19-5.44-.3-9.94,3.34-15.24,3.62-35.64,14.27-54.42,43.83-52.12,82.03,1.78,29.65,23.84,58.05,52.28,67.28,8.45,4.04,17.47,4.93,26.68,4.75Z"/>
  <path class="cls-4" d="M146.17,6.57c0,1.5,0,3,0,4.51-18.5.61-35.76,5.95-52.37,13.9,15.67-11.36,32.72-18.61,52.36-18.41Z"/>
  <path class="cls-7" d="M146.17,275.43c0,2.86,0,5.72-.01,8.58-2.4.14-3.98-1.23-5.26-2.99-6.63-9.09-13.24-18.19-19.99-27.49,3.01-.87,3.87,1.25,5.08,2.55,4.73,5.07,9.4,10.21,14.05,15.35,1.71,1.88,3.44,3.67,6.14,4Z"/>
  <path class="cls-14" d="M156.8,30.73c-7.33,0-14.67,0-22-.01,3.68-2.31,7.78-.54,11.63-1.19,3.44.58,7.13-1.02,10.38,1.21Z"/>
</svg>