<?xml version="1.0" encoding="UTF-8"?>
<svg id="Layer_1" data-name="Layer 1" xmlns="http://www.w3.org/2000/svg" viewBox="0 0 185.1 55.9">
  <defs>
    <style>
      .cls-1 {
        fill: #5185fb;
        stroke-width: 0px;
      }
    </style>
  </defs>
  <path id="arrow" class="cls-1" d="M113.3,41.2c-12.1,5.1-25.2,7.6-37.1,7.6-17.7,0-34.8-4.8-48.7-12.9-1.2-.7-2.1.6-1.1,1.5,12.8,11.5,29.8,18.5,48.7,18.5,13.4,0,29-4.3,39.8-12.2,1.7-1.3.1-3.3-1.6-2.5Z"/>
  <path id="arrow-2" data-name="arrow" class="cls-1" d="M106.5,36.7c-.9.7-.7,1.6.3,1.5,3.4-.4,11.2-1.3,12.6.5,1.4,1.8-1.5,9-2.8,12.3-.4,1,.5,1.4,1.3.7,5.8-4.8,7.3-15,6-16.4-1.2-1.7-11.3-2.9-17.4,1.4Z"/>
  <path id="z" class="cls-1" d="M127.5,24.4c-3.3-1.9-7.2-2.4-10.8-2.3l9.8-14c.9-1.2,1.4-2,1.4-2.6V1.9c0-.7-.5-1-1.1-1h-18.9c-.6,0-1,.5-1,1v4.2h0c0,.7.5,1,1.1,1h9.9l-11.4,16.2c-.7,1-.7,2.2-.7,2.9v4.3c0,.7.7,1.3,1.3.9,6.4-3.4,14.1-3.1,19.9,0,.7.4,1.4-.4,1.4-.9v-4.4c0-.7-.2-1.2-.9-1.7Z"/>
  <path id="m" class="cls-1" d="M32.5,32.4h5.8c.7,0,1.1-.5,1.1-1v-15.6c0-3.4-.2-8.1,4-8.1s3.5,4.8,3.5,8.1v15.6c0,.6.5,1,1,1h5.8c.7,0,1.1-.5,1.1-1v-15.6c0-1.7-.1-4.2.6-5.7.6-1.5,2-2.4,3.4-2.4,1.7,0,3,.6,3.3,2.5.3,1.2.2,4.3.2,5.5v15.6c0,.6.5,1,1,1h5.8c.7,0,1.1-.5,1.1-1V12.7c0-3.2.4-6.8-1.5-9.2-1.6-2.2-4.3-3.3-6.6-3.3-3.3,0-6.5,1.8-7.9,5.5-1.6-3.7-3.8-5.5-7.4-5.5s-6.1,1.8-7.5,5.5h-.1V1.9c0-.6-.5-.9-1-1h-5.3c-.7,0-1.1.5-1.1,1v29.4c-.3.6.1,1,.7,1.1Z"/>
  <path id="o" class="cls-1" d="M144.1.3c-8.3,0-12.9,7.2-12.9,16.3s4.6,16.4,12.9,16.4,13.1-7.2,13.1-16.1c.1-9.2-4.5-16.6-13.1-16.6ZM144.1,26.9c-4.5,0-4.5-7.7-4.5-11.3s.3-9.3,4.5-9.3c1.9,0,3.1.8,3.7,2.9.7,2.3.8,5.3.8,7.8.2,3.8,0,9.9-4.5,9.9Z"/>
  <path id="n" class="cls-1" d="M176.9.3c-4,0-6.2,2-7.8,6h-.1V1.8c-.1-.5-.6-.8-1-.8h-5.3c-.6,0-1,.5-1.1.9v29.4c0,.6.5,1,1,1h5.7c.7,0,1.1-.5,1.1-1v-15.8c0-2,.1-3.8.9-5.6.7-1.4,2-2.3,3.3-2.3,4,0,3.6,4.7,3.6,7.9v16c.1.5.5.9,1,.9h5.8c.6,0,1-.4,1.1-.9V13c0-2.9,0-6.8-1.5-9.1-1.6-2.7-4.1-3.6-6.7-3.6Z"/>
  <path id="a" class="cls-1" d="M92,12.5c-3.3.4-7.6.7-10.8,2-3.6,1.6-6.1,4.7-6.1,9.4,0,6,3.7,8.9,8.6,8.9,4.1,0,6.3-.9,9.5-4.2,1,1.5,1.4,2.2,3.3,3.8.5.2.9.2,1.4-.1h0c1.1-1,3.3-2.8,4.4-3.8.5-.4.4-1,0-1.5-1-1.5-2.1-2.6-2.1-5.3v-8.9c0-3.8.3-7.3-2.5-9.9-2.1-2.1-5.9-2.9-8.7-2.9-5.5,0-11.5,2-12.8,8.7-.1.7.4,1.1.8,1.2l5.4.7c.6,0,.9-.6,1-1,.5-2.3,2.4-3.4,4.6-3.4,1.2,0,2.5.5,3.3,1.5.8,1.2.7,2.8.7,4.2v.6h0ZM90.8,24.4c-.9,1.6-2.3,2.6-4,2.6-2.2,0-3.5-1.7-3.5-4.2,0-4.9,4.4-5.8,8.6-5.8v1.2c.1,2.4.1,4.3-1.1,6.2Z"/>
  <path id="a-2" data-name="a" class="cls-1" d="M27,27c-1-1.5-2.1-2.6-2.1-5.3v-8.9c0-3.8.3-7.3-2.5-9.9C20.2.8,16.5,0,13.7,0,8.2,0,2.2,2,.9,8.7c-.1.7.4,1.1.8,1.2l5.6.6c.6,0,.9-.6,1-1,.5-2.3,2.4-3.4,4.7-3.4,1.2,0,2.5.5,3.3,1.5.8,1.2.7,2.8.7,4.2v.7c-3.4.4-7.7.7-10.9,2-3.6,1.6-6.1,4.7-6.1,9.4,0,6,3.7,8.9,8.6,8.9,4.1,0,6.3-.9,9.5-4.2,1,1.5,1.4,2.2,3.3,3.8.5.2.9.2,1.4-.1h0c1.1-1,3.3-2.8,4.4-3.8.3-.4.2-1-.2-1.5ZM15.8,24.4c-.9,1.6-2.3,2.6-4,2.6-2.2,0-3.4-1.7-3.4-4.2,0-4.9,4.4-5.8,8.6-5.8v1.2c-.2,2.4-.1,4.3-1.2,6.2Z"/>
</svg>