<?xml version="1.0" encoding="UTF-8"?> <svg xmlns="http://www.w3.org/2000/svg" viewBox="0 0 837.98 652.01"><defs><style> .cls-1 { fill: #404042; mix-blend-mode: multiply; opacity: .2; } .cls-2 { fill: #fff; } .cls-2, .cls-3 { opacity: .4; } .cls-4 { fill: #9c6045; } .cls-5 { fill: #4974bd; } .cls-6 { fill: #334e9c; } .cls-7 { fill: #a1a09f; } .cls-8 { fill: #373937; } .cls-9 { fill: none; isolation: isolate; } .cls-10 { fill: #cecdce; } .cls-3 { fill: #0a1ca6; } .cls-11 { fill: #5a5d5b; } </style></defs><g class="cls-9"><g id="Calque_2" data-name="Calque 2"><g id="Calque_1-2" data-name="Calque 1"><g><rect class="cls-6" x="138.89" y="13.28" width="574.21" height="609.37"></rect><rect class="cls-5" x="138.89" y="31.89" width="574.21" height="18.64"></rect><rect class="cls-5" x="138.89" y="69.14" width="574.21" height="18.62"></rect><rect class="cls-5" x="138.89" y="106.37" width="574.21" height="18.61"></rect><rect class="cls-5" x="138.89" y="143.61" width="574.21" height="18.63"></rect><rect class="cls-5" x="138.89" y="180.85" width="574.21" height="18.61"></rect><rect class="cls-5" x="137.69" y="218.64" width="575.42" height="18.63"></rect><rect class="cls-5" x="138.89" y="255.34" width="574.21" height="18.61"></rect><rect class="cls-5" x="138.89" y="292.56" width="574.21" height="18.62"></rect><rect class="cls-4" x="138.89" y="329.81" width="574.21" height="18.62"></rect><rect class="cls-5" x="138.89" y="367.05" width="574.21" height="18.62"></rect><rect class="cls-5" x="138.89" y="404.29" width="574.21" height="18.61"></rect><rect class="cls-5" x="138.89" y="441.53" width="574.21" height="18.61"></rect><rect class="cls-5" x="138.89" y="478.77" width="574.21" height="18.6"></rect><rect class="cls-5" x="138.89" y="516" width="574.21" height="18.62"></rect><rect class="cls-5" x="138.89" y="553.24" width="574.21" height="18.61"></rect><rect class="cls-5" x="138.89" y="590.48" width="574.21" height="18.62"></rect><g><rect class="cls-7" x="185.78" y="366.9" width="361.01" height="255.75"></rect><polygon class="cls-2" points="529.13 420.54 385.63 420.54 385.63 420.54 366.3 420.54 366.3 420.54 242.15 420.54 242.15 439.89 366.3 439.89 366.3 615.68 385.63 615.68 385.63 439.89 509.74 439.89 509.74 615.68 529.1 615.68 529.1 439.89 529.13 439.89 529.13 420.54"></polygon><polygon class="cls-2" points="523.84 377.58 242.15 377.58 242.15 389.82 523.84 389.82 523.84 413.57 536.11 413.57 536.11 389.82 536.11 377.58 523.84 377.58"></polygon><polygon class="cls-2" points="222.92 377.58 196.46 377.58 196.46 389.82 222.92 389.82 222.92 615.68 235.18 615.68 235.18 389.82 235.18 377.58 222.92 377.58"></polygon><rect class="cls-8" x="185.78" y="366.9" width="10.68" height="255.75"></rect><rect class="cls-8" x="536.11" y="366.9" width="10.68" height="255.75"></rect><rect class="cls-8" x="360.94" y="191.74" width="10.69" height="361.01" transform="translate(738.52 5.96) rotate(90)"></rect><rect class="cls-8" x="362.8" y="236.55" width="6.96" height="361.01" transform="translate(783.34 50.77) rotate(90)"></rect><rect class="cls-8" x="212.33" y="464.95" width="6.98" height="38.72" transform="translate(700.14 268.49) rotate(90)"></rect><rect class="cls-8" x="212.34" y="532.23" width="6.96" height="38.72" transform="translate(767.41 335.76) rotate(90)"></rect><rect class="cls-8" x="212.34" y="599.81" width="6.97" height="38.72" transform="translate(834.99 403.34) rotate(90)"></rect><rect class="cls-8" x="310.4" y="547.43" width="6.97" height="143.48" transform="translate(933.05 305.28) rotate(90)"></rect><path class="cls-11" d="m392.59,420.54v202.11h143.52v-202.11h-143.52Zm136.54,195.15h-129.56v-188.18h129.56v188.18Z"></path><rect class="cls-8" x="235.18" y="377.58" width="6.96" height="245.07"></rect><rect class="cls-8" x="385.63" y="377.58" width="6.96" height="245.07"></rect></g><rect class="cls-11" x="63.05" y="37.46" width="38.89" height="85.44"></rect><rect class="cls-11" x="73.93" y="110.86" width="64.96" height="12.05"></rect><rect class="cls-6" x="45.53" y="122.91" width="93.36" height="529.1"></rect><rect class="cls-11" y="99.97" width="45.53" height="552.04"></rect><rect class="cls-11" x="808.81" y="366.9" width="15.86" height="255.75"></rect><rect class="cls-11" x="138.89" y="622.65" width="699.09" height="29.36"></rect><rect class="cls-11" x="138.89" y="330.88" width="699.09" height="36.01"></rect><rect class="cls-11" x="138.89" y="0" width="574.21" height="13.28"></rect><path class="cls-2" d="m301.64,555.07c0,3.17-3.76,5.74-8.43,5.74s-8.43-2.57-8.43-5.74,3.77-5.74,8.43-5.74,8.43,2.57,8.43,5.74Z"></path><path class="cls-2" d="m477.35,512.77c0,3.16-3.8,5.73-8.43,5.73s-8.45-2.57-8.45-5.73,3.78-5.74,8.45-5.74,8.43,2.56,8.43,5.74Z"></path><path class="cls-2" d="m429.49,590.48c0,3.16-3.78,5.75-8.46,5.75s-8.43-2.59-8.43-5.75,3.8-5.74,8.43-5.74,8.46,2.58,8.46,5.74Z"></path><rect class="cls-7" x="185.78" y="75.13" width="361.01" height="255.75"></rect><polygon class="cls-10" points="536.11 98.08 536.11 121.82 523.84 121.82 523.84 98.08 242.15 98.08 242.15 85.83 523.84 85.83 536.11 85.83 536.11 98.08"></polygon><polygon class="cls-10" points="222.92 85.83 196.46 85.83 196.46 98.08 222.92 98.08 222.92 323.92 235.18 323.92 235.18 98.08 235.18 85.83 222.92 85.83"></polygon><rect class="cls-8" x="185.78" y="75.13" width="10.68" height="255.75"></rect><rect class="cls-8" x="536.11" y="75.13" width="10.68" height="255.75"></rect><rect class="cls-8" x="360.94" y="-100.02" width="10.7" height="361.01" transform="translate(446.77 -285.8) rotate(90)"></rect><rect class="cls-8" x="362.8" y="-55.2" width="6.96" height="361.01" transform="translate(491.58 -240.98) rotate(90)"></rect><rect class="cls-8" x="212.34" y="173.21" width="6.96" height="38.72" transform="translate(408.39 -23.26) rotate(90)"></rect><path class="cls-11" d="m438.7,128.78v195.14h97.41v-195.14h-97.41Zm90.43,188.17h-83.45v-181.21h83.45v181.21Z"></path><path class="cls-11" d="m334.37,128.78v195.14h97.38v-195.14h-97.38Zm90.43,188.17h-83.48v-181.21h83.48v181.21Z"></path><rect class="cls-8" x="212.34" y="240.47" width="6.97" height="38.72" transform="translate(475.66 44.01) rotate(90)"></rect><rect class="cls-8" x="212.34" y="308.04" width="6.97" height="38.72" transform="translate(543.22 111.58) rotate(90)"></rect><rect class="cls-8" x="385.64" y="180.42" width="6.97" height="293.96" transform="translate(716.53 -61.73) rotate(90)"></rect><rect class="cls-8" x="235.18" y="85.83" width="6.96" height="245.06"></rect><rect class="cls-8" x="327.4" y="85.83" width="6.97" height="245.06"></rect><rect class="cls-8" x="431.74" y="85.83" width="6.96" height="245.06"></rect><polygon class="cls-10" points="445.67 135.75 445.67 153.27 511.61 153.27 511.61 316.95 529.13 316.95 529.13 153.27 529.13 147.35 529.13 135.75 445.67 135.75"></polygon><polygon class="cls-10" points="341.32 135.75 341.32 153.27 407.26 153.27 407.26 316.95 424.8 316.95 424.8 153.27 424.8 147.35 424.8 135.75 341.32 135.75"></polygon><polygon class="cls-10" points="242.15 128.78 242.15 146.31 309.87 146.31 309.87 323.92 327.4 323.92 327.4 153.27 327.4 147.35 327.4 128.78 242.15 128.78"></polygon><rect class="cls-11" x="582.51" y="366.9" width="15.85" height="255.75"></rect><rect class="cls-11" x="353.89" y="366.9" width="15.84" height="255.75"></rect><rect class="cls-11" x="138.89" y="366.9" width="15.86" height="255.75"></rect><rect class="cls-1" x="138.89" y="366.9" width="15.86" height="31.08"></rect><rect class="cls-1" x="353.89" y="366.9" width="15.84" height="31.08"></rect><rect class="cls-1" x="582.51" y="366.9" width="15.85" height="31.08"></rect><rect class="cls-1" x="808.81" y="366.9" width="15.86" height="31.08"></rect><rect class="cls-11" x="45.53" y="637.32" width="93.36" height="14.69"></rect><rect class="cls-7" x="64" y="162.24" width="56.42" height="168.64"></rect><rect class="cls-7" x="64" y="415.77" width="56.42" height="168.66"></rect><polygon class="cls-3" points="64 415.77 64 432.26 103.48 432.26 103.48 584.43 120.42 584.43 120.42 415.77 64 415.77"></polygon><polygon class="cls-3" points="64 162.24 64 178.71 103.48 178.71 103.48 330.88 120.42 330.88 120.42 162.24 64 162.24"></polygon><path class="cls-2" d="m215.82,303.06c0,2.51-2.99,4.56-6.69,4.56s-6.7-2.06-6.7-4.56,2.99-4.56,6.7-4.56,6.69,2.04,6.69,4.56Z"></path><path class="cls-2" d="m274.55,180.85c0,2.51-2.99,4.55-6.69,4.55s-6.7-2.04-6.7-4.55,2.99-4.55,6.7-4.55,6.69,2.03,6.69,4.55Z"></path><path class="cls-2" d="m372.98,110.86c0,2.53-2.99,4.57-6.69,4.57s-6.7-2.04-6.7-4.57,2.98-4.55,6.7-4.55,6.69,2.03,6.69,4.55Z"></path><path class="cls-2" d="m361.81,273.95c0,2.52-3,4.56-6.71,4.56s-6.69-2.04-6.69-4.56,2.99-4.56,6.69-4.56,6.71,2.03,6.71,4.56Z"></path><path class="cls-2" d="m483.58,283.26c0,2.52-3.02,4.55-6.71,4.55s-6.7-2.03-6.7-4.55,3.02-4.55,6.7-4.55,6.71,2.04,6.71,4.55Z"></path><path class="cls-2" d="m395.82,222.64c0,2.52-2.99,4.56-6.7,4.56s-6.69-2.04-6.69-4.56,2.98-4.55,6.69-4.55,6.7,2.03,6.7,4.55Z"></path></g></g></g></g></svg> 