<?xml version="1.0" encoding="UTF-8"?>
<svg id="Layer_1" data-name="Layer 1" xmlns="http://www.w3.org/2000/svg" viewBox="0 0 404 391.08">
  <defs>
    <style>
      .cls-1 {
        fill: #000;
      }

      .cls-1, .cls-2, .cls-3, .cls-4, .cls-5, .cls-6, .cls-7, .cls-8, .cls-9, .cls-10, .cls-11, .cls-12, .cls-13, .cls-14, .cls-15, .cls-16, .cls-17 {
        stroke-width: 0px;
      }

      .cls-2 {
        fill: #e0e0e0;
      }

      .cls-3 {
        fill: #1c66f9;
      }

      .cls-4 {
        fill: #455a64;
      }

      .cls-5 {
        fill: #a36957;
      }

      .cls-6 {
        fill: #f5f5f5;
      }

      .cls-7 {
        fill: #ebebeb;
      }

      .cls-8 {
        fill: #14b8a6;
      }

      .cls-9 {
        fill: #263238;
      }

      .cls-10 {
        fill: #5185fb;
      }

      .cls-11 {
        fill: #fafafa;
      }

      .cls-12 {
        fill: #b78876;
      }

      .cls-18 {
        opacity: .1;
      }

      .cls-13 {
        fill: #1964f9;
      }

      .cls-14 {
        fill: #fff;
      }

      .cls-19 {
        opacity: .2;
      }

      .cls-15 {
        fill: #ffe1e1;
      }

      .cls-16 {
        fill: #f0f0f0;
      }

      .cls-17 {
        fill: #d36a6a;
      }
    </style>
  </defs>
  <path class="cls-7" d="M157.63,9.5l-95.19,123.67,256-63.64L175.85,4.93c-6.4-2.9-13.95-1.01-18.22,4.57Z"/>
  <path class="cls-2" d="M61.09,134.05L157.21,9.19c4.42-5.78,12.25-7.73,18.86-4.69l144,65.23L61.09,134.05ZM169.59,4.05c-4.53,0-8.8,2.13-11.54,5.74h0l-94.27,122.51,253.06-62.91L175.64,5.39c-1.9-.86-3.96-1.3-6.05-1.29v-.05Z"/>
  <path class="cls-16" d="M62.43,133.18l256.9-63.86h0l34.61,139.23c1.43,5.74-2.07,11.55-7.81,12.98l-236.11,58.69c-5.74,1.43-11.55-2.07-12.98-7.81l-34.61-139.23h0Z"/>
  <path class="cls-14" d="M303.52,76.94l-89,90.93-134.52-30.28-15.39-71.35c-1.77-7.66,2.92-15.32,10.55-17.22L269.76.65c7.71-1.92,15.51,2.77,17.43,10.47,0,0,0,.02,0,.03l16.32,65.79Z"/>
  <path class="cls-15" d="M202.3,160.72l-105.69,110.44h0c1.57,6.31,7.96,10.16,14.27,8.59,0,0,0,0,0,0l234.3-58.25c6.31-1.57,10.16-7.96,8.59-14.27l-.22-.88-138.2-48.75c-4.59-1.62-9.7-.4-13.06,3.12Z"/>
  <rect class="cls-15" x="92.21" y="68.91" width="78.45" height="8.01" transform="translate(-13.71 33.89) rotate(-13.97)"/>
  <rect class="cls-15" x="95.82" y="77.06" width="174.06" height="9.05" transform="translate(-14.29 46.56) rotate(-13.97)"/>
  <rect class="cls-15" x="101.17" y="98.51" width="174.06" height="9.05" transform="translate(-19.31 48.48) rotate(-13.97)"/>
  <polygon class="cls-15" points="275.11 106.07 269.82 111.36 128.02 148.43 109.49 144.1 108.79 142.09 277.16 100.21 277.89 103.12 275.11 106.07"/>
  <polygon class="cls-15" points="238.84 143.02 174.96 158.9 155.43 154.44 250.9 130.69 238.84 143.02"/>
  <path class="cls-11" d="M198.44,164.74s-.07.11-.24.3l-.76.83-2.94,3.15-10.89,11.53c-9.22,9.71-22,23.13-36.15,37.84s-27.15,27.91-36.63,37.37c-4.74,4.73-8.6,8.55-11.28,11.16l-3.09,3-.82.77c-.09.1-.18.18-.29.25.07-.1.16-.2.25-.29l.78-.81,3-3.07,11.17-11.27c9.41-9.53,22.34-22.76,36.52-37.48s27-28,36.25-37.73l11-11.41,3-3.08.8-.79c.22-.19.32-.27.32-.27Z"/>
  <path class="cls-11" d="M353.56,206.33c-.05.14-29.52-10.09-65.82-22.85s-65.69-23.22-65.64-23.36,29.52,10.08,65.82,22.84,65.69,23.22,65.64,23.37Z"/>
  <path class="cls-11" d="M307.75,72.56c-.06.09-.12.17-.19.25l-.56.69-2.37,2.63-8.83,9.59c-7.48,8.07-17.9,19.13-29.58,31.2s-22.46,22.84-30.28,30.58l-9.31,9.12-2.56,2.45-.67.63c-.16.14-.24.21-.25.2.06-.09.13-.17.21-.24l.63-.67,2.49-2.52,9.18-9.24c7.76-7.81,18.43-18.63,30.11-30.69s22.14-23.04,29.7-31.04l8.95-9.47,2.45-2.56.65-.66c.07-.09.14-.18.23-.25Z"/>
  <path class="cls-11" d="M198.44,164.74c-.12,0-.24-.03-.35-.06l-1-.24-4-1c-3.42-.86-8.39-2.07-14.54-3.51-12.29-2.91-29.34-6.66-48.18-10.74s-35.88-7.89-48.15-10.9c-6.14-1.5-11.1-2.76-14.51-3.68l-3.93-1.07-1-.29c-.12-.02-.23-.07-.34-.12l.35.07,1,.23,4,1c3.43.86,8.4,2.06,14.55,3.51,12.29,2.91,29.33,6.66,48.18,10.74s35.88,7.89,48.15,10.9c6.14,1.5,11.1,2.75,14.51,3.68l3.92,1.07,1,.29.34.12Z"/>
  <path class="cls-2" d="M303.52,76.94s-.1-.33-.27-1l-.73-2.83c-.64-2.51-1.57-6.18-2.77-10.91l-10.07-40.12c-.53-2.12-1.08-4.29-1.63-6.51-.27-1.1-.55-2.23-.84-3.36-.14-.57-.28-1.14-.46-1.69-.16-.56-.36-1.11-.6-1.64-2.02-4.56-6.29-7.72-11.25-8.31-1.26-.17-2.55-.17-3.81,0-1.26.22-2.54.57-3.83.88l-7.85,2-16.41,4.05-72.91,18.2-73,18.12-16.39,4.06-4,1c-1.3.27-2.57.65-3.8,1.15-2.37,1.03-4.42,2.68-5.92,4.79-.73,1.02-1.32,2.14-1.76,3.31-.41,1.16-.68,2.37-.81,3.59-.29,2.45.39,4.81.87,7.14,1,4.67,1.96,9.14,2.87,13.41,3.65,17.09,6.6,30.91,8.64,40.48,1,4.78,1.79,8.48,2.33,11,.25,1.25.45,2.21.59,2.87s.18,1,.18,1c0,0-.09-.33-.24-1s-.36-1.61-.64-2.85c-.56-2.53-1.37-6.23-2.42-11-2.09-9.56-5.1-23.38-8.82-40.44-.92-4.27-1.9-8.74-2.91-13.41-.48-2.3-1.18-4.74-.88-7.27.11-1.27.39-2.51.82-3.71.46-1.21,1.07-2.36,1.81-3.42.76-1.08,1.66-2.04,2.69-2.87,1.03-.86,2.18-1.56,3.41-2.08,1.25-.51,2.55-.91,3.87-1.18l4-1,16.42-4.06,73-18.16L243,7.05l16.39-4.06,7.85-1.94c1.29-.32,2.55-.66,3.87-.89,3.89-.58,7.86.43,11,2.8,1.98,1.5,3.54,3.48,4.54,5.75.25.55.46,1.11.62,1.69.18.57.32,1.14.46,1.71.28,1.13.55,2.26.83,3.37.55,2.22,1.08,4.39,1.61,6.51l9.9,40.19c1.15,4.74,2.05,8.42,2.66,10.93.3,1.25.53,2.2.68,2.85s.11.98.11.98Z"/>
  <g id="freepik--Floor--inject-96">
    <path class="cls-9" d="M404,390.5c0,.15-90.44.27-202,.27s-202-.11-202-.27,90.43-.28,202-.28,202,.14,202,.28Z"/>
  </g>
  <polygon class="cls-10" points="191.71 24.16 181.82 31.69 182.3 46.07 173.25 38.88 168.25 43.16 149.25 19.7 191.71 24.16"/>
  <path class="cls-13" d="M178.1,34.75c0,.44,4.2,11.32,4.2,11.32l-9.05-7.19,4.85-4.13Z"/>
  <polygon class="cls-13" points="149.25 19.7 178.1 34.75 182.3 46.07 181.82 31.69 149.25 19.7"/>
  <path class="cls-9" d="M229.25,213.72c-1.78-.06-3.52-.48-5.13-1.25,1.78.06,3.52.48,5.13,1.25Z"/>
  <path class="cls-9" d="M237.43,215.72c0,.15-.75.1-1.59-.1s-1.5-.5-1.47-.65.75-.1,1.6.11,1.5.49,1.46.64Z"/>
  <path class="cls-9" d="M203.67,44.19c-.89.01-1.77-.13-2.61-.41-.88-.11-1.73-.38-2.52-.79.89-.12,1.8-.03,2.65.26.89.11,1.74.43,2.48.94Z"/>
  <path class="cls-9" d="M213.35,48.34c-1.68-.55-3.26-1.35-4.71-2.36.89.08,1.75.38,2.51.86,1.31.66,2.28,1.37,2.2,1.5Z"/>
  <path class="cls-9" d="M221.74,54.7c-.11.11-1-.64-2.12-1.58s-2-1.74-1.87-1.87c.85.3,1.62.8,2.25,1.45,1.09.96,1.85,1.9,1.74,2Z"/>
  <path class="cls-9" d="M228.14,63.05c-.14.07-.8-.9-1.6-2.1-.56-.69-1-1.47-1.3-2.3.11-.09.95.77,1.76,2,.56.7.96,1.52,1.14,2.4Z"/>
  <path class="cls-9" d="M231.77,72.92c-.43-.78-.73-1.62-.88-2.49-.33-.82-.52-1.7-.55-2.59.54.72.91,1.55,1.07,2.44.34.84.46,1.74.36,2.64Z"/>
  <path class="cls-9" d="M232.31,83.42c-.18-.87-.22-1.76-.11-2.64-.08-.88,0-1.77.24-2.63.31.84.41,1.75.31,2.64.06.9-.09,1.8-.44,2.63Z"/>
  <path class="cls-9" d="M229.58,93.56c.11-.88.36-1.73.74-2.53.2-.86.54-1.68,1-2.43.05.9-.13,1.8-.53,2.61-.2.87-.62,1.68-1.21,2.35Z"/>
  <path class="cls-9" d="M223.47,102.1c-.1-.12.68-1,1.63-2.08s1.71-2,1.84-1.89c-.28.86-.78,1.63-1.43,2.25-.97,1.12-1.94,1.83-2.04,1.72Z"/>
  <path class="cls-9" d="M214.65,107.78c.68-.57,1.44-1.03,2.26-1.36.74-.49,1.55-.85,2.41-1.08-.58.69-1.32,1.23-2.16,1.57-.75.49-1.61.79-2.51.87Z"/>
  <path class="cls-9" d="M204.39,109.99c.84-.31,1.72-.47,2.61-.49.87-.2,1.76-.26,2.64-.17-.79.45-1.67.69-2.57.71-.88.21-1.81.19-2.68-.05Z"/>
  <path class="cls-9" d="M194.09,108.04c1.71.36,3.38.87,5,1.53-.9.11-1.81-.01-2.64-.36-.88-.18-1.69-.58-2.36-1.17Z"/>
  <path class="cls-9" d="M186.79,100.8c.15-.05.61,1,1.43,2.18s1.61,2,1.5,2.15-1.09-.6-1.95-1.83c-.6-.7-.95-1.58-.98-2.5Z"/>
  <path class="cls-9" d="M191.23,92.61c0,.16-1.09.51-2.23,1.32s-1.75,1.82-1.89,1.74.3-1.28,1.57-2.18c.71-.61,1.62-.92,2.55-.88Z"/>
  <path class="cls-9" d="M200.27,96.36c-.14.08-.78-.9-1.82-1.86s-2.1-1.44-2-1.59c.93.07,1.79.5,2.42,1.19.72.56,1.21,1.37,1.4,2.26Z"/>
  <path class="cls-9" d="M200.61,106.57c.07-.87.24-1.73.49-2.57.07-.87.24-1.74.49-2.58.27.87.27,1.81,0,2.68-.07.9-.41,1.77-.98,2.47Z"/>
  <path class="cls-9" d="M193.76,114.42c-.09-.13.82-.88,1.91-1.81s2-1.73,2.07-1.63-.58,1.08-1.71,2-2.19,1.57-2.27,1.44Z"/>
  <path class="cls-9" d="M184.41,119.28c.66-.6,1.44-1.06,2.28-1.35.77-.45,1.62-.74,2.51-.85-1.43,1.06-3.06,1.81-4.79,2.2h0Z"/>
  <path class="cls-9" d="M175,124.06c-.08-.13.87-.84,2.13-1.6.74-.51,1.58-.85,2.46-1,.08.15-.94.76-2.19,1.48-.71.54-1.53.92-2.4,1.12Z"/>
  <path class="cls-9" d="M167,130.94c-.11-.1.58-1.08,1.63-2.11.58-.69,1.31-1.23,2.13-1.59.1.12-.71,1-1.74,2s-1.86,1.8-2.02,1.7Z"/>
  <path class="cls-9" d="M161,139.56c.17-.88.54-1.71,1.08-2.43.77-1.25,1.56-2.15,1.68-2.06-.26.85-.67,1.65-1.21,2.35-.76,1.23-1.41,2.21-1.55,2.14Z"/>
  <path class="cls-9" d="M157.16,149.36c-.05-.9.11-1.79.48-2.61.19-.88.58-1.7,1.15-2.4-.29,1.74-.84,3.42-1.63,5h0Z"/>
  <path class="cls-9" d="M155.78,159.8c-.36-1.75-.24-3.57.36-5.26.15.87.15,1.77,0,2.64.03.89-.09,1.77-.36,2.62Z"/>
  <path class="cls-9" d="M157.16,170.23c-.45-.77-.73-1.63-.83-2.52-.29-.85-.37-1.76-.22-2.65.39.8.64,1.66.76,2.54.28.85.38,1.74.29,2.63Z"/>
  <path class="cls-9" d="M161.23,179.93c-.13.08-.84-.88-1.49-2.2-.48-.76-.77-1.62-.85-2.52.58.68,1.03,1.45,1.34,2.28.47.75.81,1.57,1,2.44Z"/>
  <path class="cls-9" d="M167.55,188.36c-.1.1-1-.66-2-1.78-.64-.63-1.14-1.39-1.44-2.24.13-.1.92.78,1.86,1.88s1.69,2.03,1.58,2.14Z"/>
  <path class="cls-9" d="M175.67,195.06c-.87-.23-1.67-.67-2.34-1.27-1.18-.86-2-1.72-1.92-1.84.83.33,1.59.81,2.25,1.4,1.16.85,2.09,1.58,2.01,1.71Z"/>
  <path class="cls-9" d="M185.17,199.6c-.9,0-1.78-.23-2.58-.65-.87-.24-1.66-.7-2.31-1.32.88.13,1.72.4,2.51.81.85.26,1.65.65,2.38,1.16Z"/>
  <path class="cls-9" d="M190.46,200.95c0,.14-.09.26-.14.25s-.07-.14,0-.29.09-.26.14-.25.03.14,0,.29Z"/>
  <rect class="cls-10" x="172.65" y="170.61" width="7.16" height="11.51" transform="translate(-46.32 288.77) rotate(-71.82)"/>
  <path class="cls-8" d="M182.79,174.78c-2.04,1.03-4.16,1.89-6.34,2.6l-.19.07-.12-.16-.19-.24c-1.52-1.84-2.88-3.81-4.09-5.87,1.65,1.73,3.16,3.58,4.53,5.54l.18.24-.31-.09c2.12-.87,4.3-1.57,6.53-2.09Z"/>
  <g class="cls-18">
    <path class="cls-1" d="M182.79,174.78c-2.04,1.03-4.16,1.89-6.34,2.6l-.19.07-.12-.16-.19-.24c-1.52-1.84-2.88-3.81-4.09-5.87,1.65,1.73,3.16,3.58,4.53,5.54l.18.24-.31-.09c2.12-.87,4.3-1.57,6.53-2.09Z"/>
  </g>
  <path class="cls-8" d="M175,175.35c-.75.68-1.62,1.21-2.57,1.57-.87.52-1.83.88-2.82,1.07.76-.67,1.63-1.2,2.58-1.57.87-.51,1.82-.88,2.81-1.07Z"/>
  <g class="cls-18">
    <path class="cls-1" d="M175,175.35c-.75.68-1.62,1.21-2.57,1.57-.87.52-1.83.88-2.82,1.07.76-.67,1.63-1.2,2.58-1.57.87-.51,1.82-.88,2.81-1.07Z"/>
  </g>
  <path class="cls-8" d="M180.75,181.64c-.61-.75-1.09-1.61-1.4-2.53-.66-1.49-1.1-2.77-.9-2.75.61.75,1.09,1.61,1.41,2.53.47.85.77,1.79.89,2.75Z"/>
  <g class="cls-18">
    <path class="cls-1" d="M180.75,181.64c-.61-.75-1.09-1.61-1.4-2.53-.66-1.49-1.1-2.77-.9-2.75.61.75,1.09,1.61,1.41,2.53.47.85.77,1.79.89,2.75Z"/>
  </g>
  <rect class="cls-10" x="201.26" y="190.74" width="18.42" height="29.6" transform="translate(-50.48 341.38) rotate(-71.82)"/>
  <path class="cls-8" d="M227.38,201.43c-.4.23-.82.42-1.26.57l-3.5,1.37c-3,1.13-7.09,2.67-11.7,4.36l-.19.07-.12-.16-.47-.62c-3.06-4-5.82-7.73-7.79-10.42l-2.35-3.19c-.3-.38-.56-.79-.79-1.22.37.33.7.7,1,1.09l2.45,3.09c2.05,2.62,4.85,6.27,7.92,10.32l.47.61-.31-.09c4.6-1.68,8.75-3.16,11.75-4.2l3.56-1.21c.43-.16.88-.29,1.33-.37Z"/>
  <g class="cls-19">
    <path class="cls-1" d="M227.38,201.43c-.4.23-.82.42-1.26.57l-3.5,1.37c-3,1.13-7.09,2.67-11.7,4.36l-.19.07-.12-.16-.47-.62c-3.06-4-5.82-7.73-7.79-10.42l-2.35-3.19c-.3-.38-.56-.79-.79-1.22.37.33.7.7,1,1.09l2.45,3.09c2.05,2.62,4.85,6.27,7.92,10.32l.47.61-.31-.09c4.6-1.68,8.75-3.16,11.75-4.2l3.56-1.21c.43-.16.88-.29,1.33-.37Z"/>
  </g>
  <path class="cls-8" d="M207.38,202.92c-2.19,1.37-4.47,2.58-6.82,3.63-2.28,1.21-4.63,2.26-7.05,3.14,2.18-1.38,4.45-2.59,6.81-3.64,2.27-1.21,4.63-2.26,7.06-3.13Z"/>
  <g class="cls-19">
    <path class="cls-1" d="M207.38,202.92c-2.19,1.37-4.47,2.58-6.82,3.63-2.28,1.21-4.63,2.26-7.05,3.14,2.18-1.38,4.45-2.59,6.81-3.64,2.27-1.21,4.63-2.26,7.06-3.13Z"/>
  </g>
  <path class="cls-8" d="M222.14,219.09c-1.23-2.15-2.3-4.38-3.21-6.68-1.07-2.23-1.97-4.54-2.7-6.91,1.23,2.15,2.3,4.38,3.21,6.69,1.07,2.23,1.97,4.54,2.7,6.9Z"/>
  <g class="cls-19">
    <path class="cls-1" d="M222.14,219.09c-1.23-2.15-2.3-4.38-3.21-6.68-1.07-2.23-1.97-4.54-2.7-6.91,1.23,2.15,2.3,4.38,3.21,6.69,1.07,2.23,1.97,4.54,2.7,6.9Z"/>
  </g>
  <path class="cls-9" d="M200.8,196.5c-1.95,1.43-4.7,1.01-6.14-.94-1.43-1.95-1.01-4.7.94-6.14,1.95-1.43,4.7-1.01,6.13.94,1.44,1.95,1.02,4.7-.94,6.14,0,0,0,0,0,0Z"/>
  <path class="cls-14" d="M201,192.15c-.93.69-1.92,1.3-2.95,1.82l-.7.39-.13.07-.07-.12c-.47-.75-.87-1.54-1.2-2.37.56.69,1.04,1.44,1.45,2.23l-.19-.06.7-.4c.98-.61,2.02-1.13,3.09-1.56Z"/>
  <rect class="cls-10" x="195.64" y="172.24" width="9.65" height="15.51" transform="translate(-33.09 314.3) rotate(-71.82)"/>
  <path class="cls-8" d="M209.31,177.84c-.21.12-.42.22-.65.3l-1.84.72c-1.55.59-3.71,1.4-6.13,2.28h-.1l-.06-.09-.24-.32c-1.61-2.12-3-4.05-4.09-5.46l-1.2-1.63c-.15-.2-.29-.42-.41-.64.19.17.35.36.5.57l1.29,1.62c1.07,1.37,2.54,3.28,4.14,5.4l.25.33h-.16c2.41-.88,4.58-1.66,6.16-2.2l1.86-.63c.22-.11.44-.19.68-.25Z"/>
  <g class="cls-19">
    <path class="cls-8" d="M209.31,177.84c-.21.12-.42.22-.65.3l-1.84.72c-1.55.59-3.71,1.4-6.13,2.28h-.1l-.06-.09-.24-.32c-1.61-2.12-3-4.05-4.09-5.46l-1.2-1.63c-.15-.2-.29-.42-.41-.64.19.17.35.36.5.57l1.29,1.62c1.07,1.37,2.54,3.28,4.14,5.4l.25.33h-.16c2.41-.88,4.58-1.66,6.16-2.2l1.86-.63c.22-.11.44-.19.68-.25Z"/>
  </g>
  <path class="cls-8" d="M198.84,178.62c-1.15.71-2.34,1.35-3.57,1.9-1.19.63-2.43,1.18-3.7,1.65,1.14-.72,2.33-1.36,3.57-1.91,1.19-.63,2.43-1.18,3.7-1.64Z"/>
  <g class="cls-19">
    <path class="cls-8" d="M198.84,178.62c-1.15.71-2.34,1.35-3.57,1.9-1.19.63-2.43,1.18-3.7,1.65,1.14-.72,2.33-1.36,3.57-1.91,1.19-.63,2.43-1.18,3.7-1.64Z"/>
  </g>
  <path class="cls-8" d="M206.57,187.09c-.65-1.12-1.21-2.29-1.68-3.5-.56-1.17-1.03-2.38-1.42-3.62,1.21,2.29,2.25,4.67,3.1,7.12h0Z"/>
  <g class="cls-19">
    <path class="cls-8" d="M206.57,187.09c-.65-1.12-1.21-2.29-1.68-3.5-.56-1.17-1.03-2.38-1.42-3.62,1.21,2.29,2.25,4.67,3.1,7.12h0Z"/>
  </g>
  <path class="cls-9" d="M91,63.07c-2.84,11.18-14.2,17.93-25.38,15.1-11.18-2.84-17.93-14.2-15.1-25.38,2.84-11.17,14.2-17.93,25.37-15.1,11.18,2.84,17.93,14.2,15.1,25.38Z"/>
  <path class="cls-14" d="M78.47,46.61c.37.15-2,7.14-5.3,15.62-.49,1.23-1,2.41-1.41,3.57l-.25.63-.63-.24c-6.77-2.61-11.72-4.76-11.6-5.07s5.26,1.31,12.08,3.78l-.88.4c.44-1.16.9-2.35,1.37-3.58,3.29-8.49,6.26-15.22,6.62-15.11Z"/>
  <path class="cls-8" d="M347.65,358.59c3.74-1.76,7.95-2.27,12-1.46,2.18.36,4.45,1,5.94,2.64s1.76,4.52.06,5.93c-1.1.74-2.42,1.07-3.74.95-3.18,0-6.7-.6-9.24,1.31-1.45,1.09-2.41,2.9-4.14,3.44-1.78.41-3.61-.41-4.5-2-.82-1.59-1.01-3.44-.51-5.16.42-2.43,1.94-4.52,4.13-5.65Z"/>
  <path class="cls-17" d="M347.65,358.59c3.74-1.76,7.95-2.27,12-1.46,2.18.36,4.45,1,5.94,2.64s1.76,4.52.06,5.93c-1.1.74-2.42,1.07-3.74.95-3.18,0-6.7-.6-9.24,1.31-1.45,1.09-2.41,2.9-4.14,3.44-1.78.41-3.61-.41-4.5-2-.82-1.59-1.01-3.44-.51-5.16.42-2.43,1.94-4.52,4.13-5.65Z"/>
  <path class="cls-17" d="M339.28,342.43c2.24,3.19,6.58,2.13,8.59.18s2.87-4.77,3.64-7.46c1.77-6.15,3.55-12.6,2.24-18.86-.32-1.9-1.16-3.67-2.41-5.13-1.3-1.46-3.28-2.12-5.19-1.73-2.19.58-3.55,2.73-4.53,4.77-2.9,6.02-4.42,12.62-4.45,19.3,0,3.11.36,6.37,2.11,8.94"/>
  <path class="cls-8" d="M333.15,347.01c2.42-2.88,2.88-7.08,1.8-10.69-1.23-3.58-3.41-6.76-6.32-9.18-3.31-2.92-7.16-5.18-11.33-6.64-1.62-.65-3.36-.95-5.1-.87-1.77.11-3.37,1.07-4.28,2.59-1.19,2.27-.05,5,1.19,7.28,2.18,3.97,4.67,7.76,7.44,11.34,2.23,2.87,4.79,5.71,8.19,7s6.93,1.15,8.73-1.21"/>
  <path class="cls-17" d="M333.15,347.01c2.42-2.88,2.88-7.08,1.8-10.69-1.23-3.58-3.41-6.76-6.32-9.18-3.31-2.92-7.16-5.18-11.33-6.64-1.62-.65-3.36-.95-5.1-.87-1.77.11-3.37,1.07-4.28,2.59-1.19,2.27-.05,5,1.19,7.28,2.18,3.97,4.67,7.76,7.44,11.34,2.23,2.87,4.79,5.71,8.19,7s6.93,1.15,8.73-1.21"/>
  <path class="cls-9" d="M339.13,390.56c.12-.48.18-.96.2-1.45.11-1.06.23-2.38.39-4,.2-1.95.49-3.88.89-5.8.52-2.34,1.22-4.63,2.11-6.85.87-2.22,2.05-4.31,3.5-6.2,1.18-1.54,2.69-2.8,4.42-3.68,1.17-.58,2.43-.97,3.72-1.16.49-.02.97-.08,1.44-.2-.48-.06-.98-.06-1.46,0-1.35.1-2.66.44-3.89,1-1.82.86-3.41,2.13-4.66,3.71-1.51,1.92-2.74,4.05-3.63,6.32-.9,2.27-1.6,4.61-2.09,7-.38,1.94-.63,3.9-.77,5.87-.13,1.68-.18,3-.2,4-.04.48-.03.96.03,1.44Z"/>
  <path class="cls-9" d="M339.4,387.5c.03-.22.03-.45,0-.67v-1.92c0-1.67,0-4.09.08-7.07.15-6,.66-14.21,1.66-23.26s2.32-17.2,3.53-23c.28-1.46.57-2.78.84-3.93s.48-2.16.69-3,.33-1.38.45-1.87c.07-.22.11-.44.12-.67-.1.2-.18.41-.23.63l-.56,1.85c-.25.8-.5,1.79-.79,2.94s-.62,2.46-.94,3.93c-1.63,7.61-2.86,15.3-3.67,23.04-1,9.07-1.44,17.33-1.48,23.31,0,3,0,5.41.1,7.08.05.78.09,1.42.12,1.92,0,.23.03.46.08.69Z"/>
  <path class="cls-9" d="M339.44,371.58c.05-.67.05-1.33,0-2-.11-1.82-.32-3.64-.62-5.44-.99-5.96-2.7-11.77-5.08-17.32-2.3-5.61-5.6-10.75-9.74-15.18-.72-.76-1.48-1.47-2.29-2.13-.35-.3-.66-.59-1-.83l-.88-.61c-.54-.41-1.11-.77-1.7-1.09,1.95,1.54,3.8,3.19,5.55,4.95,4,4.46,7.22,9.58,9.5,15.12,1.31,3.02,2.43,6.13,3.33,9.3.87,2.91,1.45,5.59,1.89,7.85s.65,4.11.8,5.39c.03.67.11,1.33.24,1.99Z"/>
  <g id="freepik--Device--inject-96">
    <polygon class="cls-4" points="187.35 239.75 229.22 239.75 245.8 193.43 243.48 193.43 227.04 237.49 187.35 237.72 187.35 239.75"/>
  </g>
  <g id="freepik--Desk--inject-96">
    <polygon class="cls-9" points="168.85 245.6 170.4 390.69 174.66 390.69 172.93 244.53 168.85 245.6"/>
    <path class="cls-9" d="M258.47,244.19c-.57,2.77,3.84,146.83,3.84,146.83h4l-3.25-146.83h-4.59Z"/>
    <polygon class="cls-9" points="307.42 239.75 129.39 239.75 129.39 247.09 144.08 247.09 134.52 390.22 138.7 390.45 148.27 247.09 292.44 247.09 299.43 390.51 303.62 390.51 296.63 247.09 307.42 247.09 307.42 239.75"/>
  </g>
  <path class="cls-10" d="M207,385.23v-11l-20.61-.21-.23,16.1,1.28.09c5.68.38,28.92,1.5,32.73.39,4.24-1.24-13.17-5.37-13.17-5.37Z"/>
  <path class="cls-6" d="M193.62,390.03c-.28-1.74-1.2-3.32-2.58-4.42-1.35-1.1-3.06-1.65-4.8-1.55l-.06,5.76,7.44.21Z"/>
  <path class="cls-6" d="M215.48,387.55s6.12,1.84,5.34,2.84-24.3.75-34.67-.27v-.46l27.44.53s.69-2.6,1.89-2.64Z"/>
  <path class="cls-9" d="M185.87,389.64h.35l1,.08,3.74.2c3.16.15,7.53.29,12.36.35,4.83.06,9.21,0,12.37-.07l3.75-.11,1-.05h.35c-.12-.02-.23-.02-.35,0h-17.11c-4.82,0-9.2-.18-12.36-.28l-3.75-.12h-1.35Z"/>
  <path class="cls-9" d="M213.62,390.5c.17-.62.41-1.22.72-1.78.37-.52.81-1,1.29-1.42-1.27.55-2.06,1.82-2,3.2h-.01Z"/>
  <path class="cls-9" d="M207.57,387.36c.06,0,.36-.32.66-.79.3-.47.51-.88.45-.92s-.35.32-.66.79c-.21.27-.37.58-.45.92Z"/>
  <path class="cls-9" d="M205.91,386.5c.05.05.38-.16.74-.48s.61-.61.56-.66-.37.16-.73.47-.61.58-.57.67Z"/>
  <path class="cls-9" d="M204.88,384.5c.34.13.71.18,1.07.15.36.05.73.01,1.08-.1-.34-.13-.71-.18-1.07-.15-.36-.05-.73-.01-1.08.1Z"/>
  <path class="cls-9" d="M204.53,383.13c.75.41,1.63.48,2.44.21-.81-.06-1.63-.13-2.44-.21Z"/>
  <path class="cls-9" d="M208.29,385.57c.44.08.89.08,1.33,0,.48-.05.95-.15,1.41-.29.28-.08.55-.19.81-.33.16-.08.28-.23.33-.4.05-.2-.03-.41-.19-.54-1.03-.51-2.29-.23-3,.68-.21.26-.36.56-.45.88v.36c.13-.41.34-.79.61-1.12.3-.35.7-.6,1.14-.73.52-.17,1.09-.12,1.58.13.21.16.12.4-.11.54-.24.13-.49.23-.75.31-.45.15-.91.26-1.37.34-.83.1-1.34.1-1.34.17Z"/>
  <path class="cls-9" d="M208.63,385.64c.17-.28.23-.6.17-.92-.04-.36-.16-.7-.35-1-.22-.4-.64-.66-1.1-.69-.28.06-.47.33-.41.61.03.21.1.41.21.59.18.29.38.56.62.81.2.24.46.43.75.54,0,0-.26-.24-.62-.66-.21-.25-.39-.51-.54-.8-.18-.28-.3-.79,0-.84s.67.3.87.57c.18.26.3.55.36.86.05.31.06.62.04.93Z"/>
  <path class="cls-9" d="M186.35,384.01s.59-.05,1.52.07c1.21.15,2.36.64,3.31,1.4.93.8,1.62,1.84,2,3,.3.88.33,1.48.37,1.47s0-.15,0-.41c-.03-.38-.1-.75-.21-1.12-.74-2.48-2.92-4.26-5.5-4.48-.38-.04-.76-.04-1.14,0-.12,0-.24.02-.35.07Z"/>
  <path class="cls-9" d="M188.58,375.5c-.24,2.81-.31,5.64-.2,8.46.16-1.4.23-2.82.22-4.23.07-1.41.07-2.82-.02-4.23Z"/>
  <path class="cls-9" d="M196.24,388.05c.98.24,1.99.35,3,.33,1,.07,2.01,0,3-.21,0-.07-1.35,0-3,0s-2.99-.19-3-.12Z"/>
  <path class="cls-9" d="M192.2,388s.11.29.24.6.21.58.28.58.11-.33-.05-.68-.42-.55-.47-.5Z"/>
  <path class="cls-9" d="M190.7,386.09s.08.26.29.48.42.36.47.31-.08-.26-.29-.48-.42-.36-.47-.31Z"/>
  <path class="cls-9" d="M188.53,385.2c0,.07.29.07.59.18s.52.28.57.23-.11-.33-.49-.46-.69-.01-.67.05Z"/>
  <path class="cls-9" d="M187,384.78c0,.06.09.17.26.24s.33.07.35,0-.09-.17-.26-.24-.35-.07-.35,0Z"/>
  <path class="cls-10" d="M247.52,374.13l-4.52-10.05-18.87,8.29,6.41,14.76,1.2-.44c5.34-2,27-10.53,30-13.11,3.39-2.88-14.22.55-14.22.55Z"/>
  <path class="cls-6" d="M237.35,383.98c-.97-1.48-2.46-2.55-4.18-3-1.68-.44-3.46-.23-5,.57l2.31,5.27,6.87-2.84Z"/>
  <path class="cls-6" d="M256.25,372.73s6.33-.85,6,.39-21.84,10.68-31.71,14l-.15-.43,25.22-10.81s-.44-2.62.64-3.15Z"/>
  <path class="cls-9" d="M230.11,386.82l.34-.11,1-.35,3.5-1.36c2.94-1.17,7-2.83,11.41-4.77s8.39-3.77,11.24-5.15l3.37-1.64.91-.47c.11-.04.21-.1.31-.17l-.33.13-.93.42-3.4,1.58c-2.87,1.32-6.85,3.14-11.27,5.07s-8.46,3.63-11.38,4.84l-3.46,1.43-.94.39-.37.16Z"/>
  <path class="cls-9" d="M255.77,376.19c-.1-.63-.13-1.28-.08-1.92.13-.63.33-1.24.59-1.83-.49.47-.79,1.11-.84,1.79-.13.67-.02,1.37.33,1.96Z"/>
  <path class="cls-9" d="M249,375.8c.07,0,.19-.43.28-1s.1-1,0-1-.19.43-.28,1c-.08.33-.08.67,0,1Z"/>
  <path class="cls-9" d="M247.08,375.67c.06,0,.27-.31.47-.74s.3-.81.24-.84-.27.3-.47.74-.32.81-.24.84Z"/>
  <path class="cls-9" d="M245.33,374.31c.35-.03.69-.14,1-.31.55-.23,1-.47.94-.53s-.49.07-1,.3-.97.47-.94.54Z"/>
  <path class="cls-9" d="M244.45,373.2c.42.07.85,0,1.24-.17.41-.1.78-.32,1.06-.64-.4.1-.78.24-1.15.41-.4.1-.78.23-1.15.4Z"/>
  <path class="cls-9" d="M248.88,373.88c.43-.11.84-.29,1.21-.54.41-.25.8-.53,1.16-.85.23-.19.43-.4.61-.63.11-.15.15-.33.13-.51-.04-.2-.19-.36-.39-.4-1.35-.06-2.48.99-2.54,2.34,0,.17,0,.33.03.49.01.12.05.24.11.35-.04-.43,0-.86.1-1.28.13-.44.39-.83.74-1.13.41-.37.94-.56,1.49-.53.26.05.28.31.12.54-.16.21-.35.41-.55.59-.35.31-.72.61-1.11.87-.67.45-1.13.65-1.11.69Z"/>
  <path class="cls-9" d="M249.22,373.8c.03-.32-.05-.64-.23-.9-.18-.3-.43-.56-.72-.75-.37-.27-.85-.34-1.28-.17-.23.16-.29.48-.13.72.11.18.26.34.44.45.28.2.58.36.9.49.28.14.6.2.91.18,0,0-.34-.11-.84-.35-.29-.13-.57-.3-.83-.5-.28-.18-.59-.59-.31-.78.34-.1.71-.04,1,.16.27.16.51.38.69.64.16.26.29.53.4.81Z"/>
  <path class="cls-9" d="M228.24,381.5s.51-.29,1.41-.56c2.38-.75,4.97-.06,6.67,1.77.64.69.91,1.22.95,1.19-.04-.13-.1-.26-.17-.38-.18-.33-.4-.64-.65-.92-.82-.97-1.92-1.66-3.14-2-1.22-.32-2.51-.26-3.71.15-.35.13-.68.29-1,.49-.26.14-.37.26-.36.26Z"/>
  <path class="cls-9" d="M226.75,372.77c.42,1.36.94,2.7,1.53,4,.52,1.31,1.11,2.6,1.77,3.85-.43-1.35-.95-2.67-1.54-3.95-.51-1.33-1.1-2.63-1.76-3.9Z"/>
  <path class="cls-9" d="M238.91,381.1c1-.19,1.96-.51,2.88-.94.95-.35,1.84-.83,2.66-1.43,0-.06-1.23.55-2.76,1.2s-2.8,1.1-2.78,1.17Z"/>
  <path class="cls-9" d="M235.21,382.71c0,.07.22.22.47.45s.43.45.49.41,0-.34-.32-.6-.62-.32-.64-.26Z"/>
  <path class="cls-9" d="M233.06,381.59c0,.07.18.21.46.32s.53.15.56.09-.18-.21-.46-.32-.54-.18-.56-.09Z"/>
  <path class="cls-9" d="M230.72,381.67c0,.06.29-.05.61-.07s.58,0,.61,0-.24-.26-.63-.22-.64.24-.59.29Z"/>
  <path class="cls-9" d="M229.13,381.92c0,.07.16.12.34.11s.33-.07.33-.14-.16-.12-.34-.11-.33.07-.33.14Z"/>
  <path class="cls-8" d="M60.51,300.62l-14.88-111.19c-.34-2.57,1.46-4.93,4.03-5.27.32-.04.65-.05.97-.03l35.87,3c3.3.28,5.92,2.9,6.19,6.21l8.74,105.27-40.92,2.01Z"/>
  <path class="cls-3" d="M60.51,300.62l-14.88-111.19c-.34-2.57,1.46-4.93,4.03-5.27.32-.04.65-.05.97-.03l35.87,3c3.3.28,5.92,2.9,6.19,6.21l8.74,105.27-40.92,2.01Z"/>
  <path class="cls-9" d="M95.11,137.21c-.3-4.24-1.41-8.37-2-12.57s-.71-8.62.95-12.53c2.05-4.4,5.77-7.81,10.34-9.46,4.54-1.61,9.39-2.17,14.18-1.62.87.03,1.72.22,2.51.57.8.37,1.34,1.13,1.43,2,.04.86-.62,1.58-1.48,1.62-.04,0-.07,0-.11,0,1.83.19,3.63.57,5.37,1.15.71.2,1.32.64,1.74,1.25.34.77.25,1.67-.24,2.36-.5.67-1.11,1.25-1.81,1.7.9-.18,1.77.41,1.95,1.31,0,0,0,0,0,0,.13.88-.12,1.78-.69,2.47-.51.72-1.17,1.31-1.7,2-2.16,2.87-1.74,6.86-1.22,10.42"/>
  <path class="cls-12" d="M95.5,162.05l20.21-.36c.27-2.34.66-11.44.66-11.44,0,0,8.45-.78,9.07-9.14s.36-27.66.36-27.66h0c-9.43-4.76-20.69-4.04-29.44,1.87l-1.3.88.44,45.85Z"/>
  <path class="cls-9" d="M123,127.95c-.48-.48-.47-1.25,0-1.73.48-.48,1.25-.47,1.73,0,.47.48.47,1.24,0,1.72-.47.48-1.23.49-1.71.02,0,0-.01-.01-.02-.02Z"/>
  <path class="cls-9" d="M125.13,125.92c-.14.14-.92-.54-2.07-.62s-2,.47-2.15.31.09-.32.47-.58c1.06-.65,2.42-.55,3.37.25.34.31.45.58.38.64Z"/>
  <path class="cls-9" d="M111.79,126.11c.55.39.69,1.15.3,1.7-.39.55-1.15.69-1.7.3s-.69-1.15-.3-1.7c0,0,0,0,0-.01.38-.55,1.14-.68,1.69-.29,0,0,0,0,0,0Z"/>
  <path class="cls-9" d="M112.55,126.17c-.14.13-.92-.55-2.07-.63s-2,.47-2.14.32.08-.33.47-.58c1.05-.67,2.42-.56,3.36.25.34.3.45.58.38.64Z"/>
  <path class="cls-9" d="M116.59,135.96c.61-.2,1.24-.29,1.88-.28.31,0,.55-.07.58-.23.03-.3-.03-.61-.16-.88-.25-.78-.51-1.57-.77-2.4-1.05-3.41-1.77-6.22-1.59-6.27s1.16,2.67,2.22,6.08c.25.83.48,1.63.72,2.41.16.4.19.85.08,1.27-.1.23-.31.4-.55.45-.17.02-.34.02-.51,0-.64.06-1.28,0-1.9-.15Z"/>
  <path class="cls-14" d="M112.76,137c-1.15-.79,3.2,2,5.55,2-.89,1.19-2.48,1.6-3.83,1-2.48-1.05-1.72-3-1.72-3Z"/>
  <path class="cls-5" d="M116.4,150.13c-3.87-.16-7.6-1.47-10.72-3.77,0,0,2.21,6.18,10.6,5.94l.12-2.17Z"/>
  <path class="cls-9" d="M94.79,122.5l.43,10.85s3.81-1.16,4.06-1.27-.07-13.29-.07-13.29c0,0-.53-5,2.71-6.15,3.41-1.23,4.89,1.24,9.72,2,15.93,2.69,14.84-2.2,14.84-2.2,0,0,2-2.15-2.09-4.51s-14.32-3.16-19.92-1.23c-11,3.79-11.66,7.56-11.66,10.89,0,4.75,1.98,4.91,1.98,4.91Z"/>
  <path class="cls-12" d="M96.66,123.62c-.18-.07-6.2-.85-5.63,6.26s7.56,4.19,7.56,4-1.93-10.26-1.93-10.26Z"/>
  <path class="cls-5" d="M96.21,131.5s-.12.1-.32.21c-.29.15-.62.18-.93.09-.99-.51-1.62-1.52-1.63-2.63-.07-.61,0-1.23.2-1.81.11-.45.43-.83.86-1,.29-.1.61.02.76.28.11.19.07.34.11.35s.14-.14.06-.42c-.05-.18-.16-.33-.31-.43-.21-.12-.46-.17-.7-.12-.59.16-1.04.62-1.21,1.2-.25.63-.34,1.32-.27,2,.16,1.43,1,2.71,2,2.93.4.08.81-.02,1.12-.28.26-.15.28-.32.26-.37Z"/>
  <path class="cls-12" d="M176.08,219.5s10-.48,12,.43c3.46,1.51,13.76,17.66,13.24,17.66h-4.77l-16-6.07-3.77.95-.7-12.97Z"/>
  <path class="cls-9" d="M219.08,265.87s29.92,103.63,29.99,103.12-26.82,12.93-26.82,12.93l-18.14-74.94,14.97-41.11Z"/>
  <polygon class="cls-4" points="221.66 382.55 250 368.72 248.77 364.93 220.21 378.78 221.66 382.55"/>
  <path class="cls-4" d="M217.94,344.43c-.15,0-.46-.61-.71-1.44s-.33-1.56-.18-1.6.46.6.71,1.44.32,1.55.18,1.6Z"/>
  <path class="cls-4" d="M219.79,350.5c-.15,0-.48-.6-.73-1.43s-.35-1.55-.21-1.6.47.6.73,1.43.35,1.53.21,1.6Z"/>
  <path class="cls-4" d="M221.72,356.5c-.15.05-.48-.59-.75-1.42s-.37-1.54-.23-1.59.48.59.75,1.42.37,1.59.23,1.59Z"/>
  <path class="cls-4" d="M223.74,362.5c-.15.05-.49-.58-.77-1.41s-.4-1.54-.25-1.59.49.58.77,1.41.39,1.59.25,1.59Z"/>
  <path class="cls-4" d="M225.84,368.5c-.14,0-.5-.58-.79-1.4s-.42-1.53-.27-1.58.49.57.79,1.4.43,1.5.27,1.58Z"/>
  <path class="cls-4" d="M228,374.41c-.15,0-.51-.57-.81-1.39s-.44-1.53-.3-1.58.51.57.81,1.39.47,1.53.3,1.58Z"/>
  <path class="cls-4" d="M226.43,376.9c-.25-.33-.45-.7-.6-1.08-.35-.72-.83-1.77-1.38-3.08-1.11-2.62-2.48-6.31-3.86-10.42s-2.54-7.87-3.36-10.59c-.38-1.28-.7-2.36-1-3.23-.14-.39-.24-.8-.28-1.21.2.36.36.75.48,1.14.28.75.66,1.83,1.12,3.18l3.51,10.53c1.37,4.11,2.68,7.81,3.7,10.46l1.22,3.13c.19.37.34.77.45,1.17Z"/>
  <path class="cls-9" d="M79.49,258.67c.25-5.49-2.87,30.13,24.51,31.07s83.32.53,83.32.53l-6.55,90.33h32.85l6.86-96.1s3.5-27.84-15.55-31.39c-11.92-2.23-86.05-2.94-86.05-2.94l-39.39,8.5Z"/>
  <polygon class="cls-4" points="180.02 380.79 214.61 380.79 214.61 375.41 180.02 375.46 180.02 380.79"/>
  <path class="cls-4" d="M125.91,285.5c.12-.01.23-.01.35,0l1-.06,4-.18,14.85-.57,50.09-1.72h.32v.32c-.45,3.68-.83,7.57-1.15,11.52-.44,5.65-.86,11.16-1.27,16.48s-1,10.44-1.51,15.32c-1,9.74-1.94,18.52-2.72,25.91s-1.43,13.31-1.88,17.46c-.23,2-.41,3.64-.54,4.75-.06.52-.11.93-.15,1.23-.01.14-.04.28-.07.42-.02-.14-.02-.28,0-.42,0-.31.06-.72.1-1.24.1-1.12.25-2.72.44-4.76.4-4.15,1-10.12,1.71-17.48s1.62-16.17,2.6-25.93c.48-4.88,1-10,1.47-15.31s.83-10.83,1.26-16.47c.32-4,.7-7.85,1.16-11.55l.28.31-50.1,1.53-14.85.41-4,.08h-1c-.13,0-.26-.01-.39-.05Z"/>
  <path class="cls-4" d="M129.07,281.59c0,.15-.7.29-1.58.31s-1.58-.08-1.58-.23.7-.3,1.57-.32,1.59.09,1.59.24Z"/>
  <path class="cls-4" d="M135.4,281.44c0,.15-.7.29-1.58.31s-1.58-.08-1.59-.23.71-.29,1.58-.32,1.59.09,1.59.24Z"/>
  <path class="cls-4" d="M141.73,281.29c0,.16-.7.29-1.58.32s-1.58-.09-1.59-.24.71-.29,1.58-.31,1.59.08,1.59.23Z"/>
  <path class="cls-4" d="M148.06,281.14c0,.16-.7.3-1.58.32s-1.58-.09-1.59-.24.71-.29,1.58-.31,1.59.08,1.59.23Z"/>
  <path class="cls-4" d="M154.39,281c0,.15-.7.29-1.58.31s-1.58-.09-1.59-.24.71-.29,1.58-.31,1.59.08,1.59.24Z"/>
  <path class="cls-4" d="M160.72,280.85c0,.15-.7.29-1.58.31s-1.58-.09-1.59-.24.71-.29,1.58-.31,1.58.09,1.59.24Z"/>
  <path class="cls-4" d="M167.05,280.7c0,.15-.7.29-1.58.31s-1.58-.09-1.59-.24.7-.29,1.58-.31,1.54.09,1.59.24Z"/>
  <path class="cls-4" d="M173.38,280.55c0,.15-.7.29-1.58.31s-1.58-.08-1.59-.24.7-.29,1.58-.31,1.58.09,1.59.24Z"/>
  <path class="cls-4" d="M179.71,280.4c0,.15-.7.29-1.58.31s-1.58-.08-1.59-.23.7-.3,1.58-.32,1.58.09,1.59.24Z"/>
  <path class="cls-4" d="M186,280.25c0,.15-.71.29-1.58.31s-1.58-.08-1.59-.23.7-.3,1.58-.32,1.59.09,1.59.24Z"/>
  <path class="cls-4" d="M192.37,280.1c0,.15-.71.29-1.58.31s-1.58-.08-1.59-.23.7-.29,1.58-.31,1.58.08,1.59.23Z"/>
  <path class="cls-4" d="M198.7,279.95c0,.16-.71.3-1.58.32s-1.59-.09-1.59-.24.7-.29,1.58-.31,1.58.08,1.59.23Z"/>
  <path class="cls-4" d="M198.69,285.69c-.16,0-.21-.73-.12-1.6s.27-1.56.42-1.55.21.73.12,1.6-.27,1.57-.42,1.55Z"/>
  <path class="cls-4" d="M198.07,291.99c-.15,0-.21-.73-.12-1.6s.28-1.56.43-1.55.2.73.12,1.6-.28,1.57-.43,1.55Z"/>
  <path class="cls-4" d="M197.45,298.29c-.15,0-.21-.73-.12-1.6s.28-1.56.43-1.55.2.74.12,1.61-.28,1.56-.43,1.54Z"/>
  <path class="cls-4" d="M196.83,304.59c-.15,0-.2-.73-.12-1.6s.28-1.56.43-1.55.2.74.12,1.61-.26,1.56-.43,1.54Z"/>
  <path class="cls-4" d="M196.21,310.9c-.15,0-.2-.74-.12-1.61s.28-1.56.43-1.54.21.73.12,1.6-.28,1.56-.43,1.55Z"/>
  <path class="cls-4" d="M195.59,317.2c-.15,0-.2-.74-.11-1.61s.27-1.56.42-1.54.21.73.12,1.6-.27,1.56-.43,1.55Z"/>
  <path class="cls-4" d="M195,323.5c-.16,0-.21-.73-.12-1.6s.27-1.57.43-1.55.2.73.11,1.6-.29,1.55-.42,1.55Z"/>
  <path class="cls-4" d="M194.36,329.8c-.15,0-.21-.73-.12-1.6s.28-1.57.43-1.55.2.73.12,1.6-.28,1.56-.43,1.55Z"/>
  <path class="cls-4" d="M193.74,336.1c-.15,0-.2-.73-.12-1.6s.28-1.56.43-1.55.2.73.12,1.6-.28,1.57-.43,1.55Z"/>
  <path class="cls-4" d="M193.12,342.4c-.15,0-.2-.73-.12-1.6s.28-1.56.43-1.55.2.73.12,1.6-.28,1.57-.43,1.55Z"/>
  <path class="cls-4" d="M192.5,348.7c-.15,0-.2-.73-.12-1.6s.28-1.56.43-1.55.21.73.12,1.6-.28,1.57-.43,1.55Z"/>
  <path class="cls-4" d="M191.89,355c-.16,0-.21-.73-.12-1.6s.27-1.56.42-1.55.21.74.12,1.61-.31,1.56-.42,1.54Z"/>
  <path class="cls-4" d="M191.27,361.3c-.15,0-.21-.73-.12-1.6s.27-1.56.43-1.55.2.74.11,1.61-.27,1.56-.42,1.54Z"/>
  <path class="cls-4" d="M190.65,367.61c-.15,0-.21-.74-.12-1.61s.28-1.56.43-1.54.2.73.12,1.6-.28,1.56-.43,1.55Z"/>
  <path class="cls-4" d="M190,373.91c-.15,0-.2-.73-.12-1.6s.28-1.57.43-1.55.2.73.12,1.6-.25,1.56-.43,1.55Z"/>
  <path class="cls-4" d="M189.7,377.25c-.15,0-.27-.07-.26-.12s.13-.09.28-.07.27.07.27.12-.14.08-.29.07Z"/>
  <path class="cls-9" d="M191.8,286.06c-.57.9-1.3,1.7-2.15,2.35-.73.78-1.58,1.44-2.53,1.94,1.3-1.69,2.89-3.14,4.68-4.29Z"/>
  <path class="cls-9" d="M194.07,287.28c-1.09.78-2.27,1.42-3.53,1.89-1.18.63-2.45,1.09-3.76,1.38,1.09-.78,2.27-1.42,3.53-1.89,1.19-.63,2.45-1.09,3.76-1.38Z"/>
  <path class="cls-4" d="M127.27,215.6s-3.35-35.89-9.3-51.6l1.18-.89-1.77-6.19-22.26-2.7.34,4.83c-3.28,1.48-5.97,4.03-7.61,7.24-8,16.94-4,36.72-8.29,73.37,0,0-5,17.19.16,22.57l48.57-11.32-2.29-11.08c21.2-.4,56.06-4.3,56.06-4.3l-1-20.06s-52.09.31-53.79.13"/>
  <path class="cls-2" d="M117.34,156.89c.71,1.26,1.25,2.6,1.61,4,.22.55.37,1.12.44,1.7.01.3-.09.6-.28.83-.16.19-.37.33-.6.42-.84.26-1.32.08-1.32,0s.52-.09,1.15-.39c.35-.15.56-.5.55-.88-.11-.53-.27-1.05-.46-1.55-.53-1.33-.9-2.71-1.09-4.13Z"/>
  <path class="cls-9" d="M122.65,183.61c0,.16-9,.28-20,.28s-20-.12-20-.28,9-.27,20-.27,20,.16,20,.27Z"/>
  <path class="cls-9" d="M120.56,173.5c0,.15-7.94.28-17.72.28s-17.72-.13-17.72-.28,7.93-.27,17.72-.27,17.72.12,17.72.27Z"/>
  <path class="cls-9" d="M117.64,164.61c0,.15-6.56.27-14.66.27s-14.65-.12-14.65-.27,6.56-.28,14.65-.28,14.66.17,14.66.28Z"/>
  <path class="cls-9" d="M117.35,158.33c-3.74.28-7.48.38-11.23.28-3.75.1-7.49,0-11.23-.28,0-.15,5-.27,11.23-.27s11.23.12,11.23.27Z"/>
  <path class="cls-9" d="M124.06,193.34c0,.15-9.47.27-21.15.27s-21.15-.12-21.15-.27,9.47-.28,21.15-.28,21.15.12,21.15.28Z"/>
  <path class="cls-9" d="M125.78,203.11c0,.15-9.85.27-22,.27s-22-.12-22-.27,9.85-.28,22-.28,22,.13,22,.28Z"/>
  <path class="cls-9" d="M126.86,212.11c0,.16-10.1.28-22.55.28s-22.55-.12-22.55-.28,10.1-.27,22.55-.27,22.55.12,22.55.27Z"/>
  <path class="cls-9" d="M176.08,221.96c0,.15-21.3.27-47.57.27s-47.58-.12-47.58-.27,21.3-.28,47.58-.28,47.57.13,47.57.28Z"/>
  <path class="cls-9" d="M176.45,229.84c0,.16-21.46.28-47.93.28s-47.94-.12-47.94-.28,21.46-.27,47.94-.27,47.93.12,47.93.27Z"/>
  <path class="cls-9" d="M125.24,239.56c0,.16-10.25.28-22.9.28s-22.91-.12-22.91-.28,10.25-.27,22.91-.27,22.9.12,22.9.27Z"/>
  <path class="cls-9" d="M127.57,248.58c0,.15-11.15.28-24.9.28s-24.9-.13-24.9-.28,11.15-.27,24.9-.27,24.9.12,24.9.27Z"/>
  <path class="cls-9" d="M85.17,250.97c-.16,0-.28-17.49-.28-39.06s.12-39.06.28-39.06.27,17.49.27,39.06-.12,39.06-.27,39.06Z"/>
  <path class="cls-9" d="M97.18,250.01c-.15,0-.27-21.38-.27-47.75s.09-47.76.27-47.76.28,21.37.28,47.75-.12,47.76-.28,47.76Z"/>
  <path class="cls-9" d="M110.45,248.58c-.15,0-.27-20.61-.27-46s.12-46,.27-46,.28,20.61.28,46-.12,46-.28,46Z"/>
  <path class="cls-9" d="M121.6,250.94c-.15,0-.27-16.18-.27-36.13s.12-36.14.27-36.14.28,16.18.28,36.14-.13,36.13-.28,36.13Z"/>
  <path class="cls-9" d="M133.41,215.55c.13,1.17.17,2.35.11,3.52,0,2.17,0,5.16-.12,8.46s-.18,6.3-.28,8.46c0,1.18-.1,2.35-.28,3.51-.13-1.17-.17-2.34-.11-3.51,0-2.17,0-5.16.12-8.47s.18-6.3.28-8.47c0-1.17.09-2.34.28-3.5Z"/>
  <path class="cls-9" d="M146,215.97c.12,1.1.16,2.2.11,3.3,0,2,0,4.83-.1,7.92s-.18,5.9-.27,7.93c0,1.1-.09,2.2-.28,3.28-.12-1.09-.16-2.19-.11-3.28,0-2,0-4.84.11-7.94s.17-5.9.27-7.93c0-1.1.08-2.2.27-3.28Z"/>
  <path class="cls-9" d="M158.52,215.75c.14,1.06.18,2.13.12,3.19,0,2,0,4.69-.1,7.69s-.17,5.72-.27,7.68c0,1.07-.08,2.14-.27,3.19-.13-1.06-.17-2.12-.12-3.18,0-2,0-4.69.11-7.69s.17-5.73.26-7.69c0-1.07.09-2.14.27-3.19Z"/>
  <path class="cls-9" d="M171.09,215.4c.14,1.02.18,2.06.12,3.09,0,1.91,0,4.55-.1,7.46s-.16,5.55-.26,7.45c0,1.04-.08,2.07-.26,3.09-.14-1.02-.18-2.06-.13-3.09,0-1.91,0-4.55.1-7.46s.17-5.56.26-7.46c0-1.03.09-2.06.27-3.08Z"/>
  <path class="cls-9" d="M122.91,220.07c.91-2.22,2.55-4.06,4.66-5.21-.73.91-1.53,1.77-2.37,2.57-.71.93-1.47,1.81-2.29,2.64Z"/>
  <path class="cls-9" d="M125.78,220.31c-.43-2.05.35-4.16,2-5.45.12.11-.72,1.13-1.26,2.63s-.52,2.82-.74,2.82Z"/>
  <path class="cls-9" d="M177,235.42c-.56-3.17-.94-6.37-1.14-9.59-.38-3.2-.58-6.42-.6-9.65.57,3.17.96,6.38,1.15,9.6.38,3.2.58,6.42.59,9.64Z"/>
  <path class="cls-9" d="M177.63,219.96c0,.07-.28.27-.32.77-.02.27.07.53.25.73.23.21.56.25.84.11.29-.11.48-.38.5-.69-.03-.27-.16-.51-.37-.68-.39-.31-.76-.21-.78-.29s.37-.36,1,0c.37.2.62.58.66,1,.03.53-.28,1.02-.78,1.22-.49.23-1.06.13-1.44-.26-.27-.32-.36-.75-.25-1.15.18-.73.7-.83.69-.76Z"/>
  <path class="cls-9" d="M127.21,215.5h.25l.73.06c.65.07,1.61.13,2.87.17,2.52.1,6.22.15,10.93.11,9.41-.06,22.86-.41,39-1h.23v.23c.32,6.23.66,13,1,20.18v.23h-.21c-2.56.48-5.15.68-7.8.95l-8.08.7c-5.49.45-11.14.87-16.89,1.28l-21.14,1.42h0c-6.13-.39-12.08-2.59-16.24-6.63-2.04-1.95-3.65-4.31-4.71-6.93-.99-2.47-1.79-5.02-2.37-7.62-2.47-10-4-19.11-5.25-26.67-.6-3.78-1.11-7.19-1.54-10.17-.46-2.54-.75-5.1-.89-7.67-.08-1.63.26-3.26,1-4.72.25-.5.59-.95,1-1.33-.35.43-.66.89-.93,1.38-.68,1.46-.98,3.06-.88,4.67.18,2.56.51,5.11,1,7.63.47,3,1,6.38,1.62,10.16,1.26,7.54,2.86,16.59,5.35,26.6.59,2.58,1.38,5.1,2.37,7.55,1.04,2.55,2.62,4.86,4.62,6.75,4,3.93,9.89,6.08,15.91,6.47h0l21.13-1.44,16.88-1.27,8.08-.69c2.63-.27,5.27-.47,7.72-.93l-.2.27c-.34-7.15-.66-13.95-1-20.19l.25.23c-16.13.59-29.58.87-39,.85-4.71,0-8.41-.09-10.93-.24-1.26-.07-2.23-.15-2.88-.25l-.73-.09c-.09,0-.18-.02-.27-.05Z"/>
  <path class="cls-9" d="M127.21,215.5c-.22-.51-.39-1.03-.52-1.57-.29-1-.69-2.5-1.17-4.34-1-3.67-2.15-8.78-3.43-14.42s-2.45-10.75-3.33-14.44l-1-4.37c-.16-.53-.26-1.07-.31-1.62.21.51.39,1.03.52,1.57.31,1,.71,2.49,1.2,4.33,1,3.66,2.22,8.76,3.5,14.41,1.28,5.65,2.33,10.66,3.23,14.45.4,1.78.74,3.25,1,4.38.14.53.25,1.07.31,1.62Z"/>
  <path class="cls-9" d="M117.41,157.31c0,.37-.03.74-.11,1.1-.1.71-.26,1.72-.48,3-.1.7-.24,1.39-.42,2.07-.12.46-.46.83-.9,1-.44.12-.9.12-1.34,0-1.65-.34-3.45-.78-5.33-1.29-3.75-1-7.09-2.11-9.52-2.86l-2.87-.9c-.35-.09-.68-.22-1-.39.37.01.74.07,1.09.18.7.16,1.7.4,2.93.74,2.46.65,5.82,1.67,9.56,2.7,1.87.51,3.65,1,5.29,1.33.35.11.73.14,1.09.07.3-.11.53-.36.62-.67.22-.64.31-1.38.46-2,.26-1.24.49-2.24.65-2.94.04-.39.13-.78.28-1.14Z"/>
  <polygon class="cls-9" points="99.91 295.75 106.9 390.62 109.82 389.94 108.73 297.75 99.91 295.75"/>
  <polygon class="cls-9" points="70.29 299.05 49.06 390.51 52.9 390.51 83.29 299.05 70.29 299.05"/>
  <polygon class="cls-9" points="126.44 299.05 155.4 390.51 158.5 390.51 135.49 299.05 126.44 299.05"/>
  <polygon class="cls-9" points="130.32 305.19 65.42 347.6 65.42 349.92 132.13 305.19 130.32 305.19"/>
  <polygon class="cls-9" points="75.25 305.19 145.57 352.51 145.57 348.89 77.31 303.12 75.25 305.19"/>
  <path class="cls-8" d="M60.59,300.62l83.62-1.51c2.95-.06,5.3-2.5,5.25-5.45,0-.18-.02-.37-.04-.55h0c-.31-2.73-2.65-4.77-5.39-4.72l-84.81,1.36,1.37,10.87Z"/>
  <path class="cls-3" d="M60.59,300.62l83.62-1.51c2.95-.06,5.3-2.5,5.25-5.45,0-.18-.02-.37-.04-.55h0c-.31-2.73-2.65-4.77-5.39-4.72l-84.81,1.36,1.37,10.87Z"/>
  <path class="cls-10" d="M52.07,235.98l8.44,64.64,65.93-1.57-.17-39.26c.09-6.07-4.76-11.07-10.83-11.16-.39,0-.78,0-1.17.04l-50.27,4.54-6.62-68.51-6.68-.57c-2.59-.19-4.84,1.76-5.03,4.34-.02.33-.01.65.03.98l6.37,46.53Z"/>
</svg>