<?xml version="1.0" encoding="UTF-8"?>
<svg id="Layer_1" data-name="Layer 1" xmlns="http://www.w3.org/2000/svg" viewBox="0 0 192.3 63">
  <defs>
    <style>
      .cls-1 {
        fill: #5185fb;
        stroke-width: 0px;
      }
    </style>
  </defs>
  <path id="g" class="cls-1" d="M47.3,22.2h-22.5v6.6h16c-.8,9.3-8.6,13.4-15.9,13.4-9.4,0-17.6-7.4-17.6-17.7S15.1,6.6,24.9,6.6c7.6,0,12,4.8,12,4.8l4.6-4.8S35.5,0,24.6,0C10.7-.1,0,11.6,0,24.3s10.1,24.5,25,24.5c13.1,0,22.7-8.9,22.7-22.2,0-2.8-.4-4.4-.4-4.4h0Z"/>
  <path id="o" class="cls-1" d="M65.6,17.3c-9.2,0-15.8,7.2-15.8,15.6s6.4,15.9,16,15.9c8.7,0,15.7-6.5,15.7-15.7-.1-10.4-8.3-15.8-15.9-15.8h0ZM65.7,23.6c4.5,0,8.8,3.7,8.8,9.5s-4.2,9.5-8.8,9.5c-5,0-8.9-4-8.9-9.6-.1-5.4,3.8-9.4,8.9-9.4h0Z"/>
  <path id="o-2" data-name="o" class="cls-1" d="M100,17.3c-9.2,0-15.8,7.2-15.8,15.6s6.4,15.9,16,15.9c8.7,0,15.7-6.5,15.7-15.7-.1-10.4-8.3-15.8-15.9-15.8h0ZM100.1,23.6c4.5,0,8.8,3.7,8.8,9.5s-4.2,9.5-8.8,9.5c-5,0-8.9-4-8.9-9.6-.1-5.4,3.8-9.4,8.9-9.4h0Z"/>
  <path id="g-2" data-name="g" class="cls-1" d="M133.7,17.4c-8.5,0-15.1,7.4-15.1,15.7,0,9.4,7.7,15.8,14.9,15.8,4.5,0,6.8-1.7,8.7-3.8v3.1c0,5.4-3.3,8.7-8.3,8.7s-7.2-3.6-8.1-5.6l-6.1,2.5c2.1,4.5,6.4,9.2,14.1,9.2,8.4,0,14.8-5.3,14.8-16.4v-28.3h-6.6v2.7c-1.8-2.2-4.6-3.6-8.3-3.6h0ZM134.3,23.6c4.1,0,8.4,3.6,8.4,9.6s-4.2,9.5-8.5,9.5-8.7-3.7-8.7-9.4c.1-6.2,4.4-9.7,8.8-9.7h0Z"/>
  <path id="e" class="cls-1" d="M178.2,17.3c-8,0-14.7,6.3-14.7,15.7,0,9.9,7.5,15.8,15.4,15.8,6.6,0,10.8-3.7,13.2-6.9l-5.5-3.7c-1.4,2.2-3.8,4.3-7.7,4.3-4.4,0-6.4-2.4-7.7-4.8l21.1-8.8-1.1-2.6c-2.1-4.8-6.8-9-13-9h0ZM178.4,23.4c2.9,0,4.9,1.5,5.9,3.4l-14,5.9c-.8-4.6,3.6-9.3,8.1-9.3h0Z"/>
  <path id="l" class="cls-1" d="M153.5,47.9h6.9V1.5h-6.9v46.4Z"/>
</svg>