<?xml version="1.0" encoding="UTF-8"?>
<svg id="Layer_1" data-name="Layer 1" xmlns="http://www.w3.org/2000/svg" viewBox="0 0 200 39.5">
  <defs>
    <style>
      .cls-1 {
        fill: #5185fb;
        stroke-width: 0px;
      }
    </style>
  </defs>
  <path id="n" class="cls-1" d="M80.2,8.5c-3.5,0-7.4,1.6-9.8,4.8h0v-4.3h-8.2v30h8.2v-17.1c0-3.1,2.4-6.3,6.8-6.3,3.4,0,6.9,2.4,6.9,6.3v17.1h8.2v-18.6c.1-6.9-4.8-11.9-12.1-11.9Z"/>
  <polygon id="v" class="cls-1" points="151 9 143.6 29.4 136.1 9 126.7 9 139.1 39 148.1 39 160.4 9 151 9"/>
  <path id="e" class="cls-1" d="M55.6,13.4c-2.8-3.2-6.9-4.9-11.9-4.9-9.1,0-15.9,6.7-15.9,15.5s6.9,15.5,16.8,15.5c5.6,0,11.3-2.6,14-5.7l-5.2-4c-3.4,2.5-5.4,3.2-8.6,3.2-2.8,0-5.1-.9-6.6-2.4l21.1-8.7c-.5-3.4-1.8-6.3-3.7-8.5ZM35.9,25.2c-.4-3.1.4-5.5,1.7-7.2,1.4-1.9,3.6-3,6.3-3,3,0,5.2,1.7,6.4,4.2l-14.4,6Z"/>
  <polygon id="l" class="cls-1" points="8.4 0 0 0 0 39 27.1 39 27.1 31.4 8.4 31.4 8.4 0"/>
  <path id="o" class="cls-1" d="M175.4,8.5c-9.1,0-16.2,6.8-16.2,15.5s7.1,15.5,16.1,15.5,16.2-6.8,16.2-15.5c-.1-8.8-7.1-15.5-16.1-15.5ZM175.4,32.4c-4.5,0-8.1-3.7-8.1-8.5s3.3-8.5,7.9-8.5,8.1,3.7,8.1,8.5-3.3,8.5-7.9,8.5Z"/>
  <path id="o-2" data-name="o" class="cls-1" d="M111.9,8.5c-9.1,0-16.2,6.8-16.2,15.5s7.1,15.5,16.1,15.5,16.2-6.8,16.2-15.5-7.1-15.5-16.1-15.5ZM111.9,32.4c-4.5,0-8.1-3.7-8.1-8.5s3.3-8.5,7.9-8.5,8.1,3.7,8.1,8.5-3.3,8.5-7.9,8.5Z"/>
  <polygon id="t" class="cls-1" points="191.2 35.4 192.6 35.4 192.6 39 193.4 39 193.4 35.4 194.7 35.4 194.7 34.7 191.2 34.7 191.2 35.4"/>
  <polygon id="m" class="cls-1" points="199.1 34.7 197.8 36.7 196.5 34.7 195.6 34.7 195.6 39 196.4 39 196.4 35.9 197.8 38 197.9 38 199.2 35.9 199.2 39 200 39 200 34.7 199.1 34.7"/>
</svg>