<?xml version="1.0" encoding="UTF-8"?>
<svg id="Layer_1" data-name="Layer 1" xmlns="http://www.w3.org/2000/svg" viewBox="0 0 200.02 48.9">
  <defs>
    <style>
      .cls-1 {
        fill: #5185fb;
        stroke-width: 0px;
      }
    </style>
  </defs>
  <path class="cls-1" d="M161.81,13.7c-1.6-1.8-4.4-2.8-8.1-2.8h-11.1c-.8,0-1.4.6-1.5,1.3l-4.5,28.4c-.1.6.3,1.1.9,1.1h5.7c.5,0,1-.4,1.1-.9l1.3-8c.1-.7.8-1.3,1.5-1.3h3.5c7.3,0,11.5-3.5,12.6-10.5.5-3.2,0-5.6-1.4-7.3ZM155.01,21.3c-.6,4-3.6,4-6.6,4h-1.7l1.2-7.4c.1-.4.5-.8.9-.8h.8c2,0,3.9,0,4.9,1.1.5.7.7,1.7.5,3.1Z"/>
  <path class="cls-1" d="M186.81,21.2h-5.3c-.5,0-.8.3-.9.8l-.2,1.5-.4-.5c-1.1-1.7-3.7-2.2-6.3-2.2-5.9,0-10.9,4.4-11.8,10.7-.5,3.1.2,6.1,2,8.1,1.6,1.9,3.9,2.7,6.7,2.7,4.7,0,7.3-3,7.3-3l-.2,1.5c-.1.6.3,1.1.9,1.1h4.8c.8,0,1.4-.6,1.5-1.3l2.9-18.1c0-.8-.4-1.3-1-1.3ZM179.41,31.5c-.5,3-2.9,5.1-6,5.1-1.5,0-2.8-.5-3.6-1.4s-1.1-2.3-.8-3.7c.5-3,2.9-5.1,5.9-5.1,1.5,0,2.7.5,3.5,1.4.9.9,1.3,2.2,1,3.7Z"/>
  <path class="cls-1" d="M199.11,10.9h-5.1c-.5,0-.8.3-.9.8l-4.5,28.9c-.1.6.3,1.1.9,1.1h4.6c.8,0,1.4-.5,1.5-1.3l4.4-28.4c.1-.6-.4-1.1-.9-1.1Z"/>
  <path class="cls-1" d="M82.91,13.7c-1.6-1.8-4.4-2.8-8.1-2.8h-11.1c-.8,0-1.4.6-1.5,1.3l-4.5,28.4c-.1.6.3,1.1.9,1.1h5.3c.8,0,1.4-.5,1.5-1.3l1.2-7.7c.1-.7.8-1.3,1.5-1.3h3.5c7.3,0,11.5-3.5,12.6-10.5.6-3.1.1-5.5-1.3-7.2ZM76.11,21.3c-.6,4-3.6,4-6.6,4h-1.7l1.2-7.4c.1-.4.5-.8.9-.8h.8c2,0,3.9,0,4.9,1.1.5.7.7,1.7.5,3.1Z"/>
  <path class="cls-1" d="M107.91,21.2h-5.3c-.5,0-.8.3-.9.8l-.2,1.5-.4-.5c-1.1-1.7-3.7-2.2-6.3-2.2-5.9,0-10.9,4.4-11.8,10.7-.5,3.1.2,6.1,2,8.1,1.6,1.9,3.9,2.7,6.7,2.7,4.7,0,7.3-3,7.3-3l-.2,1.5c-.1.6.3,1.1.9,1.1h4.8c.8,0,1.4-.6,1.5-1.3l2.9-18.1c0-.8-.5-1.3-1-1.3ZM100.51,31.5c-.5,3-2.9,5.1-6,5.1-1.5,0-2.8-.5-3.6-1.4-.8-.9-1.1-2.3-.8-3.7.5-3,2.9-5.1,5.9-5.1,1.5,0,2.7.5,3.5,1.4.9.9,1.2,2.2,1,3.7Z"/>
  <path class="cls-1" d="M136.11,21.2h-5.3c-.5,0-1,.3-1.3.7l-7.3,10.8-3.2-10.4c-.2-.7-.8-1.1-1.5-1.1h-5.2c-.6,0-1.1.6-.9,1.2l5.9,17.2-5.5,7.8c-.4.6,0,1.5.8,1.5h5.3c.5,0,1-.2,1.3-.7l17.7-25.6c.4-.6-.1-1.4-.8-1.4Z"/>
  <path class="cls-1" d="M39.51,14.1c-.6-.7-1.3-1.2-2.2-1.7h0c0,.3-.1.6-.2.9-.1.3-.1.6-.2.8-1.9,8.5-7.3,12.1-14.3,12.9-.5.1-.9.1-1.4.1h-6.1c-1.1,0-2,.8-2.1,1.8l-2,12.8-.3,1.7-.7,4.1c-.1.7.4,1.3,1.1,1.3h7.9c.9,0,1.7-.7,1.9-1.6l.1-.4,1.5-9.4.1-.5c.1-.9.9-1.6,1.9-1.6h1.2c7.7,0,13.6-3.1,15.4-12.1.7-3.8.3-6.9-1.6-9.1Z"/>
  <path class="cls-1" d="M13.01,29l.1-.5,2.5-16c.1-.6.5-1.2,1.1-1.4.3-.1.5-.2.8-.2h11.9c1.4,0,2.7.1,3.9.3.3.1.7.1,1,.2s.6.2.9.2c.1,0,.2.1.3.1h.2c.6.2,1.1.4,1.6.7h0c.6-3.8,0-6.4-2.1-8.7-2.2-2.6-6.3-3.7-11.5-3.7h-15.2c-1.1,0-2,.8-2.1,1.8L.01,41.9c-.1.8.5,1.5,1.3,1.5h9.4l.3-1.7,2-12.7Z"/>
  <path class="cls-1" d="M37.31,12.4c-.5-.3-1-.5-1.6-.7h-.2c-.1,0-.2-.1-.3-.1-.3-.1-.6-.2-.9-.2-.3-.1-.7-.1-1-.2-1.2-.2-2.5-.3-3.9-.3h-12c-.3,0-.6.1-.8.2-.5.3-1,.8-1.1,1.4l-2.5,16v.5c.2-1.1,1.1-1.8,2.1-1.8h6.1c.5,0,1-.1,1.4-.1,7-.8,12.4-4.4,14.4-12.8.1-.3.1-.5.2-.8,0-.5.1-.8.1-1.1h0Z"/>
</svg>