<?xml version="1.0" encoding="UTF-8"?>
<svg id="Layer_1" data-name="Layer 1" xmlns="http://www.w3.org/2000/svg" xmlns:xlink="http://www.w3.org/1999/xlink" viewBox="0 0 1250 1329.98">
  <defs>
    <style>
      .cls-1 {
        fill: url(#linear-gradient-12);
      }

      .cls-1, .cls-2, .cls-3, .cls-4, .cls-5, .cls-6, .cls-7, .cls-8, .cls-9, .cls-10, .cls-11, .cls-12, .cls-13, .cls-14, .cls-15, .cls-16, .cls-17, .cls-18, .cls-19, .cls-20, .cls-21, .cls-22, .cls-23, .cls-24, .cls-25, .cls-26, .cls-27, .cls-28, .cls-29, .cls-30, .cls-31, .cls-32, .cls-33, .cls-34, .cls-35, .cls-36, .cls-37, .cls-38, .cls-39, .cls-40, .cls-41, .cls-42, .cls-43, .cls-44, .cls-45, .cls-46, .cls-47, .cls-48, .cls-49, .cls-50, .cls-51, .cls-52, .cls-53, .cls-54, .cls-55, .cls-56 {
        stroke-width: 0px;
      }

      .cls-57 {
        clip-path: url(#clippath-20);
      }

      .cls-2 {
        fill: #eee;
      }

      .cls-58 {
        clip-path: url(#clippath-11);
      }

      .cls-3 {
        fill: url(#linear-gradient-17);
      }

      .cls-59 {
        clip-path: url(#clippath-16);
      }

      .cls-4 {
        fill: url(#linear-gradient-19);
      }

      .cls-5 {
        fill: url(#linear-gradient);
      }

      .cls-6 {
        fill: #428dfc;
      }

      .cls-7, .cls-60 {
        fill: #23286b;
      }

      .cls-8 {
        fill: url(#linear-gradient-21);
      }

      .cls-9 {
        fill: url(#linear-gradient-6);
      }

      .cls-10 {
        fill: #78a9ef;
      }

      .cls-11 {
        opacity: .66;
      }

      .cls-11, .cls-20, .cls-42 {
        isolation: isolate;
      }

      .cls-11, .cls-42, .cls-49 {
        fill: #fff;
      }

      .cls-61 {
        clip-path: url(#clippath-2);
      }

      .cls-62 {
        clip-path: url(#clippath-13);
      }

      .cls-12 {
        fill: #1d72d8;
      }

      .cls-13 {
        fill: #d62929;
      }

      .cls-14 {
        fill: #e94e4b;
      }

      .cls-63 {
        clip-path: url(#clippath-15);
      }

      .cls-15 {
        fill: url(#linear-gradient-15);
      }

      .cls-64 {
        clip-path: url(#clippath-6);
      }

      .cls-16 {
        fill: url(#linear-gradient-11);
      }

      .cls-17 {
        fill: url(#linear-gradient-5);
      }

      .cls-18 {
        fill: #d6d7d8;
      }

      .cls-19 {
        fill: none;
      }

      .cls-20 {
        fill: gray;
        opacity: .25;
      }

      .cls-65 {
        clip-path: url(#clippath-7);
      }

      .cls-66 {
        clip-path: url(#clippath-1);
      }

      .cls-67 {
        clip-path: url(#clippath-4);
      }

      .cls-21 {
        fill: #ccdffd;
      }

      .cls-22 {
        fill: url(#linear-gradient-13);
      }

      .cls-23 {
        fill: url(#linear-gradient-23);
      }

      .cls-24 {
        fill: url(#linear-gradient-25);
      }

      .cls-25 {
        fill: url(#linear-gradient-16);
      }

      .cls-26 {
        fill: url(#linear-gradient-22);
      }

      .cls-68 {
        clip-path: url(#clippath-12);
      }

      .cls-27 {
        fill: url(#linear-gradient-20);
      }

      .cls-28 {
        fill: #1c2868;
      }

      .cls-29 {
        fill: #468ffc;
      }

      .cls-30 {
        fill: url(#linear-gradient-14);
      }

      .cls-31 {
        fill: url(#linear-gradient-2);
      }

      .cls-32 {
        fill: #7babef;
      }

      .cls-33 {
        fill: #ffbeb6;
      }

      .cls-34 {
        fill: #d7d8d9;
      }

      .cls-35 {
        fill: url(#linear-gradient-7);
      }

      .cls-36 {
        fill: #a1c3fc;
      }

      .cls-37 {
        fill: url(#linear-gradient-3);
      }

      .cls-38 {
        fill: #e94a47;
      }

      .cls-69 {
        clip-path: url(#clippath-9);
      }

      .cls-70 {
        clip-path: url(#clippath);
      }

      .cls-39 {
        fill: #151a4f;
      }

      .cls-40 {
        fill: url(#linear-gradient-9);
      }

      .cls-41 {
        fill: url(#linear-gradient-27);
      }

      .cls-42 {
        opacity: .86;
      }

      .cls-43 {
        fill: #f2a19c;
      }

      .cls-71 {
        clip-path: url(#clippath-19);
      }

      .cls-72 {
        clip-path: url(#clippath-3);
      }

      .cls-44 {
        fill: url(#linear-gradient-8);
      }

      .cls-73 {
        clip-path: url(#clippath-8);
      }

      .cls-45 {
        fill: url(#linear-gradient-24);
      }

      .cls-46 {
        fill: url(#linear-gradient-26);
      }

      .cls-47 {
        fill: url(#linear-gradient-18);
      }

      .cls-48 {
        fill: url(#linear-gradient-30);
      }

      .cls-74 {
        clip-path: url(#clippath-18);
      }

      .cls-75 {
        clip-path: url(#clippath-14);
      }

      .cls-76 {
        clip-path: url(#clippath-17);
      }

      .cls-50 {
        fill: url(#linear-gradient-29);
      }

      .cls-77 {
        clip-path: url(#clippath-5);
      }

      .cls-51 {
        fill: url(#linear-gradient-28);
      }

      .cls-52 {
        fill: url(#linear-gradient-10);
      }

      .cls-53 {
        fill: #8bb5f4;
      }

      .cls-78 {
        clip-path: url(#clippath-10);
      }

      .cls-54 {
        fill: url(#linear-gradient-4);
      }

      .cls-55 {
        fill: #272c6e;
      }

      .cls-56 {
        fill: #a3c4fc;
      }
    </style>
    <clipPath id="clippath">
      <rect class="cls-19" x="178" y="201.96" width="884" height="852.01"/>
    </clipPath>
    <clipPath id="clippath-1">
      <rect class="cls-19" x="224" y="34.96" width="244" height="397"/>
    </clipPath>
    <linearGradient id="linear-gradient" x1="-175.06" y1="-463.14" x2="-115.66" y2="-463.14" gradientTransform="translate(460.04 503.92) scale(.81)" gradientUnits="userSpaceOnUse">
      <stop offset="0" stop-color="#ffbeb6"/>
      <stop offset="1" stop-color="#f2a19c"/>
    </linearGradient>
    <linearGradient id="linear-gradient-2" x1="-181.69" y1="-549.95" x2="-142.89" y2="-549.95" gradientTransform="translate(460.04 503.92) scale(.81)" gradientUnits="userSpaceOnUse">
      <stop offset="0" stop-color="#ffbeb6"/>
      <stop offset="1" stop-color="#f2a19c"/>
    </linearGradient>
    <linearGradient id="linear-gradient-3" x1="-79.44" y1="-547.09" x2="-37.67" y2="-547.09" gradientTransform="translate(472.26 473.87) rotate(-13.91) scale(.81)" gradientUnits="userSpaceOnUse">
      <stop offset="0" stop-color="#23286b"/>
      <stop offset="1" stop-color="#151a4f"/>
    </linearGradient>
    <linearGradient id="linear-gradient-4" x1="-258.9" y1="-422.49" x2="-192.63" y2="-422.49" gradientTransform="translate(463.61 496.01) rotate(-2.53) scale(.83 .89) skewX(-5.24)" gradientUnits="userSpaceOnUse">
      <stop offset="0" stop-color="#eee"/>
      <stop offset=".55" stop-color="#d6d7d8"/>
    </linearGradient>
    <linearGradient id="linear-gradient-5" x1="-72.43" y1="-108.2" x2="9.78" y2="-108.2" gradientTransform="translate(460.04 503.92) scale(.81)" gradientUnits="userSpaceOnUse">
      <stop offset="0" stop-color="#e94a47"/>
      <stop offset="1" stop-color="#d62929"/>
    </linearGradient>
    <linearGradient id="linear-gradient-6" x1="-517.64" y1="-42.7" x2="-435.44" y2="-42.7" gradientTransform="translate(578.33 627.55) rotate(29.48) scale(.81) skewX(.01)" gradientUnits="userSpaceOnUse">
      <stop offset="0" stop-color="#e94a47"/>
      <stop offset="1" stop-color="#d62929"/>
    </linearGradient>
    <linearGradient id="linear-gradient-7" x1="-153.16" y1="-440.53" x2="-88.16" y2="-440.53" gradientTransform="translate(460.04 503.92) scale(.81)" gradientUnits="userSpaceOnUse">
      <stop offset="0" stop-color="#23286b"/>
      <stop offset="1" stop-color="#151a4f"/>
    </linearGradient>
    <linearGradient id="linear-gradient-8" x1="-215.16" y1="-485.71" x2="-189.91" y2="-485.71" gradientTransform="translate(460.04 503.92) scale(.81)" gradientUnits="userSpaceOnUse">
      <stop offset="0" stop-color="#ffbeb6"/>
      <stop offset="1" stop-color="#f2a19c"/>
    </linearGradient>
    <linearGradient id="linear-gradient-9" x1="-172.1" y1="-490.99" x2="-197.75" y2="-492" gradientTransform="translate(460.04 503.92) scale(.81)" gradientUnits="userSpaceOnUse">
      <stop offset="0" stop-color="#ffbeb6"/>
      <stop offset="1" stop-color="#f2a19c"/>
    </linearGradient>
    <clipPath id="clippath-2">
      <rect class="cls-19" y="680.96" width="241" height="583"/>
    </clipPath>
    <linearGradient id="linear-gradient-10" x1="-1812.39" y1="895.53" x2="-3505.99" y2="1956.63" gradientTransform="translate(365.61 1365.52) scale(.07 -.07)" gradientUnits="userSpaceOnUse">
      <stop offset=".13" stop-color="#428dfc"/>
      <stop offset="1" stop-color="#1d72d8"/>
    </linearGradient>
    <linearGradient id="linear-gradient-11" x1="4993.02" y1="8517.12" x2="5111.22" y2="7893.82" gradientTransform="translate(427.36 1365.52) rotate(-180) scale(.07)" gradientUnits="userSpaceOnUse">
      <stop offset="0" stop-color="#ffbeb6"/>
      <stop offset="1" stop-color="#f2a19c"/>
    </linearGradient>
    <linearGradient id="linear-gradient-12" x1="5526.94" y1="7624.65" x2="5176.04" y2="7278.25" gradientTransform="translate(427.69 1365.89) rotate(-179.42) scale(.07)" gradientUnits="userSpaceOnUse">
      <stop offset="0" stop-color="#ffbeb6"/>
      <stop offset="1" stop-color="#f2a19c"/>
    </linearGradient>
    <linearGradient id="linear-gradient-13" x1="4005.85" y1="8375.22" x2="4340.15" y2="7069.63" gradientTransform="translate(427.36 1365.52) rotate(-180) scale(.07)" gradientUnits="userSpaceOnUse">
      <stop offset="0" stop-color="#23286b"/>
      <stop offset=".36" stop-color="#1e2361"/>
      <stop offset="1" stop-color="#151a4f"/>
    </linearGradient>
    <linearGradient id="linear-gradient-14" x1="-6863.98" y1="6194.94" x2="-1725.48" y2="3811.84" gradientTransform="translate(365.61 1365.52) scale(.07 -.07)" gradientUnits="userSpaceOnUse">
      <stop offset="0" stop-color="#a1c3fc"/>
      <stop offset=".7" stop-color="#81aef2"/>
      <stop offset="1" stop-color="#78a9ef"/>
    </linearGradient>
    <linearGradient id="linear-gradient-15" x1="-1995.3" y1="8056.14" x2="-2775.1" y2="5970.04" gradientTransform="translate(365.61 1365.52) scale(.07 -.07)" gradientUnits="userSpaceOnUse">
      <stop offset="0" stop-color="#23286b"/>
      <stop offset=".36" stop-color="#1e2361"/>
      <stop offset="1" stop-color="#151a4f"/>
    </linearGradient>
    <linearGradient id="linear-gradient-16" x1="-2602.48" y1="8476.16" x2="-2848.68" y2="8544.06" gradientTransform="translate(365.61 1365.52) scale(.07 -.07)" gradientUnits="userSpaceOnUse">
      <stop offset="0" stop-color="#ffbeb6"/>
      <stop offset="1" stop-color="#f29b94"/>
    </linearGradient>
    <linearGradient id="linear-gradient-17" x1="-2915.89" y1="9155.13" x2="-2571.79" y2="8276.33" gradientTransform="translate(365.61 1365.52) scale(.07 -.07)" gradientUnits="userSpaceOnUse">
      <stop offset="0" stop-color="#e94a47"/>
      <stop offset=".85" stop-color="#a74a47"/>
    </linearGradient>
    <clipPath id="clippath-3">
      <rect class="cls-19" x="591" y="920.96" width="659" height="409.01"/>
    </clipPath>
    <linearGradient id="linear-gradient-18" x1="5065.08" y1="1760.48" x2="5296.31" y2="1760.48" gradientTransform="translate(2128.01 1516.79) rotate(-180) scale(.18)" gradientUnits="userSpaceOnUse">
      <stop offset="0" stop-color="#ffbeb6"/>
      <stop offset="1" stop-color="#f2a19c"/>
    </linearGradient>
    <linearGradient id="linear-gradient-19" x1="6291.42" y1="1668.11" x2="8515.33" y2="1668.11" gradientTransform="translate(2128.01 1516.79) rotate(-180) scale(.18)" gradientUnits="userSpaceOnUse">
      <stop offset="0" stop-color="#23286b"/>
      <stop offset="1" stop-color="#151a4f"/>
    </linearGradient>
    <linearGradient id="linear-gradient-20" x1="5688.97" y1="2351.54" x2="5767.97" y2="1913.74" gradientTransform="translate(2128.01 1516.79) rotate(-180) scale(.18)" gradientUnits="userSpaceOnUse">
      <stop offset="0" stop-color="#a1c3fc"/>
      <stop offset="1" stop-color="#78a9ef"/>
    </linearGradient>
    <linearGradient id="linear-gradient-21" x1="5984.48" y1="2240.57" x2="6839.01" y2="2240.57" gradientTransform="translate(2128.01 1516.79) rotate(-180) scale(.18)" gradientUnits="userSpaceOnUse">
      <stop offset="0" stop-color="#a1c3fc"/>
      <stop offset="1" stop-color="#78a9ef"/>
    </linearGradient>
    <linearGradient id="linear-gradient-22" x1="-9220.42" y1="1326.96" x2="-8593.99" y2="1326.96" gradientTransform="translate(2261.24 1516.79) scale(.18 -.18)" gradientUnits="userSpaceOnUse">
      <stop offset="0" stop-color="#428dfc"/>
      <stop offset="1" stop-color="#1d72d8"/>
    </linearGradient>
    <linearGradient id="linear-gradient-23" x1="7833.5" y1="1547.45" x2="7624.5" y2="2177.85" gradientTransform="translate(2128.01 1516.79) rotate(-180) scale(.18)" gradientUnits="userSpaceOnUse">
      <stop offset="0" stop-color="#23286b"/>
      <stop offset="1" stop-color="#151a4f"/>
    </linearGradient>
    <linearGradient id="linear-gradient-24" x1="6579.5" y1="2147.76" x2="6852.2" y2="2879.46" gradientTransform="translate(2128.01 1516.79) rotate(-180) scale(.18)" gradientUnits="userSpaceOnUse">
      <stop offset="0" stop-color="#a1c3fc"/>
      <stop offset="1" stop-color="#78a9ef"/>
    </linearGradient>
    <clipPath id="clippath-4">
      <rect class="cls-19" x="860" y="137.96" width="321.01" height="522"/>
    </clipPath>
    <linearGradient id="linear-gradient-25" x1="341.55" y1="1804.76" x2="-699.45" y2="1022.06" gradientTransform="translate(1137.03 705.14) scale(.1 -.1)" gradientUnits="userSpaceOnUse">
      <stop offset=".13" stop-color="#428dfc"/>
      <stop offset="1" stop-color="#1d72d8"/>
    </linearGradient>
    <linearGradient id="linear-gradient-26" x1="140.36" y1="3474.47" x2="-1551.64" y2="2600.37" gradientTransform="translate(1137.03 705.14) scale(.1 -.1)" gradientUnits="userSpaceOnUse">
      <stop offset="0" stop-color="#23286b"/>
      <stop offset="1" stop-color="#151a4f"/>
    </linearGradient>
    <linearGradient id="linear-gradient-27" x1="-1081.17" y1="5230.51" x2="-993.47" y2="4767.91" gradientTransform="translate(1137.03 705.14) scale(.1 -.1)" gradientUnits="userSpaceOnUse">
      <stop offset="0" stop-color="#ffbeb6"/>
      <stop offset="1" stop-color="#f2a19c"/>
    </linearGradient>
    <linearGradient id="linear-gradient-28" x1="-725.01" y1="4590.6" x2="-1013.81" y2="4305.5" gradientTransform="translate(1136.68 705.65) rotate(-.58) scale(.1 -.1)" gradientUnits="userSpaceOnUse">
      <stop offset="0" stop-color="#ffbeb6"/>
      <stop offset="1" stop-color="#f2a19c"/>
    </linearGradient>
    <linearGradient id="linear-gradient-29" x1="-1761.04" y1="4957.62" x2="-1536.34" y2="4080.02" gradientTransform="translate(1137.03 705.14) scale(.1 -.1)" gradientUnits="userSpaceOnUse">
      <stop offset=".13" stop-color="#428dfc"/>
      <stop offset="1" stop-color="#1d72d8"/>
    </linearGradient>
    <linearGradient id="linear-gradient-30" x1="-2685.48" y1="4598.91" x2="-2312.68" y2="3372.41" gradientTransform="translate(1137.03 705.14) scale(.1 -.1)" gradientUnits="userSpaceOnUse">
      <stop offset=".13" stop-color="#428dfc"/>
      <stop offset="1" stop-color="#1d72d8"/>
    </linearGradient>
    <clipPath id="clippath-5">
      <rect class="cls-19" x="1142" y="879.96" width="43" height="43" transform="translate(-276.76 598.14) rotate(-25.88)"/>
    </clipPath>
    <clipPath id="clippath-6">
      <rect class="cls-19" x="1101" y="134.96" width="33" height="33" transform="translate(99.13 635.9) rotate(-33.16)"/>
    </clipPath>
    <clipPath id="clippath-7">
      <rect class="cls-19" x="39" y="537.96" width="38" height="38" transform="translate(-348.76 172.11) rotate(-40.64)"/>
    </clipPath>
    <clipPath id="clippath-8">
      <rect class="cls-19" x="1177" y="1008.96" width="31" height="31" transform="translate(-238.68 373.85) rotate(-16.22)"/>
    </clipPath>
    <clipPath id="clippath-9">
      <rect class="cls-19" x="1088" y="72.96" width="20" height="20" transform="translate(25.41 332.03) rotate(-17.39)"/>
    </clipPath>
    <clipPath id="clippath-10">
      <rect class="cls-19" x="160" y="79.96" width="35" height="35" transform="translate(-23.97 117.82) rotate(-34.54)"/>
    </clipPath>
    <clipPath id="clippath-11">
      <rect class="cls-19" x="1162" y="59.96" width="16" height="16" transform="translate(138.49 624.29) rotate(-31.66)"/>
    </clipPath>
    <clipPath id="clippath-12">
      <rect class="cls-19" x="247" y="58.96" width="11" height="11" transform="translate(26.53 194.27) rotate(-44.2)"/>
    </clipPath>
    <clipPath id="clippath-13">
      <rect class="cls-19" x="110" y="582.96" width="17" height="17" transform="translate(-387.58 263.2) rotate(-45.7)"/>
    </clipPath>
    <clipPath id="clippath-14">
      <rect class="cls-19" x="1111" y="954.96" width="18" height="18" transform="translate(-307.75 582.97) rotate(-25.78)"/>
    </clipPath>
    <clipPath id="clippath-15">
      <rect class="cls-19" x="1150" y="183.96" width="18" height="18" transform="translate(12.56 450.22) rotate(-22.1)"/>
    </clipPath>
    <clipPath id="clippath-16">
      <rect class="cls-7" x="16" y="643.96" width="34" height="34" transform="translate(-376.31 140.94) rotate(-35.35)"/>
    </clipPath>
    <clipPath id="clippath-17">
      <rect class="cls-19" x="186" y="4.96" width="24" height="24" transform="translate(42.73 140.99) rotate(-43.51)"/>
    </clipPath>
    <clipPath id="clippath-18">
      <rect class="cls-19" x="599" y="874.96" width="18" height="18"/>
    </clipPath>
    <clipPath id="clippath-19">
      <rect class="cls-19" x="565" y="572.96" width="12" height="12"/>
    </clipPath>
    <clipPath id="clippath-20">
      <rect class="cls-19" x="504" y="470.96" width="10" height="10"/>
    </clipPath>
  </defs>
  <g class="cls-70">
    <polygon class="cls-12" points="557.46 373.41 532.33 361.79 543.93 336.61 569.04 348.23 557.46 373.41"/>
    <polygon class="cls-36" points="223.29 662.67 214.06 658.4 218.32 649.15 227.55 653.42 223.29 662.67"/>
    <path class="cls-6" d="M191.53,438.67c-.49,0-.97-.28-1.2-.75-.32-.66-.04-1.45.62-1.77l439.48-212.69.59.3,414.75,211.17c.65.33.91,1.13.58,1.79-.33.65-1.13.91-1.78.58l-414.15-210.87-438.29,212.12c-.18.09-.38.13-.57.13h-.02Z"/>
    <rect class="cls-7" x="187.84" y="427.89" width="874.17" height="27.28"/>
    <rect class="cls-36" x="240.62" y="425.23" width="755.4" height="628.74"/>
    <path class="cls-6" d="M1035.33,461.95c-.67,0-1.25-.51-1.31-1.2l-3.7-37.05c-.08-.73.46-1.38,1.18-1.45.72-.07,1.38.46,1.45,1.19l3.7,37.05c.08.73-.46,1.38-1.18,1.45-.04,0-.09,0-.13,0Z"/>
    <path class="cls-6" d="M202.62,460.73c-.67,0-1.25-.51-1.32-1.19l-3.7-35.81c-.08-.73.45-1.38,1.18-1.46.71-.06,1.38.45,1.45,1.19l3.7,35.81c.08.73-.45,1.38-1.18,1.46-.05,0-.09,0-.14,0Z"/>
    <path class="cls-6" d="M1040.25,460.73s-.06,0-.09,0c-.73-.05-1.28-.68-1.24-1.41l2.46-37.05c.05-.73.63-1.26,1.41-1.24.73.05,1.28.68,1.24,1.41l-2.46,37.05c-.05.7-.63,1.24-1.32,1.24Z"/>
    <path class="cls-6" d="M210.01,459.49c-.73,0-1.32-.6-1.32-1.33v-38.28c0-.73.59-1.33,1.32-1.33s1.32.6,1.32,1.33v38.28c0,.73-.59,1.33-1.32,1.33Z"/>
    <polygon class="cls-38" points="637.59 251.31 607.29 232.33 626.23 201.96 656.51 220.94 637.59 251.31"/>
    <ellipse class="cls-21" cx="427" cy="760.08" rx="176.48" ry="176.91"/>
    <ellipse class="cls-21" cx="799.14" cy="760.08" rx="176.48" ry="176.91"/>
    <path class="cls-49" d="M427,936.99c52.52,0,99.66-23.02,131.98-59.52h-263.96c32.33,36.5,79.46,59.52,131.98,59.52h0Z"/>
    <path class="cls-49" d="M799.14,936.99c52.52,0,99.66-23.02,131.98-59.52h-263.96c32.33,36.5,79.46,59.52,131.98,59.52h0Z"/>
    <rect class="cls-56" x="676.05" y="649.3" width="32.99" height="33.07"/>
    <rect class="cls-56" x="749.97" y="672.4" width="27.12" height="27.19"/>
    <rect class="cls-49" x="657.88" y="678.87" width="21.26" height="21.31"/>
    <rect class="cls-2" x="730.01" y="648.88" width="27.12" height="27.19"/>
    <rect class="cls-14" x="950.57" y="759.42" width="11.87" height="11.9"/>
    <rect class="cls-55" x="366.36" y="761.77" width="11.87" height="11.9"/>
    <rect class="cls-29" x="888.6" y="784.67" width="59.79" height="59.93"/>
    <rect class="cls-49" x="494.34" y="620.73" width="37.5" height="37.59"/>
    <rect class="cls-53" x="642.85" y="730.1" width="36.7" height="36.79"/>
    <rect class="cls-14" x="674.19" y="730.1" width="36.7" height="36.79"/>
    <rect class="cls-53" x="776.6" y="701.88" width="36.7" height="36.79"/>
    <rect class="cls-14" x="807.94" y="701.88" width="36.7" height="36.79"/>
    <rect class="cls-2" x="700.58" y="812.78" width="36.7" height="36.79"/>
    <rect class="cls-29" x="709.48" y="717.17" width="53.72" height="53.85"/>
    <rect class="cls-29" x="775.19" y="631.33" width="74.83" height="75.01"/>
    <rect class="cls-56" x="845.55" y="631.33" width="74.83" height="75.01"/>
    <rect class="cls-29" x="359.89" y="684.24" width="74.83" height="75.01"/>
    <rect class="cls-29" x="322.35" y="706.57" width="56.06" height="56.2"/>
    <rect class="cls-29" x="329.39" y="612.5" width="31.43" height="31.5"/>
    <rect class="cls-56" x="359.89" y="613.67" width="74.83" height="75.01"/>
    <rect class="cls-34" x="655.27" y="765.62" width="38.47" height="38.56"/>
    <polygon class="cls-34" points="360.76 820.76 346.62 800.85 366.49 786.66 380.63 806.6 360.76 820.76"/>
    <polygon class="cls-53" points="932.1 747.47 905.4 719.72 933.11 692.96 959.81 720.74 932.1 747.47"/>
    <polygon class="cls-53" points="377.66 849.09 350.97 821.32 378.68 794.56 405.36 822.34 377.66 849.09"/>
    <polygon class="cls-49" points="949.22 762.47 933.4 745.99 949.82 730.12 965.67 746.58 949.22 762.47"/>
    <polygon class="cls-56" points="708.8 835.95 678.45 812.22 702.1 781.82 732.44 805.54 708.8 835.95"/>
    <polygon class="cls-32" points="862.48 766.57 832.14 742.84 855.78 712.44 886.13 736.14 862.48 766.57"/>
    <polygon class="cls-56" points="716.91 793.9 693.7 775.77 711.8 752.52 735.01 770.64 716.91 793.9"/>
    <polygon class="cls-56" points="445.92 666.89 422.71 648.77 440.81 625.51 464.02 643.64 445.92 666.89"/>
    <rect class="cls-14" x="716.42" y="781.86" width="36.7" height="36.79"/>
    <rect class="cls-14" x="376.23" y="771.68" width="36.7" height="36.79"/>
    <rect class="cls-29" x="412.59" y="786.95" width="36.7" height="36.79"/>
    <rect class="cls-49" x="384.44" y="817.53" width="36.7" height="36.79"/>
    <polygon class="cls-6" points="436.84 851.04 424.06 865.29 409.85 852.5 422.62 838.25 436.84 851.04"/>
    <rect class="cls-29" x="707.05" y="660.72" width="23.8" height="23.85"/>
    <rect class="cls-29" x="433.12" y="699.36" width="23.8" height="23.85"/>
    <rect class="cls-55" x="697.08" y="688.76" width="13.24" height="13.27"/>
    <path class="cls-12" d="M590.96,602.89c.4.04.62-.15.65-.55.04-.4-.15-.62-.55-.66-.4-.04-.62.15-.65.55-.04.4.36.44.55.66ZM646.13,578.29c.18.22.58.25.8.07.22-.18.25-.58.07-.8-.18-.22-.58-.25-.8-.07-.62.15-.47.77-.07.8ZM617.49,588.88c.18.22.36.44.76.48.22-.18.44-.37.48-.77-.18-.22-.36-.44-.76-.48-.62.15-.66.55-.48.77ZM623.38,667.22c.15.62.73.88,1.35.73s.88-.73.73-1.35-.73-.88-1.35-.73c-.8-.07-1.09.91-.73,1.35ZM613.96,641.65c.15.62.73.88,1.35.73.62-.15.88-.73.73-1.35-.15-.62-.73-.88-1.35-.73-.62.15-.88.73-.73,1.35ZM604.75,615.89c.15.62.73.88,1.35.73.62-.15.88-.73.73-1.35s-.73-.88-1.35-.73c-.62.14-.88.73-.73,1.35ZM565.27,663.8c.62-.15,1.06-.51,1.31-1.1-.15-.62-.51-1.06-1.09-1.31-.62.15-1.06.51-1.09.91-.29.99.07,1.43.88,1.5ZM566.31,636.53c.62-.15,1.06-.51,1.31-1.1-.15-.62-.51-1.06-1.09-1.31-.62.15-1.06.51-1.09.91-.07.81.48,1.46.88,1.5ZM662.62,628.82c.36.44,1.17.51,1.6.15.44-.37.51-1.17.15-1.61-.36-.44-1.17-.51-1.6-.15-.44.37-.51,1.17-.15,1.61ZM644.22,608.51c.36.44,1.17.51,1.6.15.44-.37.51-1.17.15-1.61-.36-.44-1.17-.51-1.6-.15-.44.37-.51,1.17-.15,1.61ZM626.02,588.43c.36.44,1.17.51,1.6.15.44-.37.51-1.17.15-1.61-.36-.44-1.17-.51-1.6-.15-.66.54-.51,1.17-.15,1.61ZM538.77,661.81c.4.04,1.24-.29,1.09-.91.04-.4-.29-1.24-.91-1.1-.4-.04-1.24.29-1.09.91-.26.58.11,1.02.91,1.1ZM636.92,635.82c.36.44.95.69,1.39.33s.48-.77.32-1.39c-.36-.44-.95-.69-1.39-.33-.43.37-.69.95-.32,1.39ZM622.29,616.46c.36.44.95.69,1.39.33.44-.37.48-.77.32-1.39-.36-.44-.95-.69-1.39-.33-.43.37-.69.95-.32,1.39ZM607.87,596.92c.36.44.95.69,1.39.33.44-.37.48-.77.32-1.39-.36-.44-.95-.69-1.39-.33-.65.55-.69.95-.32,1.39ZM584.98,646.93c.15.62.73.88,1.35.73.62-.15.88-.73.73-1.35s-.73-.88-1.35-.73c-.62.15-1.09.92-.73,1.35ZM578.8,623.48c.15.62.73.88,1.13.91.62-.15.88-.73.73-1.35s-.73-.88-1.35-.73c-.4-.04-.66.55-.51,1.17h0ZM660.03,592.31c.58.25.99.29,1.24-.29s.11-1.21-.29-1.24c-.58-.25-1.2-.11-1.46.48,0,0,.15.62.51,1.06ZM639.32,579.91c.58.25,1.2.11,1.46-.48s.11-1.21-.48-1.46-1.2-.11-1.24.29c-.47.77-.32,1.39.26,1.64-.18-.22,0,0,0,0ZM548.56,685.59c.15.62.73.88,1.35.73.62-.15.88-.73.73-1.35s-.73-.88-1.35-.73c-.62.15-.88.73-.73,1.35ZM541.28,658.59c.15.62.73.88,1.35.73.62-.15.88-.73.73-1.35s-.73-.88-1.35-.73c-.4-.04-.88.73-.73,1.35ZM642.88,614.47c.58.25,1.2.11,1.46-.48s.11-1.21-.48-1.46-1.2-.11-1.46.48c-.44.37-.11,1.21.48,1.46ZM618.48,600.32c.58.25,1.2.11,1.46-.48s.11-1.21-.48-1.46-1.2-.11-1.46.48c-.04.4-.11,1.2.48,1.46ZM593.19,650.1c.36.44,1.17.51,1.6.15.44-.37.51-1.17.15-1.61-.36-.44-1.17-.51-1.6-.15-.44.37-.51,1.17-.15,1.61ZM576.18,627.9c.36.44,1.17.51,1.6.15.44-.37.51-1.17.15-1.61-.36-.44-1.17-.51-1.6-.15-.44.36-.69.95-.15,1.61ZM581.32,665.24c.36.44,1.17.51,1.6.15.44-.37.51-1.17.15-1.61-.36-.44-.95-.69-1.6-.15-.44.37-.51,1.17-.15,1.61ZM565.18,642.31c.36.44,1.17.51,1.6.15.44-.37.69-.95.15-1.61-.36-.44-1.17-.51-1.79-.36-.26.58-.33,1.38.04,1.82ZM610.33,614.57c.58.25,1.2.11,1.64-.26.25-.58.11-1.21-.26-1.64-.58-.25-1.2-.11-1.64.26s-.11,1.21.26,1.64Z"/>
    <path class="cls-49" d="M711.07,936.33c-.44.37-.48.78-.11,1.23.37.44.78.48,1.23.11s.48-.78.11-1.23-.82-.07-1.23-.11ZM679.82,1017.86c-.41-.04-.86.34-.89.75s.34.86.74.89.86-.34.89-.75c.48-.78-.3-1.27-.74-.89ZM698.27,977.76c-.41-.04-.82-.08-1.26.3-.04.41-.08.82.3,1.27.41.04.82.08,1.26-.3.48-.78.11-1.23-.3-1.27ZM612.52,903.86c-.78-.48-1.64-.15-2.12.64s-.15,1.64.63,2.12,1.64.15,2.12-.64c.89-.75.18-2.05-.63-2.12ZM648.16,920.31c-.78-.48-1.64-.15-2.12.64s-.15,1.64.63,2.12,1.64.15,2.12-.64c.48-.78.15-1.64-.63-2.12ZM683.77,937.17c-.78-.48-1.64-.15-2.12.64s-.15,1.64.63,2.12,1.64.15,2.12-.64.15-1.64-.63-2.12ZM675.3,847.92c-.48.78-.56,1.6-.22,2.46.78.48,1.6.56,2.46.22.48-.78.56-1.6.19-2.05-.71-1.3-1.53-1.38-2.42-.63h0ZM701.99,876.79c-.48.78-.56,1.6-.22,2.46.78.48,1.6.56,2.46.22.48-.78.56-1.6.19-2.05-.75-.89-1.98-1-2.42-.63h0ZM611.58,983.16c-.82-.08-1.71.67-1.78,1.49-.08.82.67,1.72,1.49,1.79.82.08,1.71-.67,1.78-1.49.07-.82-.67-1.72-1.49-1.79ZM651.01,985.07c-.82-.08-1.71.67-1.78,1.49-.08.82.67,1.72,1.49,1.79.82.08,1.71-.67,1.78-1.49.07-.82-.67-1.72-1.49-1.79ZM690.03,986.94c-.82-.08-1.71.67-1.78,1.49-.08.82.67,1.72,1.49,1.79.82.08,1.71-.67,1.78-1.49.11-1.23-.67-1.72-1.49-1.79ZM704.36,822.84c-.44.37-.97,1.57-.19,2.05.37.44,1.56.97,2.05.19.44-.37.96-1.57.19-2.05-.34-.86-1.16-.93-2.05-.19ZM630.67,949.74c-.82-.08-1.68.26-1.75,1.08-.08.82.3,1.27,1.08,1.75.82.08,1.68-.26,1.75-1.08.07-.82-.27-1.68-1.08-1.75ZM665.3,954.52c-.82-.08-1.68.26-1.75,1.08-.08.82.3,1.27,1.08,1.75.82.08,1.68-.26,1.75-1.08.07-.82-.26-1.68-1.08-1.75ZM699.9,959.71c-.82-.08-1.68.26-1.75,1.08-.08.82.3,1.27,1.08,1.75.82.08,1.68-.26,1.75-1.08.11-1.23-.27-1.68-1.08-1.75ZM672.35,885.28c-.78-.48-1.64-.15-2.12.64s-.15,1.64.63,2.12,1.64.15,2.12-.64c.48-.78.19-2.05-.63-2.12ZM702.53,902.89c-.78-.48-1.64-.15-2.08.23-.48.78-.15,1.64.63,2.12s1.64.15,2.12-.64c.45-.38.11-1.23-.67-1.72ZM651.37,1017.77c-.86.34-1.3.71-.97,1.57.34.86,1.12,1.34,1.56.97.86-.34,1.34-1.12,1-1.98,0,0-.78-.49-1.6-.56ZM685.13,1009.24c-.86.34-1.34,1.12-1,1.98.34.86,1.12,1.34,1.97,1,.86-.34,1.34-1.12.97-1.57-.3-1.27-1.09-1.75-1.94-1.41.41.03,0,0,0,0ZM670.17,808.58c-.78-.48-1.64-.15-2.12.64s-.15,1.64.63,2.12,1.64.15,2.12-.64c.48-.78.15-1.64-.63-2.12ZM705.07,828.69c-.78-.48-1.64-.15-2.12.64s-.15,1.64.63,2.12,1.64.15,2.12-.64c.45-.37.15-1.64-.63-2.12ZM646.31,977.61c-.86.34-1.34,1.12-1,1.98.34.86,1.12,1.34,1.97,1,.86-.34,1.34-1.12,1-1.98.08-.82-1.11-1.34-1.97-1ZM685.62,967.11c-.86.34-1.34,1.12-1,1.98.34.86,1.12,1.34,1.97,1,.86-.34,1.34-1.12,1-1.98-.37-.44-1.12-1.34-1.97-1ZM660.75,890.43c-.82-.08-1.71.67-1.78,1.49-.08.82.67,1.72,1.49,1.79.82.08,1.71-.67,1.78-1.49.08-.82-.67-1.71-1.49-1.79ZM700.7,895.69c-.82-.08-1.71.67-1.78,1.49-.08.82.67,1.72,1.49,1.79.82.08,1.71-.67,1.78-1.49.08-.82-.26-1.68-1.49-1.79ZM657.45,862.84c-.82-.08-1.71.67-1.78,1.49-.08.82.67,1.72,1.49,1.79.82.08,1.68-.26,1.78-1.49.07-.82-.67-1.72-1.49-1.79ZM697.26,869.75c-.82-.08-1.71.67-1.78,1.49-.08.82.26,1.68,1.49,1.79.82.08,1.71-.67,2.19-1.46-.34-.86-1.09-1.75-1.9-1.83h0ZM679.43,944.22c-.86.34-1.34,1.12-1.41,1.94.34.86,1.12,1.34,1.93,1.42.86-.34,1.34-1.12,1.41-1.94.08-.82-1.12-1.34-1.93-1.42Z"/>
    <path class="cls-49" d="M860.6,977.64l-1.11-2.41c35.8-16.64,65.25-45.28,82.9-80.66l2.37,1.19c-17.92,35.91-47.81,64.99-84.16,81.88Z"/>
    <path class="cls-7" d="M180.42,656.43l-2.42-1.08c17-38.02,54.66-65.68,95.95-70.48l.3,2.64c-40.38,4.69-77.21,31.74-93.84,68.92Z"/>
    <path class="cls-49" d="M860.2,1042.11l-.68-2.57c12.14-3.26,24.25-10.72,37.01-22.8,19.2-18.17,34.35-40.83,43.82-65.53l2.48.95c-9.61,25.07-24.99,48.07-44.47,66.51-13.09,12.4-25.57,20.06-38.15,23.44Z"/>
    <path class="cls-7" d="M544.11,470.07l-2.63-.31c4.92-42.05,40.09-78.8,81.79-85.49l.42,2.62c-40.57,6.51-74.78,42.27-79.58,83.18Z"/>
    <polygon class="cls-12" points="834.94 1033.54 820.49 1026.86 827.17 1012.39 841.6 1019.07 834.94 1033.54"/>
    <polygon class="cls-13" points="954 1017.63 943.3 1012.7 948.25 1001.99 958.93 1006.92 954 1017.63"/>
    <ellipse class="cls-49" cx="534.21" cy="993.2" rx="9.91" ry="9.92"/>
    <polygon class="cls-49" points="772.27 554.08 757.84 547.39 764.51 532.92 778.94 539.6 772.27 554.08"/>
    <polygon class="cls-12" points="540.93 932.23 515.82 920.61 527.4 895.43 552.53 907.05 540.93 932.23"/>
  </g>
  <g class="cls-66">
    <g>
      <path class="cls-13" d="M347.15,82.33c-1.21,4.78.45,10.55-1.21,15.19,2.11-2.66,5.82-7.96,8.84-9.51-.47-1.59-2.05-9.73-3.29-8.63-1.21,1.07-2.28,1.94-4.34,2.95Z"/>
      <path class="cls-43" d="M309.63,100.61c-1.87.55-3.74,1.09-5.61,1.64-.16-.32.1-.76.46-.78-.85,1.81-1.7,3.62-2.54,5.42-.14.29-.27.59-.26.91,0,.26.11.5.22.73.9,2.05,1.81,4.09,2.71,6.14.41.94.84,1.9,1.56,2.63.7.71,1.96,1.12,2.66.4.61-.64.36-1.68.05-2.5-.85-2.28-1.79-4.53-2.84-6.73.68,1.11,1.35,2.22,2.03,3.33.39.63.8,1.29,1.45,1.66s1.6.3,1.99-.33c.56-2.5-1.03-4.93-2.54-6.99,1.07.46,1.58,1.64,2.19,2.63.6.99,1.67,1.98,2.79,1.64.59-1.75-.3-3.64-1.39-5.13-1.09-1.49-2.43-2.89-2.89-4.67h0Z"/>
      <path class="cls-5" d="M357.01,149.48c-1.03-.04-2.11-.1-2.99-.62-.78-.46-9.39-1.6-12.03-3.85-.63-.54-4.9-3.35-6.59-6.24-2.34-3.99-11.3-28.35-17.74-29.35.56-1.32,4.95-3.57,5.51-4.89,5.15,6.46,10.28,12.78,15.89,18.85,5.89,6.39,12.07,12.58,19.18,17.58,1.78,1.25,3.61,2.42,5.39,3.67.82.58,1.66,1.2,2.1,2.1s.33,2.15-.51,2.71c-.55.37-1.27.35-1.93.32-2.09-.09-4.18-.18-6.27-.27Z"/>
      <path class="cls-13" d="M348.27,137.85c.77,5.02,1.54,10.04,2.31,15.05,7.04-3.33,14.5-5.79,22.14-7.3-1.15-19.11-3.56-38.14-7.19-56.93-.35-1.83-.75-3.73-1.86-5.22-2.75-3.69-9.23-2.93-11.73.93-1.37,2.11-1.7,4.7-2.01,7.2-.72,5.95-1.44,11.89-2.16,17.84-.55,4.59-1.11,9.2-1.05,13.82.06,4.9.8,9.77,1.55,14.61h0Z"/>
      <path class="cls-39" d="M366.19,168.06c2.82-2.58.08-12.13-2.18-15.22s-19.58-23.37-31.83-39.89c-2.02,7.81-4.93,15.38-8.66,22.53,11.12,12.47,15.48,23.88,33.96,37.47,2.93,2.15,6.02-2.45,8.7-4.89h0Z"/>
      <path class="cls-43" d="M438.79,384.23c.86.87,10.14,3.77,11.34,3.94,5.28.72,14.08-.24,14.24-.11.15.13,3.92,20.36,3.07,29.04-3.77.43-7.09.77-10.85,1.21-1.46.17-2.97.33-4.35-.16.7-6.23-11.01-30.21-13.45-33.92h0Z"/>
      <path class="cls-39" d="M467.09,400.95c-13.71,1.83-19.29.74-32.96,2.8-10.3-22.53-35.31-52.78-54.88-90.29-25.6-49.04-29.81-82.79-28.89-125.8,9.95,4.9,25.7,8.63,36.23,5.13,1.08,36.97,8.67,70.67,28.85,101.67,5.35,8.22,11.36,16.16,14.85,25.32,3.2,8.4,4.19,17.61,8.29,25.61,4.02,7.85,10.73,13.94,15.96,21.04,7.36,9.99,11.77,22.14,12.54,34.52h0Z"/>
      <path class="cls-43" d="M349.8,84.64c-1.87-8.04-5.96-15.35-10-22.55-.39-.69-.78-1.39-1.17-2.08-.13-.23-.26-.47-.25-.73,0-.42.36-.74.67-1.02,2.47-2.16,1.98-6.31,3.48-9.24,5.38,10.06,12.31,21.24,16.57,30.42-3.25,1.45-6.36,3.19-9.29,5.19h0Z"/>
      <path class="cls-31" d="M342.87,58.92c.16-2.56.94-8.12-.42-10.2-2.14-3.28-6.03-6.96-11.29-9.43-6.44-3.03-10.92,1.36-15.33,6.94-.89,1.13-1.7,2.33-2.32,3.62-2.38,5.06-1.26,11.56,2.69,15.53.73.73,1.52,1.36,2.37,1.91,1.49,2.46,3.25,4.59,5.02,7.32.81.68,2.31-1.44,3.13-2.56.41-.56.8-1.02,1.17-1.44,1.77.31,3.57.52,5.33.71,3.86.4,7.39,4.32,9.93,1.39,1.74-2.01-.44-11.14-.28-13.79h0Z"/>
      <path class="cls-37" d="M308.23,45.83c-2.42,6.4-2.11,14.24-1.59,16.13,2.22,8.03,1.9,8.56.17,12.51,7.88-1.95,7.67-11.16,11.28-17.98,3.62-6.82,8.11-13.68,15.03-17.11-4.55-2.48-8.38-5.02-13.69-4.28-5.06.7-9.4,5.96-11.2,10.74Z"/>
      <path class="cls-7" d="M310.6,78.07c-.12,0-.24-.05-.32-.16-.14-.18-.1-.43.08-.57,4.65-3.55,6.27-9.53,7.85-15.31.58-2.14,1.18-4.35,1.93-6.41,2.32-6.42,6.54-12.28,11.9-16.51.18-.14.43-.11.57.07.14.18.11.43-.07.57-5.24,4.14-9.37,9.87-11.63,16.15-.74,2.03-1.33,4.23-1.91,6.35-1.61,5.92-3.28,12.03-8.14,15.75-.07.06-.16.08-.25.08Z"/>
      <path class="cls-7" d="M336.07,59.87c.67-.96,1.35-2.08,1.1-3.22-.18-.81-1.43-2.46-1.91-3.14-1.22-1.73-2.06-2.7-5.03-5.64,5.18,2.25,8.3,5.39,12.61,9.04,1.95,7.56,4.1,20.49,1.51,20.95-4.82.83-7.75-6.48-12.65-6.48-.79-4.15,1.96-8.05,4.37-11.52Z"/>
      <path class="cls-43" d="M334.12,71.51c-.16-.37-.09-.8,0-1.2.46-2.08,1.3-4.08,2.45-5.88,1.26.88,1.22,1,2.63,1.61-.77,4.02-1.22,5.7-1.46,8.52-.97-.76-1.95-1.53-2.92-2.29-.27-.21-.55-.44-.69-.76h0Z"/>
      <path class="cls-33" d="M276.06,121.04c-.79-.56-2.3.6-2.17,1.56.13.96.8,1.74,1.45,2.47,4.78,5.38,9.57,10.76,14.36,16.13.46.52.93,1.05,1.54,1.4.7.41,1.52.54,2.33.61,5.21.46,11.21-1.11,15.15,2.34,1.18,1.03,2,2.41,2.8,3.77,4.13,7.01,8.26,14.03,12.39,21.04,1.48-3.42,2.58-7.01,3.28-10.68.32-1.7.55-3.5.01-5.14-.4-1.24-1.21-2.3-2.02-3.33-2.91-3.68-6.01-7.19-9.31-10.52-.89-.9-1.82-1.81-2.97-2.35-1.47-.7-3.16-.74-4.79-.77-4.82-.08-9.65-.17-14.47-.25-.79-.01-1.61-.03-2.35-.32-1-.38-2.37-2.7-4-4.74-3.73-4.66-5.71-7.34-11.22-11.21h0Z"/>
      <polygon class="cls-54" points="308.95 141.13 264.52 121.1 276.44 111.16 319.04 130.16 308.95 141.13"/>
      <polygon class="cls-20" points="302.25 135.08 269.97 120.12 277.44 114.32 308.41 128.4 302.25 135.08"/>
      <path class="cls-17" d="M401.83,426.52c-3.94-1.71,9.7-14.07,20.74-17.05,6.1-1.65,8.38-3.64,14.7-3.8,7.15-.18,22.79-.4,29.94-.58.2,7.35,1.42,21.44.37,21.31-7.3.72-64.83,0-65.75.13h0Z"/>
      <path class="cls-43" d="M290.64,383.4c.32,1.18.41,6.46,1.39,7.2,4.24,3.22.22,5.12,4.46,8.34.17.13.34.26.41.46.07.19.77.72.67.89-4.77,8.56-9.88,15.73-12.54,22.84-3.49-1.47-6.98-2.95-10.47-4.43-1.35-.57-8.15-3.75-9.12-4.85,3.68-5.07,25.51-26.02,25.21-30.45Z"/>
      <path class="cls-9" d="M224.25,399.72c-2.59-3.42,15.37-7.48,26.45-4.65,6.12,1.56,9.09.95,14.67,3.92,6.31,3.36,20.04,10.86,26.35,14.22-3.45,6.5-9.31,19.36-10.16,18.73-6.72-2.96-56.44-31.88-57.31-32.22h0Z"/>
      <path class="cls-7" d="M325.98,356.18c-3.16,4.7-3.74,10.86-4.78,16.62-2.65,14.6-12.1,26.28-27.59,37.69-11.09-8.69-16.65-12.51-27.73-21.2,32.17-34.24,55.74-82.05,69.66-129.13,6.6-22.33,17.6-44.31,16.18-67.95,12.23,1.39,23.33,3.89,34.89-.78,5.44,38.6-12.94,82.65-36.24,117.71-2.02,3.04-4.15,6.09-5.32,9.64-1.19,3.61-1.32,7.54-2.03,11.3-1.31,7.02-4.67,13.55-9.44,18.35-2.55,2.57-5.52,4.68-7.59,7.75h0Z"/>
      <path class="cls-35" d="M347.27,114.65c5.06-11.34,10.12-22.69,15.18-34.03,16.45,12.56,23.36,35.1,22.84,55.78-.62,24.44-.2,46.94,3.05,65.67-14.04-.03-36.55,6.74-52.87,8.38,2.67-20.63,12.99-53.06,9.22-73.52-.66-3.56-1.41-7.17-1.1-10.78.35-4.03,2.02-7.81,3.67-11.5h0Z"/>
      <path class="cls-7" d="M342.59,161.47c5.05-21.13,10.17-42.66,15.22-63.79.85-3.57,2.28-7.75,5.83-8.65,3.41-.87,6.69,1.94,8.49,4.97,4.47,7.51,4.03,16.88,2.92,25.55-3.43,26.87-11.99,53.07-25.11,76.78-.42.76-.89,1.55-1.67,1.92-1.51.72-3.19-.49-4.41-1.64-11.37-10.69-22.98-23.11-38.45-25.3,7.36-6.77,13.45-14.91,17.88-23.87q3.61,4.5,7.99,9.43c2.39,2.69,5.96,6.81,8.55,9.31,2.59,2.5,2.13,5.79,3.62,10.95,2.85-1.86-2.63-12.93-1.75-12.93-.11-1.42,5.2,4.87,6.86,6.48.59-1.33-2.76-6.85-5.98-9.22h0Z"/>
      <path class="cls-33" d="M312.56,146.11c1.18-1.2,7.73-.49,6.73-1.83-1.11-1.5-5.56-6.56-7.34-7.13-3.3-1.06-8.95-3.48-11.99-5.15-3.03-1.68-8.4-4.02-9.89-2.53-.98.98.38,2.77,1.52,3.55,1.15.78,8.54,4.07,9.75,4.75,6.12,3.47,6.04,3.74,11.22,8.36h0Z"/>
      <path class="cls-10" d="M346.16,141.62h-.01c-.23,0-.4-.19-.4-.42.27-9.51,3.43-19.01,8.89-26.8l-3.83-1.9,11.62-18.2c1.68-2.63,3.59-5.62,3.96-8.92.34-2.98-.99-6.71-4.1-7.73-.21-.07-.33-.3-.26-.51.07-.21.3-.33.51-.26,3.53,1.16,5.03,5.29,4.66,8.6-.39,3.48-2.35,6.55-4.08,9.26l-11.13,17.44,3.87,1.92-.28.39c-5.54,7.74-8.74,17.23-9.01,26.74,0,.22-.19.4-.41.4h0Z"/>
      <path class="cls-44" d="M285.83,119.28c.46.17.98.04,1.45-.12,5.19-1.73,10.09-5.17,12.67-10,.73-1.36,4.46-6.05,5.24-7.29s.39-3.37-1.05-3.67c-4.83,6.46-9.85,13.09-16.82,17.15-.77.44-1.59.89-2.03,1.66-.44.77-.29,1.95.54,2.27Z"/>
      <path class="cls-40" d="M323.41,105.67c-.05,2.45-2.08,3.94-6.16,4.35-.92.09-4.03-.45-4.69-1.43-2.05-3.04-6.85-3.05-9.38-5.71-1.12-1.18-.64-2.33.28-3.81.16-.42.99-.98,1.41-.84,3.53,1.14,7.06,2.27,10.58,3.41,2.31.74,4.62,1.49,6.86,2.4.32.13.66.28.87.56.21.3.23.7.23,1.07Z"/>
      <path class="cls-33" d="M295.53,107.72c-.66.34-1.38.91-1.34,1.69.03.52.4.95.8,1.25,1.41,1.02,3.26.88,4.95.7,4.49-.49,8.98-.98,13.48-1.46,2.09-.23,4.25-.47,6.11-1.52-.17-.87-.34-1.74-.51-2.61-.04-.19-.08-.4-.22-.53-.18-.17-.46-.15-.71-.12-3.69.49-7.39,1.05-11.1,1.13-3.88.09-7.96-.31-11.46,1.47Z"/>
      <path class="cls-38" d="M347.39,82.17c1.13,4.62,3.59,10.42,3.31,15.49,4.16-6.59,5.72-12.46,12.39-16.49-2.53-2.5-4.55-5.5-5.9-8.79-1.97,2.26-3.93,4.52-5.89,6.78-1.09,1.26-2.29,2.58-3.9,3Z"/>
      <path class="cls-33" d="M268.94,133.79c8.3,3.56,17.69,4.46,26.51,6.87,1.1.3,2.25.62,3.37.38,1.11-.24,2.09-1.3,1.66-2.23-2.05-.57-4.11-1.15-6.16-1.72-6.26-1.75-12.52-3.5-18.88-4.94-1.23-.28-2.5-.55-3.75-.37-1.25.18-2.48.92-2.74,2.01Z"/>
      <path class="cls-49" d="M375.3,211.8c-.17.05-.27.2-.21.36s.2.27.36.21c.17-.05.27-.2.21-.36-.05-.17-.2-.27-.36-.21ZM348.95,224.33c-.14-.1-.31-.05-.41.1-.1.14-.05.31.1.41s.31.05.41-.1c.18-.13.05-.31-.1-.41ZM355.5,227.85c-.14-.1-.31-.05-.41.1-.1.14-.05.31.1.41s.31.05.41-.1c.09-.07.05-.31-.1-.41ZM361.48,214.5c-.1.14-.12.3-.07.46.14.1.3.12.46.07.1-.14.12-.3.06-.38-.12-.25-.27-.28-.45-.15h0ZM366.19,220.34c-.1.14-.12.3-.07.46.14.1.3.12.46.07.1-.14.12-.3.06-.38-.12-.25-.35-.29-.45-.15h0ZM347.85,239.29c-.15-.02-.33.11-.35.26-.02.15.11.33.26.35.15.02.33-.11.35-.26.02-.15-.11-.33-.26-.35ZM355.29,240.11c-.15-.02-.33.11-.35.26-.02.15.11.33.26.35s.33-.11.35-.26c.02-.15-.11-.33-.26-.35ZM367.28,210.11c-.09.07-.2.28-.06.38.07.09.28.2.38.06.09-.07.2-.28.06-.38-.05-.17-.21-.19-.38-.06ZM371.01,215.64c-.09.07-.2.28-.06.38.07.09.21.19.38.06.09-.07.19-.21.06-.38-.14-.1-.3-.12-.38-.06ZM351.85,233.21c-.15-.02-.32.03-.34.18-.02.15.04.24.18.34.15.02.32-.03.34-.18.02-.15-.03-.32-.18-.34ZM358.35,234.51c-.15-.02-.32.03-.34.18-.02.15.04.24.18.34.15.02.32-.03.34-.18.02-.15-.03-.32-.18-.34ZM360.49,221.52c-.14-.1-.31-.05-.41.1-.1.14-.05.31.1.41s.31.05.41-.1c.1-.14.05-.31-.1-.41ZM360.97,207.02c-.14-.1-.31-.05-.41.1-.1.14-.05.31.1.41s.31.05.41-.1c.1-.14.05-.31-.1-.41ZM367.33,211.3c-.14-.1-.31-.05-.41.1-.1.14-.05.31.1.41s.31.05.41-.1.05-.31-.1-.41ZM373.78,215.51c-.14-.1-.31-.05-.41.1-.1.14-.05.31.1.41.14.1.31.05.41-.1.02-.15-.03-.32-.1-.41ZM354.49,238.65c-.17.05-.27.2-.21.36s.2.27.36.21.27-.2.21-.36c.02-.15-.19-.27-.36-.21ZM383.47,210.92c-.13-.18-.28-.2-.46-.07M358.23,222.36c-.15-.02-.33.11-.35.26-.02.15.11.33.26.35.15.02.33-.11.35-.26.02-.15-.11-.33-.26-.35ZM357.93,217.11c-.15-.02-.33.11-.35.26-.02.15.11.33.26.35.15.02.32-.03.35-.26.02-.15-.11-.33-.26-.35ZM365.39,218.88c-.15-.02-.33.11-.35.26-.02.15.03.32.26.35.15.02.33-.11.43-.25-.05-.17-.19-.34-.34-.37h0ZM374.63,208.94c-.14-.1-.31-.05-.41.1-.1.14-.05.31.08.48.14.1.31.05.49-.08.04-.23-.02-.4-.16-.5ZM375.52,211.91c-.15-.02-.24.04-.33.11-.02.15.04.24.11.33.15.02.24-.04.33-.11.02-.16-.03-.32-.11-.33Z"/>
    </g>
  </g>
  <g class="cls-61">
    <path class="cls-52" d="M189.64,1215.57h-37.36s-19.47,18.33-40.35,27.27c-20.88,8.94-27.15,21.01-27.15,21.01h122.18s-17.31-48.22-17.31-48.22"/>
    <path class="cls-6" d="M113.65,1215.57h-39.33s-16.92,18.45-37.8,27.39c-20.88,8.94-27.15,21.01-27.15,21.01h122.18s-17.9-48.4-17.9-48.4"/>
    <path class="cls-16" d="M68.61,818.76s-11.44-5.93-12.7-12.32c-1.07-5.41-11.33-10.94-11.33-10.94l8.55,17.04,4.51,9.54s13.87,18.04,10.98-3.31Z"/>
    <path class="cls-7" d="M31.67,817.41l21.72-4.94c1.29-.29,2.09-1.57,1.8-2.86-.08-.33-.22-.65-.43-.92l-28.62-37.53c-.58-.76-1.55-1.1-2.48-.87l-21.85,5.41c-1.28.32-2.06,1.61-1.74,2.89.08.32.23.62.43.89l28.74,37.06c.57.73,1.51,1.07,2.42.86h0Z"/>
    <path class="cls-1" d="M62.68,820.96s-6.89-3.9-9.55-8.43c0,0-4.08.95-6.62,1.36,0,0-.33-6.47-13.11-7.56-11.52-.99-10-3.49-17.13-5.81s-10.04-.23-10.44,2.15c0,0,7.5,2.71,9.23,5.48s3.79,9.56,10.04,11.76c6.25,2.2,28.25,4.89,32.75,19.35l4.83-18.29"/>
    <path class="cls-22" d="M58.76,858.15s4.4,9.1,19.8,9.73c15.4.63,18.86,3.14,30.17,10.36,11.32,7.23,32.68,10.04,54.06-23.23,19.62-30.57,26.27-64.3,22.82-82.25-1.61-10.76-2.07-14.66-3.69-18.04-.22-.46-6.91,4.02-8.67,5.2-2.71,1.81-10.88,8.22-12.9,8.34-3.64,12.01-9.82,62.35-37.99,62.41-29.61.07-52.6-16.48-52.6-16.48l-10.99,43.95h0Z"/>
    <path class="cls-30" d="M147.12,913.23s-42.22,88.16-51.8,126.66c-8.14,32.7,41.57,175.68,41.57,175.68h52.75s9.31-21.81-.62-42.37c-9.93-20.56-4.34-25.54-4.96-41.74-.62-16.2-1.86-41.12-14.27-68.53-12.41-27.41,26.06-57.32,35.99-76.01s24.82-56.69,17.37-77.25c0,0-37.14,1.98-39.62,2.6-2.48.62-36.42.97-36.42.97"/>
    <path class="cls-36" d="M235.52,891.74c-.74.4-3.12,1.58-6.06,3.03-10.38,5.1-22.03,7.01-33.5,5.49l-43.84-5.85c-1.37,19.65-21.42,77.55-21.42,77.55-8.78,22.15-19.02,63.82-28.54,95.81-9.79,32.91-31.77,132.67-35.43,147.8h46.91c20.14-16.84,25.28-37.85,36.45-71.48,13.67-41.17,16.38-25.95,25.51-66.25,9.13-40.29,7.91-32.07,36.68-85.09,28.04-51.67,24.22-98.96,23.24-101h0Z"/>
    <path class="cls-42" d="M203.32,928.61c-.16-.06-.34.01-.4.17-.07.15,0,.32.14.39,0,0,0,0,0,0,.16.06.34-.01.4-.17h0c.06-.15,0-.32-.15-.4h0ZM196.5,925.82c-.16-.06-.34.02-.4.17-.06.16.02.34.17.4s.34-.02.4-.17c.06-.16-.02-.33-.17-.4ZM189.7,923.03c-.16-.06-.34.02-.4.17s.02.34.17.4c.15.06.31-.01.37-.16,0,0,0-.01,0-.02.07-.14.02-.31-.12-.38-.01,0-.03-.01-.04-.02h0ZM182.88,920.23c-.16-.05-.34.04-.39.2-.05.15.02.31.16.37.16.06.34-.02.4-.17.06-.16-.02-.34-.17-.4ZM176.08,917.44c-.16-.06-.34.02-.4.17-.06.16.02.34.17.4s.34-.02.4-.17c.06-.16-.02-.34-.17-.4ZM181.63,950.73c-.07-.15-.24-.22-.39-.16s-.22.24-.16.39c.07.15.24.22.39.16.15-.07.22-.24.16-.39ZM178.8,943.95c-.05-.15-.22-.23-.36-.17-.01,0-.02,0-.03.01-.16.06-.24.23-.18.39.07.15.26.22.41.16.15-.06.22-.24.16-.39h0ZM175.97,937.17c-.07-.16-.25-.23-.41-.18-.15.07-.22.26-.16.41.07.15.24.22.39.16.16-.06.24-.23.18-.39h0ZM173.12,930.37c-.07-.15-.24-.22-.39-.16-.15.07-.23.26-.16.41.07.15.24.22.39.16.15-.07.23-.26.16-.41ZM150.48,950.65c-.15-.06-.32.02-.38.18-.07.14-.02.31.12.38.01,0,.02.01.04.02.16.06.34-.02.4-.17.06-.16-.01-.34-.17-.4ZM192.06,938.81c-.12-.11-.3-.11-.42,0s-.11.3,0,.42.3.11.42,0c.11-.1.12-.28.02-.4,0,0-.01-.01-.02-.02ZM186.84,933.62c-.12-.11-.3-.11-.42,0-.05.05-.08.11-.09.17-.02.1.02.19.09.26.01.02.04.03.06.03h.02c.11.07.25.06.34-.03.12-.11.13-.31,0-.43,0,0-.01,0-.01,0ZM181.62,928.44c-.12-.11-.3-.11-.42,0s-.11.3,0,.42c.11.12.3.13.41.02.12-.11.13-.31,0-.43,0,0,0,0-.01-.01h0ZM176.4,923.25c-.12-.11-.3-.11-.42,0-.12.11-.13.31,0,.43h.01c.1.13.28.13.4.03,0,0,.01-.01.02-.02.12-.12.12-.31,0-.43,0,0,0,0,0,0h0ZM165.95,949.77c-.17,0-.31.14-.31.31s.14.31.31.31c.17,0,.31-.14.31-.31s-.14-.31-.31-.31ZM165.93,942.42c-.17,0-.31.14-.31.31,0,.16.13.29.29.29,0,0,.02,0,.03,0,.17,0,.31-.12.31-.29,0-.17-.14-.3-.31-.31ZM221.52,952.15c-.23-.21-.59-.2-.81.04,0,0,0,0-.01.02-.21.23-.18.59.05.79h0c.23.22.59.2.81-.03,0,0,0,0,.01-.02.21-.23.18-.59-.05-.79,0,0,0,0,0,0ZM210.98,942.99c-.23-.21-.59-.18-.8.05h0c-.21.24-.19.61.05.82.24.21.61.19.82-.05.2-.25.17-.61-.07-.82ZM200.45,933.86c-.24-.21-.61-.19-.82.05-.21.24-.19.61.05.82s.61.19.82-.05c.21-.23.2-.59-.04-.8l-.02-.02ZM189.93,924.72c-.23-.21-.59-.2-.81.04,0,0,0,0-.01.02-.13.14-.18.34-.14.52h.02c.02.11.08.22.17.3.06.05.12.08.2.09.29.11.62-.03.74-.32.09-.23.02-.49-.17-.64ZM179.08,987.34c-.32.02-.56.29-.54.61.02.31.28.54.58.52,0,0,.02,0,.03,0,.32-.02.56-.29.54-.61-.02-.31-.3-.55-.62-.52t0,0ZM178.1,973.42c-.31.03-.55.3-.52.61h0c.02.32.29.56.61.54.32-.02.56-.29.54-.61-.04-.32-.31-.55-.63-.55h0ZM177.13,959.51c-.32.04-.56.31-.55.63.02.31.28.54.58.52,0,0,.02,0,.03,0,.31-.01.56-.28.55-.59,0,0,0-.01,0-.02-.02-.32-.29-.56-.61-.54h0ZM176.13,945.62c-.31.03-.55.3-.52.61h0c.02.32.3.56.62.54.32-.02.56-.3.54-.62-.02-.32-.3-.56-.62-.54h-.02ZM175.17,931.71c-.32.03-.55.31-.52.63.03.31.3.54.61.52.31-.02.54-.28.52-.58,0,0,0-.02,0-.03-.02-.32-.29-.56-.61-.54h0ZM227.59,928.2c-.3-.1-.63.06-.74.36-.1.3.06.63.36.74.3.1.63-.06.74-.36.1-.3-.05-.63-.36-.74ZM214.35,923.79c-.29-.1-.6.05-.71.33,0,0,0,.02,0,.03-.11.29.04.62.33.73.29.11.62-.04.73-.33,0-.01,0-.03.01-.04.1-.29-.05-.6-.33-.71,0,0-.02,0-.03-.01h0ZM206.49,973.46c-.14-.29-.49-.42-.78-.28-.29.14-.42.48-.28.78s.49.42.78.28c0,0,0,0,.01,0,.29-.14.41-.48.27-.77ZM200.26,960.99c-.14-.29-.49-.42-.78-.28-.29.14-.42.48-.28.78.14.29.49.42.78.28,0,0,0,0,.01,0,.29-.14.41-.48.27-.77ZM194.03,948.51c-.16-.28-.51-.39-.8-.26-.29.15-.4.51-.24.79.15.28.48.39.77.26.29-.15.41-.5.28-.79ZM187.77,936.06c-.13-.29-.47-.41-.76-.28-.29.13-.41.47-.28.76,0,0,0,.02.01.02.14.28.48.4.76.26,0,0,0,0,.02,0,.27-.13.39-.45.27-.72,0,0-.01-.02-.02-.03h0ZM181.54,923.58c-.15-.28-.49-.39-.77-.24-.27.14-.38.47-.25.75.14.28.48.4.77.27.28-.14.4-.48.26-.77,0,0,0,0,0,0h0ZM152.9,977.35c-.29-.1-.6.05-.71.34,0,.01,0,.03-.01.04-.1.29.06.61.35.71,0,0,0,0,0,0,.3.1.63-.06.74-.36.09-.31-.08-.63-.38-.74h0ZM157.34,964.15c-.3-.11-.63.05-.73.34,0,0,0,0,0,0-.1.3.06.63.36.74.31.08.63-.08.74-.38.1-.29-.06-.61-.35-.71,0,0,0,0,0,0h0ZM161.75,950.92c-.3-.1-.63.06-.74.36-.11.3.05.62.35.73,0,0,.02,0,.03,0,.29.1.6-.05.71-.33,0,0,0-.02,0-.03.1-.3-.06-.63-.35-.74ZM166.17,937.69c-.3-.09-.62.08-.72.38-.1.29.05.6.33.71,0,0,.02,0,.03,0,.3.1.63-.06.74-.36.1-.31-.07-.63-.38-.74h0ZM235.94,921.62c-.06.06-.11.13-.13.21-.02.14,0,.28.09.39,0-.21.02-.41.04-.6h0ZM218.45,967.1c-.15-.24-.47-.31-.71-.17s-.31.47-.17.7c0,0,0,0,0,0,.15.24.47.31.71.15.24-.15.31-.46.16-.7ZM211.85,956.55c-.15-.24-.47-.31-.71-.16-.24.15-.31.47-.16.71.15.24.47.31.71.16.24-.14.31-.45.17-.69,0,0,0-.01-.01-.02h0ZM205.25,945.99c-.04-.09-.11-.16-.2-.19h-.02c-.16-.07-.34-.06-.48.03-.24.15-.32.48-.17.72,0,0,0,0,0,0,.15.24.47.31.71.16.11-.07.19-.18.21-.3.06-.14.04-.3-.05-.42h0ZM198.65,935.44c-.15-.24-.47-.31-.71-.16-.24.15-.32.47-.17.72s.47.32.71.17c.24-.15.32-.48.17-.72,0,0,0,0,0,0h0ZM192.07,924.89c-.16-.24-.48-.31-.73-.16-.24.16-.31.48-.15.72.15.23.46.3.69.17.24-.16.32-.47.18-.72h0ZM166.43,975.5c-.28-.06-.55.11-.62.38,0,0,0,0,0,0-.07.26.09.54.35.61,0,0,.01,0,.02,0,.28.06.56-.11.64-.39.05-.28-.12-.54-.39-.62ZM169.24,963.38c-.28-.06-.55.11-.62.38,0,0,0,0,0,0-.07.26.09.54.35.61,0,0,.01,0,.02,0,.27.07.55-.1.61-.37.07-.28-.1-.56-.37-.63h0ZM172.04,951.26c-.28-.06-.55.11-.62.38,0,0,0,0,0,0-.08.26.07.52.33.6.02,0,.03,0,.05.01.28.06.55-.11.62-.38,0,0,0,0,0,0,.06-.27-.1-.54-.37-.61h0ZM174.82,939.14c-.28-.05-.55.12-.62.39-.06.28.12.55.4.62.27.06.54-.11.61-.37.06-.28-.11-.56-.39-.64h0ZM177.65,927.02c-.28-.06-.56.11-.64.39-.06.28.11.55.39.62s.56-.11.62-.39c0,0,0,0,0,0,.05-.27-.11-.53-.38-.61ZM223.39,937.32c-.23-.17-.55-.12-.72.11,0,0,0,0-.01.01-.17.21-.13.52.08.68,0,0,.02.01.03.02.22.17.54.13.71-.09,0,0,0-.01.01-.02.16-.23.12-.55-.11-.72ZM213.24,930.09c-.24-.15-.55-.1-.73.13-.16.24-.11.56.13.72.24.16.57.09.72-.15.15-.23.1-.53-.13-.7h0ZM203.1,922.88c-.23-.17-.55-.12-.72.11,0,0,0,0,0,0-.15.24-.1.55.13.72.24.16.56.11.73-.13.16-.22.11-.53-.11-.69,0,0-.01,0-.02-.01h0ZM192.92,970c-.28.06-.46.33-.42.61.05.28.31.46.59.41.28-.04.47-.3.43-.58-.05-.29-.32-.48-.61-.44h0ZM190.87,957.73c-.28.06-.46.33-.42.61.05.28.31.46.59.41.27-.04.46-.29.42-.56,0,0,0-.02,0-.03-.04-.28-.3-.47-.59-.43h0ZM188.82,945.48c-.27.04-.46.29-.42.56,0,0,0,.02,0,.03.05.28.31.46.59.41.28-.05.46-.31.41-.59-.04-.27-.29-.46-.56-.42-.01,0-.02,0-.03,0h0ZM186.77,933.21c-.28.04-.47.3-.43.58.02.11.07.21.15.29h.02c.12.11.28.16.44.12.28-.05.46-.31.42-.59-.05-.28-.31-.46-.59-.42,0,0,0,0,0,0ZM184.72,920.94c-.09,0-.18.05-.24.11-.02.11-.09.21-.18.27-.01.07-.02.14,0,.21.04.28.3.47.59.43.29-.05.48-.32.44-.61-.05-.27-.31-.46-.59-.41ZM146.8,959.78c-.23-.16-.55-.12-.72.11-.17.23-.12.55.11.72,0,0,0,0,.01,0,.21.17.52.13.68-.08,0,0,.01-.02.02-.03.17-.22.13-.54-.09-.71,0,0,0,0-.01-.01h0ZM154.01,949.64c-.24-.16-.57-.09-.72.15-.15.23-.1.53.13.7.24.16.56.1.73-.13.17-.22.12-.54-.1-.71,0,0-.02-.01-.03-.02h0ZM175.73,919.26c-.24-.15-.55-.1-.73.13-.16.24-.11.56.13.72.24.16.57.09.72-.15.14-.23.09-.54-.13-.7h0ZM217.5,936.55c-.11-.13-.31-.13-.43-.02-.13.11-.13.31-.02.43.11.13.31.13.43.02.12-.12.13-.31.02-.43ZM212.49,931.19c-.11-.13-.31-.13-.43-.02-.13.11-.13.31-.02.43.11.13.31.13.43.02.12-.12.13-.31.02-.43ZM207.46,925.82c-.11-.12-.3-.13-.41-.02-.13.1-.15.27-.05.4,0,.01.02.03.03.04.11.12.3.13.41.02.13-.1.15-.28.05-.4,0-.01-.02-.02-.03-.03h0ZM188.32,947.29c-.17,0-.31.12-.31.29s.13.31.29.31.31-.12.31-.29-.12-.31-.29-.31ZM188.57,939.96c-.16-.01-.3.11-.31.27,0,0,0,.01,0,.02,0,.17.13.31.29.31.17,0,.31-.12.33-.29,0-.17-.13-.31-.3-.31,0,0,0,0,0,0h0ZM188.83,932.62c-.16-.01-.3.11-.31.27,0,0,0,.02,0,.02,0,.17.13.31.29.31.17,0,.31-.12.31-.29,0-.17-.12-.3-.29-.31h0ZM189.08,925.29s-.06,0-.08,0h-.02c-.12.04-.2.15-.21.28,0,.17.13.31.29.31.13,0,.25-.08.3-.21v-.08c.02-.16-.1-.3-.26-.31,0,0-.01,0-.02,0ZM176.5,919.56c-.11-.12-.3-.13-.41-.02-.12.12-.13.31-.02.43.12.12.31.13.43.02.12-.12.12-.31,0-.43,0,0,0,0,0,0h0ZM203.05,941.12c-.05-.15-.21-.24-.36-.19,0,0-.02,0-.03,0-.15.05-.24.22-.18.38,0,0,0,.01,0,.02.07.15.24.23.39.18.16-.06.24-.23.18-.39h0ZM200.46,934.23c-.06-.15-.23-.22-.38-.17,0,0-.01,0-.02,0-.15.06-.23.23-.18.39.07.15.24.23.39.18.16-.06.24-.23.19-.39,0,0,0-.01,0-.02h0ZM197.89,927.37c-.07-.15-.24-.23-.39-.18-.16.06-.24.23-.18.39.05.15.21.24.36.19,0,0,.02,0,.03,0,.15-.05.24-.22.18-.38,0,0,0-.01,0-.02ZM195.32,920.5c-.07-.15-.24-.23-.39-.18-.16.06-.24.23-.18.39.05.15.21.24.36.19,0,0,.02,0,.03,0,.16-.06.24-.24.18-.39ZM174.78,940.21c-.14-.07-.31-.02-.38.12,0,.01-.01.02-.02.04-.07.15,0,.33.15.4s.33,0,.4-.15c.07-.15,0-.33-.15-.4ZM177.83,933.54c-.14-.07-.31-.02-.38.12,0,.01-.01.02-.02.04-.07.14-.01.32.13.39,0,0,0,0,0,0,.16.07.34,0,.42-.15.07-.15,0-.32-.14-.39,0,0,0,0,0,0ZM180.88,926.86c-.15-.07-.33-.02-.41.13-.07.16,0,.34.15.42.16.07.34,0,.42-.15.06-.15,0-.33-.15-.4h0ZM184.06,920.33v-.02c-.03-.06-.08-.11-.14-.15-.15-.06-.32,0-.4.15-.03.05-.04.11-.02.16.01.11.08.2.17.25.15.07.32,0,.39-.14,0,0,0,0,0,0,.05-.07.05-.17,0-.25h0ZM222.83,943.78c-.1-.16-.3-.21-.46-.11,0,0,0,0,0,0-.16.09-.22.3-.12.46,0,0,0,.01.01.02.1.16.3.21.46.11,0,0,0,0,0,0,.16-.11.21-.32.11-.48h0ZM218.31,936.72c-.1-.16-.3-.21-.46-.11,0,0,0,0,0,0-.16.1-.21.32-.11.48s.32.21.49.11c.16-.1.2-.31.1-.47,0,0-.01-.01-.02-.02h0ZM213.8,929.67c-.1-.16-.32-.21-.48-.11-.16.1-.21.32-.11.48,0,0,0,0,0,0,0,.02.02.02.04.05.12.12.3.15.45.06.16-.1.21-.32.11-.48h0ZM209.28,922.61l-.07-.09s-.04-.03-.08-.03c-.11-.06-.24-.05-.34.02-.16.1-.21.32-.11.48.1.16.32.21.49.11.16-.1.21-.32.11-.48ZM187.87,949.8c-.19-.02-.36.09-.41.28-.04.18.07.37.26.41.17.05.35-.05.4-.22,0-.01,0-.03,0-.04.05-.19-.06-.38-.25-.43t0,0ZM189.67,941.63c-.19-.02-.36.09-.41.28-.04.18.07.37.25.41.19.05.38-.06.43-.25t0,0c.03-.19-.08-.38-.27-.43h0ZM191.47,933.45c-.19-.02-.36.09-.41.28-.04.18.07.37.25.41.17.05.35-.05.4-.22,0-.02,0-.03,0-.05.04-.18-.07-.37-.25-.41h0ZM193.27,925.27c-.19-.03-.37.09-.41.28-.04.18.07.37.25.41.17.05.35-.05.4-.22,0-.02,0-.03,0-.05.04-.18-.07-.37-.25-.41h0ZM232.19,928.36c-.15-.11-.37-.08-.48.07,0,0,0,0,0,0-.1.16-.07.37.08.49.16.11.37.07.48-.08,0,0,0,0,0-.01.11-.15.07-.36-.08-.47ZM225.32,923.56c-.16-.11-.38-.07-.49.08-.11.16-.07.37.08.48,0,0,0,0,.01,0,.15.11.36.07.47-.08.11-.16.08-.37-.08-.49h0ZM205.45,946.08c-.03-.19-.2-.31-.39-.29,0,0,0,0-.01,0h-.02c-.18.04-.29.22-.26.4.03.19.2.31.39.29,0,0,0,0,.01,0,.05-.01.09-.04.14-.07.11-.07.18-.2.15-.33ZM203.57,937.53c-.19.05-.31.23-.29.42.05.18.23.3.42.27.18-.04.3-.21.27-.4,0,0,0,0,0,0-.03-.18-.21-.31-.4-.28ZM202.1,929.3c-.19.03-.31.21-.28.4.03.19.21.31.4.28.19-.03.31-.21.28-.4-.03-.19-.2-.31-.39-.29,0,0,0,0-.01,0ZM200.62,921.06c-.18.04-.3.21-.27.4,0,0,0,0,0,0,.03.18.19.3.37.27.01,0,.02,0,.03,0,.19-.03.31-.21.28-.4-.04-.19-.23-.31-.42-.27t0,0h0ZM173.9,939.22c-.15-.1-.35-.07-.46.08,0,0,0,.01-.01.02-.11.15-.07.36.08.47.15.11.37.08.48-.07,0,0,0,0,0,0,.11-.16.06-.38-.1-.49h0ZM178.7,932.35c-.16-.11-.38-.06-.49.1-.1.15-.07.35.08.46,0,0,.01,0,.02.01.14.11.34.08.45-.06,0,0,.01-.02.02-.02.11-.16.08-.37-.08-.49t0,0h0ZM183.51,925.48c-.16-.11-.37-.07-.48.08,0,0,0,0,0,.01-.11.16-.06.37.1.48.16.1.37.07.47-.09.1-.16.07-.37-.08-.49h0ZM235.09,923.72c-.27-.19-.64-.13-.83.14-.19.27-.13.65.14.84.26.18.62.13.82-.12.19-.27.13-.65-.13-.85ZM217.86,980.52c-.33.05-.55.35-.51.68.06.32.36.54.68.49.32-.05.55-.35.51-.68-.05-.32-.36-.54-.68-.49ZM215.62,966.33c-.32.05-.54.36-.49.68.05.32.36.54.68.49s.54-.36.49-.68c-.06-.32-.36-.54-.68-.49ZM213.4,952.15c-.32.04-.55.34-.51.66s.34.55.66.51c0,0,.02,0,.02,0,.33-.05.55-.35.51-.68-.06-.32-.36-.54-.68-.49h0ZM211.15,937.96c-.32.05-.54.35-.49.67,0,0,0,0,0,.01.05.32.36.54.68.49s.54-.36.49-.68c-.05-.32-.35-.54-.67-.49,0,0,0,0-.01,0ZM208.93,923.77c-.32.05-.54.35-.49.68.05.32.34.54.66.49.33-.05.55-.35.51-.68-.05-.33-.36-.54-.68-.49ZM159.46,966.44c-.27-.19-.65-.13-.84.14-.18.26-.13.62.12.82.27.19.65.13.85-.13.18-.27.12-.63-.14-.83h0ZM167.92,954.83c-.27-.19-.64-.14-.83.13-.19.27-.14.64.13.83,0,0,0,0,0,0,.27.19.64.14.83-.13.19-.27.14-.64-.13-.83,0,0,0,0,0,0ZM176.38,943.22c-.25-.2-.62-.15-.82.1,0,0,0,0,0,.01-.19.27-.13.65.13.85.27.19.64.13.83-.14.19-.26.14-.62-.12-.82,0,0-.01,0-.02,0h0ZM184.85,931.62c-.25-.2-.62-.15-.82.1,0,0,0,0,0,.01-.19.27-.13.65.13.85.27.19.64.13.83-.14.2-.25.15-.6-.09-.8-.02,0-.03-.02-.04-.03ZM193.33,919.99c-.27-.19-.64-.13-.83.14-.19.27-.13.65.14.84.26.19.62.13.82-.12.19-.28.13-.65-.13-.85ZM229.49,939.72c-.17-.28-.55-.37-.83-.2-.28.17-.37.54-.2.83.17.28.54.37.83.2.28-.18.36-.54.2-.83ZM222,927.47c-.17-.28-.53-.37-.82-.21,0,0,0,0,0,0-.28.18-.36.54-.2.83.18.28.55.36.83.18.27-.17.35-.52.19-.8h0ZM189.83,972.94c-.31-.07-.63.12-.7.43,0,0,0,0,0,.01-.08.31.11.64.42.72.32.06.63-.13.73-.44.08-.32-.12-.65-.44-.73h0ZM193.2,958.99c-.31-.08-.62.1-.7.41,0,.01,0,.02,0,.04-.08.31.11.62.42.7h0c.32.08.65-.12.73-.44h0c.08-.31-.1-.62-.41-.7-.01,0-.03,0-.04,0ZM196.57,945.01c-.32-.07-.64.14-.71.46-.07.32.13.63.45.71.31.07.63-.12.7-.43,0,0,0,0,0-.01.08-.32-.12-.65-.44-.73,0,0,0,0,0,0h0ZM199.94,931.06c-.32-.07-.63.13-.71.44-.07.32.13.63.45.71.31.07.62-.12.7-.42.08-.32-.12-.65-.44-.72t0,0ZM182.27,918.75c-.17-.28-.54-.37-.83-.2-.28.17-.37.54-.2.83.17.28.53.36.81.19.29-.17.39-.53.22-.82,0,0,0,0,0,0h0ZM234.08,930.35c-.17-.26-.52-.34-.78-.17,0,0-.02.01-.03.02-.27.18-.35.55-.18.83.2.26.56.32.83.16.27-.18.35-.55.16-.82h0s0,0,0,0ZM198.52,977.58c-.32-.07-.64.14-.71.46s.14.64.46.71c.32.07.64-.14.71-.46.07-.32-.14-.64-.46-.71ZM201.3,963.54c-.33-.05-.64.16-.71.48-.05.32.15.62.47.69.32.07.64-.14.71-.46.06-.32-.14-.63-.46-.71h0ZM204.05,949.52c-.32-.06-.63.15-.69.47s.15.63.47.69c.32.07.64-.14.71-.46.05-.32-.16-.63-.49-.69h0ZM206.83,935.49c-.31-.06-.62.14-.69.45,0,0,0,0,0,.01-.06.32.15.62.47.69.31.07.61-.12.68-.43,0-.01,0-.02,0-.04.06-.31-.14-.62-.45-.69,0,0,0,0-.01,0h0ZM172.5,928.52c-.17-.26-.52-.34-.78-.17,0,0-.02.01-.03.02-.27.18-.35.54-.17.81.18.27.55.35.83.18.27-.18.35-.55.16-.82,0,0,0,0,0,0h0ZM184.4,920.55c-.08-.12-.21-.2-.34-.21v-.02c-.16-.04-.33,0-.47.08-.04.02-.07.05-.1.09-.23.23-.24.6,0,.83.2.21.52.23.76.07.02-.02.05-.04.05-.06.09-.06.16-.16.18-.27.06-.17.03-.36-.07-.51h0ZM225.27,955.81c-.32.07-.53.38-.47.7.07.32.39.52.71.45.32-.06.53-.36.47-.68,0,0,0,0,0,0-.07-.32-.38-.53-.71-.47ZM222.46,941.77c-.32.07-.53.38-.47.7.06.32.37.53.69.47s.53-.37.47-.69c0,0,0,0,0-.01-.06-.32-.36-.53-.68-.47,0,0,0,0,0,0ZM219.63,927.75c-.32.07-.53.38-.47.7.07.32.4.52.72.45.31-.07.51-.37.46-.68-.07-.32-.38-.53-.71-.47h0ZM174.66,959.76c-.27-.18-.62-.11-.8.16,0,0,0,.01-.01.02-.18.27-.11.63.16.81.27.18.65.12.83-.15.18-.27.11-.64-.16-.83,0,0-.01,0-.02,0ZM182.6,947.85c-.27-.18-.62-.11-.8.16,0,0,0,.01-.01.02-.18.27-.11.63.16.81.27.18.65.12.83-.15.18-.27.11-.64-.16-.83,0,0-.01,0-.02,0ZM190.54,935.94c-.28-.17-.64-.09-.82.18-.18.27-.11.63.16.81.27.18.65.12.83-.15.18-.27.11-.64-.16-.83,0,0,0,0-.02-.01ZM198.48,924.03c-.28-.16-.63-.08-.82.18-.18.27-.11.63.16.81.28.18.64.11.83-.15.18-.28.11-.65-.17-.83,0,0,0,0,0,0ZM176.95,916.75c-.1-.23-.36-.34-.59-.25-.23.09-.34.36-.25.59.1.23.36.34.59.25.23-.1.34-.36.25-.59ZM232.08,923.75c-.09-.22-.34-.33-.57-.25,0,0,0,0,0,0-.24.08-.36.34-.27.58.08.23.34.36.58.27.24-.08.36-.34.27-.58,0,0,0-.02-.01-.03ZM198.44,953.01c-.21-.11-.47-.02-.58.19,0,.01-.01.03-.02.04-.1.23,0,.49.23.59.23.1.49,0,.59-.23.1-.22,0-.48-.23-.59h0ZM202.69,943.09c-.22-.1-.49,0-.59.22,0,0,0,0,0,.01-.1.23,0,.49.23.59.23.1.49,0,.59-.23.1-.23,0-.49-.23-.59ZM206.94,933.17c-.23-.1-.49,0-.59.23-.1.23,0,.49.23.59.23.1.49,0,.59-.23.1-.23,0-.49-.23-.59ZM211.19,923.25c-.23-.09-.5.02-.6.25-.09.23.02.48.25.58,0,0,0,0,0,0,.22.1.47,0,.57-.22,0,0,0,0,0-.01.1-.22,0-.48-.22-.59,0,0,0,0-.01,0h0ZM221.14,952.05c-.24,0-.45.19-.46.43h0c0,.24.2.44.44.46.24,0,.45-.19.46-.44.01-.24-.17-.44-.4-.46-.01,0-.02,0-.03,0ZM221.26,941.27c-.24,0-.43.19-.44.42v.02c0,.24.19.45.43.45h0c.25,0,.45-.21.46-.46,0-.25-.21-.44-.45-.44,0,0,0,0,0,0h0ZM221.4,930.47c-.25,0-.45.21-.46.46,0,.23.18.43.42.44h.02c.24.01.44-.17.46-.4,0-.01,0-.02,0-.03,0-.24-.19-.45-.43-.45,0,0,0,0,0,0h0ZM183.33,936.25c-.16-.18-.43-.19-.61-.04,0,0,0,0-.01.01-.18.16-.19.44-.03.62,0,0,.02.02.02.02.17.17.45.17.62,0,.17-.17.17-.45,0-.62h0ZM191.06,928.71c-.18-.17-.46-.17-.65,0-.17.18-.17.47.02.65.17.17.45.17.62,0,.17-.18.17-.46,0-.65ZM198.79,921.18c-.17-.18-.44-.19-.62-.03,0,0-.01.01-.02.02-.17.17-.17.45,0,.62.18.17.46.17.63,0,.17-.17.17-.44.01-.61ZM224.1,928.45c-.13-.03-.27.05-.3.19-.03.13.06.27.19.3,0,0,.01,0,.02,0,.14.02.26-.08.28-.21.02-.13-.07-.25-.19-.27h0ZM225.11,922.64c-.13-.02-.25.06-.28.19,0,0,0,.01,0,.02-.03.12.04.24.16.27.01,0,.02,0,.03,0,.13.02.25-.06.28-.18,0,0,0,0,0,0,.02-.13-.06-.26-.19-.29h0ZM217.26,937.68c-.17-.11-.41-.07-.52.11,0,0-.01.02-.02.03-.12.16-.08.39.08.51.01,0,.02.01.03.02.18.12.43.07.56-.11.12-.18.07-.42-.11-.55,0,0-.02-.01-.02-.01h0ZM222.46,929.41c-.19-.12-.44-.06-.56.13-.12.18-.07.42.11.55,0,0,.02,0,.02.01.17.11.41.07.52-.11,0,0,.01-.02.02-.03.13-.18.08-.42-.09-.54,0,0-.01,0-.02-.01h0Z"/>
    <path class="cls-15" d="M182.06,752.33s-.02,0-.02-.01c-8.17,3.91-15.52,9.32-21.69,15.95l-17.76,128.62c45.81,33.51,87.79,24.61,96.02,22.4.96-.27,1.46-.43,1.46-.43,9.4-118.59-56.53-165.49-58.02-166.52h0Z"/>
    <path class="cls-7" d="M160.36,768.27s-6.03,32.57-22.55,56.02c-10,14.2-22.6,17.42-45.67,8.33-20.87-8.23-28.97-13.27-28.97-13.27l-15.83,59.34s23.67,36.25,55.23,26.79c25.94-7.77,40.97,11.48,54.44,10.25,29.98-2.76,36.55-10.01,45.76-52.8,9.21-42.79-5.52-91.02-20.73-110.6"/>
    <path class="cls-25" d="M155.04,748.32s6.21,14.63,5.33,19.95c6.42-6.33,13.73-11.7,21.68-15.95,0,0-10.37-13.98-10.37-16.86l-16.64,12.86Z"/>
    <path class="cls-33" d="M144.78,749.74c-8.75-2.49-13.86-10.33-15.63-9.88-1.78.44-5.81.46-6.47-1.38-.65-1.84,2.4-8.71.9-15.7-.15-.65-.26-1.27-.36-1.9,0-.03-.01-.04,0-.07l-.05-.34c-.06-.42-.14-1.15-.2-2.1,5.07,1.84,9.58,1.99,11.58.65,5.67-3.79,6.83.08,13.31,4.21,6.5,4.13,11.46.81,19.11-1.98,7.67-2.78,8.86,5.09,6.15,8.16-2.7,3.09-4.88,4.59-2.68,7.56.35.65.84,1.21,1.43,1.66l-.73.75c-.23.24-.47.47-.72.68l-3.5,2.99c-6.31,5.34-13.92,9.03-22.13,6.68h0Z"/>
    <path class="cls-38" d="M223.72,725.79l-102.18-12.69.47-3.77,99.78,12.39c1.32.16,2.26,1.37,2.1,2.69l-.17,1.38h0Z"/>
    <path class="cls-3" d="M188.32,717.54l-66.31-8.24.91-7.31c1.64-13.15,13.63-22.48,26.8-20.84l17.66,2.19c13.71,1.7,23.44,14.18,21.74,27.88l-.79,6.32h0Z"/>
    <path class="cls-7" d="M171.87,738.63s5.07,1.78,11.33-4.78c6.26-6.56,5.6-12.55,5.6-12.55,0,0-62.96-7.9-65.1-8.06s-1.37-.34-8.76-6.98-11.98,3.08-7.09,10.31c4.89,7.24,18.74,5.66,24.49,3.39,5.76-2.28,8.07-2.95,12.55,1.87,4.48,4.82,13.35,5.2,20.15.34,6.8-4.85,12.33,2.42,6.87,7.93-5.46,5.51-.03,8.52-.03,8.52h0Z"/>
    <path class="cls-28" d="M129.28,726.89c-1.62,2.44-4.92,3.1-7.37,1.48-.88-.59-1.57-1.43-1.98-2.41-.31-.75.8-1.37,1.11-.62.77,2.1,3.09,3.17,5.19,2.41.79-.29,1.47-.82,1.95-1.51.47-.66,1.56-.02,1.09.65Z"/>
  </g>
  <g class="cls-72">
    <path class="cls-47" d="M1224.19,1209.78c-10.54,1.11-16.55.96-26.69-2.51,13.57.17,40.94-5.16,40.62-2.67-.55,4.35-10.11,4.78-13.93,5.18Z"/>
    <path class="cls-33" d="M1172.56,1218.23c1.13-.64,2.26-1.48,2.79-2.78.64-1.56.28-3.39-.1-5.05-4.45-19.56-10.36-38.69-17.65-57.1,1.95.14,3.89.27,5.84.41,3.56,7.01,7.12,14.01,10.68,21.02,5.23,10.29,8.2,23.98,19.44,30.88,16.43,4.58,31.76,7.03,48.58,9.07,2.67.32,8.76,1.54,7.74,4.38-1.85,1.06-2.73,1.91-5.32,1.32-2.6-.58-18.49-2.24-21.84-1.93-2.71.25-5.42.27-8.12.12.65.24,1.3.49,1.94.74,1.94.78,5.12,1.65,7.18,1.59,1.79-.05,4.48.49,6.25.8s4.4,3.92.92,4.01c-12.63.34-25.33-1.14-37.51-5-2.73-.87-5.63-1.84-8.35-.95-1.63.53-5.73,2.72-7.42,3.24-6.23,1.94-5.65,2.56-11.96,4.35-3.05.86-6.87,4.74-7.19,1.17-.52-5.8,7.66-6.66,14.1-10.31h0Z"/>
    <path class="cls-12" d="M591.14,1192.09c-2.25-14.27,22.83.64,30.08,13.13,5.48,9.42,8.7,19.96,11.87,30.39.61,2.02,1.23,4.06,1.46,6.16.24,2.19,1.82,5.94,1.71,8.14-.62,12.3-.44,23.17,3.91,34.68-11.57.62-23.79,2.68-35.29,4.08-1.99-10.4-11.84-84.52-13.74-96.58h0Z"/>
    <polygon class="cls-2" points="937.34 1284.02 1124.81 1284.02 1124.81 1329.9 1000.66 1329.9 937.34 1284.02"/>
    <path class="cls-39" d="M935.42,1242.69c11.33-9.64,20.78-22.29,23.5-36.93s-2.52-31.27-15.05-39.28c-6.29,7.84-18.9,7.29-27.52,2.12-8.62-5.17-14.58-13.68-21.5-20.97-18.39-19.38-43.73-30.28-68.33-40.68-5.27-2.22-11.5-4.41-16.43-1.52-2.32,1.36-3.92,3.65-5.45,5.87-5.77,8.38-11.79,17.64-11.1,27.79.3,4.36,1.84,8.53,3.56,12.54,15.93,37.1,47.78,64.55,78.59,90.63,6.45,5.45,13.19,11.07,21.37,13.16,13.57,3.46,27.68-3.65,38.36-12.73h0Z"/>
    <path class="cls-4" d="M919.55,1209.89c-19.55,4-39.1,8-58.65,12-11,2.25-22.22,4.51-33.39,3.33-8.96-.95-17.75-4.11-26.74-3.5-7.37.5-14.29,3.51-21.33,5.75-19.07,6.08-39.39,6.63-59.4,7.13-26.14.65-60.59,1.3-86.73,1.95-3.22,16.02,1.86,32.03-1.36,48.05,18.04,6.38,37.74,5.31,56.84,4.15,44.05-2.66,88.1-5.32,132.16-7.98,38.1-2.3,76.68-4.69,112.98-16.51s70.66-34.31,88.74-67.96c-23.44-16.46-49.16-29.66-76.19-39.11-11.53,8.53-17.72,23.73-15.44,37.89.4,2.49,1.04,5.08.3,7.49-1.43,4.66-7.02,6.34-11.78,7.31h0Z"/>
    <path class="cls-27" d="M1063.79,1019.03c.64-.7,1.65-.89,2.58-1.04,4.17-.66,8.34-1.32,12.52-1.98,3.98-.63,8.41-1.17,11.75,1.09,2.1,1.42,3.4,3.72,4.63,5.94,22.39,40.48,35.63,77.96,42.78,90.89,12.52,22.64,26.16,33.73,38.68,56.36,5.02,9.07,10.04,18.14,15.06,27.22-15.87,5.48-31.75,10.96-47.62,16.43-5.92-25.08-7.26-34.53-13.18-59.61-1.77-7.51-28.08-56.17-31.59-60-8.33-9.09-23.91-31.62-29.83-42.43-4.9-8.95-5.71-19.49-6.42-29.67-.08-1.12-.11-2.38.64-3.21h0Z"/>
    <path class="cls-43" d="M1033.86,1016.49c-1.44,7.55-.99,15.45,1.3,22.78l-27.57-.89c3.66-6.03,3.41-13.56,3.06-20.6-.03-.61-.04-1.27.33-1.75.58-.75,1.72-.63,2.65-.46,6.66,1.23,13.48,1.54,20.22.92Z"/>
    <path class="cls-8" d="M976.59,1102.42c-1.38,10.51-3.7,21.26-9.84,29.89-10.37,14.58-29.7,20.57-40.29,34.99,25.21,25.83,57.67,43.12,89.57,59.99,10-15.71,19.99-31.41,29.99-47.12,3.53-5.54,7.06-11.09,10.06-16.93,4.35-8.47,7.55-17.48,10.29-26.6,11.46-38.04,14.16-79.14,3.6-117.44-.76-2.75-13.74.73-22.19,2.18-2.52.43-11.94,2.88-14,4.39-2.12,1.56-2.12,2.41-5.09,4.25-7.52,4.66-12,2.45-18.38-3.68-1.07-1.03-2.69-2.83-4.95-3.96-2-1-6.22-1.42-8.77-1.13-9.04,1.01-16.03,1.05-23.61,6.08,5.66,24.55,6.89,50.11,3.6,75.09h0Z"/>
    <path class="cls-26" d="M643.13,1301.3c-8.89-.46,13.46-22.38,26.84-27.77,10.1-4.07,20.98-5.76,31.75-7.4,2.09-.32,4.19-.64,6.3-.56,2.2.08,6.13-.95,8.29-.53,12.07,2.38,22.84,3.77,34.85,1.11-1.05,11.55-.76,23.95-1.03,35.55-10.56.48-99.8-.02-106.99-.4h0Z"/>
    <path class="cls-33" d="M1001.37,1004.22c-1.44-8.49-1.46-18.23,4.47-24.47,5.95-6.27,15.68-6.71,24.3-6.15,1.88.12,3.78.28,5.56.89,1.98.68,3.73,1.9,5.27,3.32,5.98,5.51,8.75,14.11,7.8,22.19-.94,8.09-5.38,15.57-11.55,20.87-6.28,5.38-15.35,8.6-22.9,5.22-8.06-3.61-11.48-13.15-12.96-21.87Z"/>
    <path class="cls-7" d="M1008.98,1012.25c2.85,0,5.54-.94,7.55-2.68.24-.2.26-.56.06-.8-.2-.24-.56-.26-.79-.06-2.17,1.88-5.24,2.72-8.41,2.3-3.17-.42-5.91-2.04-7.52-4.43-.17-.26-.52-.33-.78-.15-.26.17-.33.52-.15.78,1.79,2.66,4.81,4.45,8.3,4.91.59.08,1.18.12,1.75.12h0Z"/>
    <path class="cls-7" d="M1039.83,1012.09c.13,0,.27,0,.4,0,3.56-.1,6.88-1.53,9.1-3.93.21-.23.2-.59-.03-.8-.23-.21-.59-.2-.8.03-2.02,2.18-5.04,3.48-8.31,3.57-3.26.1-6.36-1.04-8.49-3.1-.23-.22-.58-.21-.8.01-.22.22-.21.58.01.8,2.26,2.18,5.49,3.42,8.91,3.42h0Z"/>
    <path class="cls-38" d="M1040.19,965.05c4.48,4.24,8.56,8.04,10.28,14.51,3.43,12.94-2.78,24.31-2.78,24.31,0,0-2.76-6.52-4.28-7.94-2.78-2.57-4.83-1.83-5.36-2.09-1.2-.61-2.48.45-3.57,1.33-5.8,4.73-13.54,5.55-19.89,2.09-2.93-1.6-6-4.1-9.07-2.93-2.27.86-3.89,2.9-4.75,6.97-.94-.73-2.33-4.76-2.25-6.15.61-11.5,3.92-22.75,9.42-32.01,1.35-2.28,2.86-4.47,4.76-6.02,3.98-3.25,5.63-3.59,10.14-1.72,4.51,1.88,13.57,6.07,17.36,9.66Z"/>
    <path class="cls-38" d="M996.09,928.34c-7.1-3.83-15.67-6.26-23.19-3.33-4.47,1.74-8.03,5.16-11.47,8.5-2.06,2-4.22,4.17-4.84,6.98-.39,1.75-.13,3.57-.08,5.37.1,4.44.46,7.13-2.02,10.82-.94,1.03-4.01,3.67-5.74,4.43,6.45,2.91,13.95,2.46,20.82.74,6.86-1.73,13.37-4.65,20.16-6.64,8.78-2.57,17.94-3.55,27.05-4.51-3.41-9.82-11.54-17.43-20.68-22.35h0Z"/>
    <path class="cls-38" d="M1017.1,955.06h.02c.31,0,.56-.27.55-.58-.28-9.97-5.08-19.65-12.84-25.9-7.76-6.25-18.23-8.88-28.02-7.03-.31.06-.51.35-.45.66s.35.51.66.45c9.47-1.79,19.6.75,27.1,6.8,7.5,6.05,12.15,15.41,12.42,25.05,0,.3.26.55.56.55Z"/>
    <rect class="cls-7" x="1009.55" y="945.61" width="11.25" height="11.26"/>
    <path class="cls-23" d="M824.47,1149.43c1.79-4.9,5.4-8.95,7.45-13.75,3.24-7.58,2.12-16.85-2.81-23.45-5.44-7.27-16.98-10.58-23.77-4.56-3.32,2.94-4.85,7.35-6.45,11.49-5.27,13.63-12.66,26.31-20.03,38.93-23.71,40.63-48.67,80.67-86.27,108.91,16.48,1.9,37.82,5.19,52.62,5.71,8.18.29,8.13,1.77,16.04-.31,7.91-2.08,15.51-6.88,18.99-14.3,5.46-11.62-.17-26.75,6.96-37.42,3.52-5.26,9.44-8.27,14.84-11.57,10.11-6.17,19.73-15.03,21.77-26.71,1.9-10.9-3.15-22.57.66-32.97h0Z"/>
    <path class="cls-2" d="M1068.12,1165.71l1.11-.17c-3.14-43.65-2.12-89.36-1.14-133.56.1-4.69.21-9.37.31-14.02,0-.31-.24-.57-.55-.58h-.01c-.31,0-.56.25-.56.55-.1,4.65-.2,9.32-.31,14.02-.94,42.3-1.91,85.99.75,127.95-4.54-14.76-13.28-29.41-21.76-43.62-5.09-8.52-9.89-16.57-13.79-24.56-5.55-11.38-9.86-23.6-14.03-35.42-4.18-11.85-8.5-24.1-14.08-35.54-.14-.28-.48-.4-.75-.26-.28.14-.4.47-.26.75,5.55,11.38,9.86,23.6,14.03,35.42,4.18,11.85,8.5,24.1,14.08,35.54,3.92,8.03,8.73,16.1,13.83,24.64,9.5,15.91,19.32,32.37,23.13,48.84h0Z"/>
    <rect class="cls-2" x="1048.72" y="1162.99" width="29.41" height="55.93" transform="translate(-336.4 423.02) rotate(-19.49)"/>
    <path class="cls-33" d="M981.68,1286.35c-1.6-9.25-.27-7.89-2.32-16.51-1.3,1.55-3.06,2.96-5.58,1.75-1.25-2.07-1.84-4.54-1.67-6.95-2.1.89-4.46,2.46-6.67-.03-2.98-3.36-6.92-5.85-6.25-10.3.66-4.45,3.38-8.27,5.31-12.34,5.96-12.54,4.43-27.13,4.72-41.01.29-13.88,3.6-29.45,15.33-36.87-.4,19.83-.81,39.67-1.21,59.5-.12,5.98-.24,12.01.95,17.87.7,3.45,1.84,6.81,2.53,10.26.88,4.39,1.01,8.9,1.14,13.37.38,12.88.71,23.9,1.08,36.78-.27,4.08-4.08,4.9-5.01,1.24-.47-1.85-2-14.88-2.32-16.76h0Z"/>
    <path class="cls-45" d="M996.6,1044.46c-4.71-7.09-9.42-14.18-14.14-21.28-7.39,1.59-13.06,4.64-15.57,12.08-2.51,7.44-2.28,20.11-1.8,27.95,1.01,16.42,4.08,32.66,5.01,49.08.79,13.99.03,28.02-.73,42.02-.28,5.21-.57,10.44-1.44,15.58-.98,5.77-2.7,11.39-4.54,16.94-5.13,15.46-11.28,30.57-18.41,45.2l48.33,4.96c-1.05-17.5-2.1-34.99-3.15-52.48-2.25-37.5-4.24-76.6,10.49-111.13,1.3-3.05,2.75-6.11,3.13-9.41.82-7.04-3.27-13.61-7.19-19.51h0Z"/>
    <rect class="cls-7" x="1064.66" y="1158" width="5.87" height="5.88"/>
    <path class="cls-38" d="M1048.36,1036.19l.83-.76c-2.67-2.96-2.57-7.43-2.07-11.83.49-4.3,1.06-9.17-1.51-12.89-.51-.74-1.13-1.41-1.74-2.06-1.03-1.1-1.99-2.14-2.38-3.47-.21-.71-.23-1.46-.26-2.26-.01-.31-.02-.62-.04-.93-.26-3.8-2.21-7.45-5.22-9.77l-.69.89c2.76,2.13,4.55,5.48,4.78,8.96.02.3.03.59.04.89.03.83.06,1.69.3,2.54.46,1.58,1.57,2.77,2.64,3.92.57.62,1.17,1.25,1.63,1.93,2.32,3.37,1.78,8.02,1.31,12.12-.53,4.66-.62,9.43,2.36,12.72h0Z"/>
    <rect class="cls-49" x="968.21" y="1287.65" width="6.41" height="6.41" transform="translate(-481.11 583.65) rotate(-27.08)"/>
    <rect class="cls-49" x="997.04" y="1289.3" width="6.41" height="6.41" transform="translate(-478.7 596.95) rotate(-27.08)"/>
    <rect class="cls-49" x="986.86" y="1306.48" width="8.07" height="8.06" transform="translate(-649.11 1409.06) rotate(-56.35)"/>
    <rect class="cls-18" x="1000.34" y="1236.49" width="131.64" height="93.41"/>
    <rect class="cls-36" x="1062.68" y="1274.91" width="12.78" height="12.79" transform="translate(-466.06 627.05) rotate(-27.08)"/>
    <path class="cls-49" d="M1069.72,1028.56c.22.07.35.26.28.48-.07.22-.26.35-.48.28-.22-.07-.35-.26-.28-.48.07-.22.26-.36.48-.28ZM1104.85,1045.29c.19-.13.41-.06.54.13.13.19.06.41-.13.54-.19.13-.41.06-.54-.13-.24-.17-.06-.41.13-.54ZM1096.11,1049.99c.19-.13.41-.06.54.13.13.19.06.41-.13.54-.19.13-.41.06-.54-.13-.12-.09-.06-.41.13-.54ZM1088.14,1032.17c.13.19.17.4.09.62-.19.13-.4.17-.62.09-.13-.19-.17-.4-.08-.51.16-.34.36-.37.6-.2ZM1081.87,1039.96c.13.19.17.4.09.62-.19.13-.4.17-.62.09-.13-.19-.17-.4-.08-.51.16-.34.47-.39.6-.2ZM1106.32,1065.26c.21-.03.44.14.47.35.03.21-.14.44-.35.47-.21.03-.44-.14-.47-.35-.03-.21.14-.44.35-.47ZM1096.4,1066.36c.21-.03.44.14.47.35.03.21-.14.44-.35.47-.21.03-.44-.14-.47-.35-.03-.2.14-.44.35-.47ZM1080.41,1026.3c.12.09.27.38.08.51-.09.12-.38.27-.51.08-.12-.09-.27-.38-.08-.51.07-.22.28-.25.51-.08ZM1075.44,1033.68c.12.09.27.38.08.51-.09.12-.28.25-.51.08-.12-.09-.25-.28-.08-.51.19-.13.4-.16.51-.08ZM1100.98,1057.14c.21-.03.43.04.46.25s-.06.32-.25.46c-.21.03-.43-.04-.46-.25-.03-.21.04-.43.25-.46ZM1092.31,1058.88c.21-.03.43.04.46.25s-.06.32-.25.46c-.21.03-.43-.04-.46-.25-.03-.21.04-.43.25-.46ZM1089.46,1041.54c.19-.13.41-.06.54.13.13.19.06.41-.13.54-.19.13-.41.06-.54-.13-.13-.19-.06-.41.13-.54ZM1088.82,1022.17c.19-.13.41-.06.54.13.13.19.06.41-.13.54-.19.13-.41.06-.54-.13-.13-.19-.06-.41.13-.54ZM1080.34,1027.89c.19-.13.41-.06.54.13.13.19.06.41-.13.54-.19.13-.41.06-.54-.13-.13-.19-.06-.41.13-.54ZM1071.74,1033.51c.19-.13.41-.06.54.13.13.19.06.41-.13.54-.19.13-.41.06-.54-.13-.03-.2.04-.43.13-.54ZM1097.47,1064.41c.22.07.35.26.28.48-.07.22-.26.35-.48.28-.22-.07-.35-.26-.28-.48-.03-.21.26-.36.48-.28ZM1058.82,1027.38c.17-.24.38-.27.62-.09M1092.47,1042.66c.21-.03.44.14.47.35.03.21-.14.44-.35.47-.21.03-.44-.14-.47-.35-.03-.21.14-.44.35-.47ZM1092.87,1035.65c.21-.03.44.14.47.35.03.21-.14.44-.35.47-.21.03-.43-.04-.47-.35-.03-.21.14-.44.35-.47ZM1082.93,1038.01c.21-.03.44.14.47.35.03.21-.04.43-.35.47-.21.03-.44-.14-.58-.33.07-.22.25-.46.45-.49h0ZM1070.61,1024.74c.19-.13.41-.06.54.13.13.19.06.41-.11.65-.19.13-.41.06-.65-.11-.05-.31.02-.53.21-.67h0ZM1069.43,1028.71c.21-.03.32.06.44.14.03.21-.06.32-.14.44-.21.03-.32-.06-.44-.14-.03-.2.04-.43.14-.44Z"/>
  </g>
  <g class="cls-67">
    <g>
      <path class="cls-6" d="M1058.49,613.35h38.36s16.54,17.66,36.71,26.31c20.17,8.64,26.22,20.31,26.22,20.31h-118.01s16.71-46.61,16.71-46.61"/>
      <path class="cls-24" d="M1072.28,550.88l37.54-7.89s19.82,13.88,41.34,18.19,29.84,14.48,29.84,14.48l-115.48,24.27,6.76-49.05"/>
      <path class="cls-46" d="M949.69,344.52s87.24,15.39,109.96,24.64c22.72,9.25,24.29,33.88,34.14,85,11.45,59.42,16.71,89.15,16.71,89.15l-42.82,8.69s-14.97-7.52-20.04-33.47-2.4-28.37-8.55-42.29c-6.15-13.91-11.07-21.47-11.07-39.34,0-17.87-10.31-26.71-25.69-25.74-15.38.97-83.75.22-112.83-46.69l-6.51-10.5s48.25-19.05,66.69-9.46"/>
      <path class="cls-41" d="M1033.89,264.39s8.62-3.64,8.62-10.32,11.31-11.31,11.31-11.31l-8.75,17.46-4.61,9.78s-9.52,16.27-6.56-5.61Z"/>
      <path class="cls-7" d="M1028.65,577.78c5,11.32,19.23,28.54,29.84,35.58h38.36c-1.59-6.52-34.23-140.83-47.09-164.47-10.49-19.26-25.3-39.63-40.04-57.36l-36.82-43.1-36.52,7.31c-1.29-.52-3.65-.91-5.07-1.38-2.63-.89-5.12,9.17-8.52,6.82-5.78,2.9-36.59.23-40.81,1.9,2.7,31.33,29.68,54.37,61.57,70.04,59.48,29.22,48.62,43.76,53.62,63.32,4.97,19.57,8.44,31.25,19.78,45.28,11.36,14.03,2.19,14.46,11.69,36.07h0Z"/>
      <path class="cls-7" d="M1067.05,265.22l-22.24-5.06c-1.32-.3-2.14-1.61-1.84-2.93.08-.34.23-.66.44-.94l29.31-38.46c.59-.78,1.59-1.13,2.53-.89l22.37,5.55c1.31.33,2.11,1.65,1.79,2.96-.08.33-.23.64-.44.91l-29.44,37.98c-.58.75-1.55,1.1-2.48.88Z"/>
      <path class="cls-51" d="M1035.99,269.67s6.36-4.8,9.08-9.44c0,0,4.18.97,6.78,1.39,0,0,.34-6.63,13.43-7.75,11.8-1.01,10.24-3.57,17.54-5.96,7.3-2.39,10.28-.23,10.69,2.2,0,0-7.68,2.78-9.45,5.62s-3.88,9.8-10.29,12.05-28.49,4.02-33.09,18.83l-4.7-16.95"/>
      <path class="cls-11" d="M932.22,383.28c.13.06.29,0,.35-.14.06-.13,0-.29-.14-.35s-.29,0-.35.14c-.06.13,0,.29.14.35ZM934.71,377.33c.14.05.3,0,.36-.14.05-.14-.02-.29-.16-.34-.12-.06-.27-.01-.33.11,0,0,0,.02-.01.03-.06.13,0,.29.14.35ZM937.2,371.38c.13.06.29,0,.34-.14.05-.14,0-.3-.14-.36-.14-.05-.3.02-.36.16-.05.14.02.29.16.34h0ZM939.69,365.44c.13.06.29,0,.35-.14.06-.14,0-.3-.14-.36-.13-.06-.29,0-.34.14-.06.14,0,.3.14.36ZM959.23,383.21c.05.14.21.21.35.15.13-.05.19-.19.15-.32,0-.01,0-.02-.01-.03-.05-.13-.2-.2-.33-.16-.14.05-.21.21-.15.35ZM922.95,372.85c.1.1.26.1.37,0,.1-.1.1-.26,0-.37s-.26-.1-.37,0c-.1.09-.11.24-.02.35,0,0,.01.01.02.02ZM927.52,368.31c.08.08.2.1.3.03h.02s.04-.01.05-.03c.06-.06.09-.14.08-.23,0-.06-.04-.11-.07-.15-.1-.1-.26-.1-.37,0-.11.1-.11.27-.01.37,0,0,0,0,0,.01ZM932.1,363.77c.1.1.27.09.36-.01.1-.1.1-.26,0-.37-.1-.1-.26-.1-.37,0-.11.1-.11.27-.01.37,0,0,0,0,.01.01h0ZM945.55,382.36c0,.15.13.26.28.27.15,0,.27-.12.27-.28s-.12-.27-.28-.27c-.15.01-.26.13-.27.28ZM945.57,375.92c0,.15.13.26.27.25.14.01.26-.1.27-.23,0,0,0-.01,0-.02,0-.15-.13-.27-.28-.27-.15.01-.26.13-.27.28h0ZM897.09,384.87c.18.21.49.24.7.06,0,0,0,0,.01-.01.21-.18.23-.49.05-.7,0,0,0,0,0,0-.18-.21-.49-.24-.7-.06,0,0,0,0-.01.01-.21.18-.23.49-.05.7,0,0,0,0,0,0ZM906.31,376.86c.19.21.51.23.72.05.21-.19.23-.51.05-.72h0c-.18-.21-.49-.23-.7-.05,0,0,0,0,0,0-.21.19-.24.5-.07.72ZM915.55,368.85c.19.21.51.23.72.05.21-.19.23-.51.05-.72-.19-.21-.51-.23-.72-.05-.21.18-.24.49-.06.7,0,0,0,0,.01.01h0ZM933.78,415.49c-.01.28.2.52.47.54.27.03.51-.16.54-.43,0,0,0-.02,0-.03.01-.28-.2-.52-.47-.54-.28-.02-.52.18-.54.46h0ZM934.63,403.31c-.01.28.2.52.48.53.27.01.51-.19.53-.47.02-.28-.18-.52-.46-.54-.28-.01-.52.2-.55.48ZM935.5,391.11c-.02.28.18.51.46.54,0,0,.01,0,.02,0,.27.03.51-.16.54-.43,0,0,0-.02,0-.03,0-.28-.2-.52-.48-.55-.28-.02-.52.19-.54.47h0ZM936.35,378.93c-.01.28.2.52.48.53.28.01.52-.2.53-.47.02-.28-.18-.52-.46-.54h0c-.28-.03-.53.18-.55.46,0,0,0,.01,0,.02h0ZM937.22,366.73c-.02.28.18.52.46.54.28.02.52-.18.54-.46,0,0,0-.01,0-.02.02-.27-.17-.51-.45-.54,0,0,0,0-.01,0-.28-.01-.52.2-.54.48h0ZM910.55,403.54c.25.12.55,0,.67-.25s0-.55-.25-.67c-.25-.11-.54,0-.66.23-.12.25-.01.55.24.68ZM916.01,392.6c.25.12.55,0,.67-.25s0-.55-.25-.67c-.25-.11-.54,0-.66.23-.11.25-.01.55.24.68ZM921.47,381.68c.26.12.56,0,.68-.25.12-.25.02-.54-.23-.67-.25-.13-.56-.04-.69.21-.13.25-.04.56.21.69,0,0,.01,0,.02.01ZM926.93,370.73c.24.13.55.04.67-.21,0,0,0,0,0-.01.13-.25.03-.55-.21-.68-.25-.13-.55-.03-.68.21,0,0,0,.01-.01.02-.13.23-.04.52.19.65,0,0,.02.01.03.02h0ZM956.93,406.92c.09.26.38.4.65.31.26-.08.4-.36.32-.62,0,0,0,0,0,0-.07-.26-.33-.41-.59-.34-.01,0-.02,0-.04.01-.26.1-.41.38-.33.65h0ZM953.06,395.32c.1.26.38.4.65.33.26-.09.4-.38.31-.65-.09-.26-.37-.4-.64-.31,0,0,0,0,0,0-.26.08-.4.36-.32.62,0,0,0,0,0,0h0ZM949.19,383.74c.08.25.35.4.61.32,0,0,.01,0,.02,0,.27-.08.42-.36.34-.63,0,0,0-.02,0-.02-.09-.27-.38-.4-.64-.31s-.4.38-.31.64h0ZM945.31,372.14c.09.26.38.4.65.31.26-.08.4-.35.32-.6,0,0,0-.01,0-.02-.09-.26-.36-.41-.63-.33-.27.09-.41.38-.33.65ZM899.97,397.91c.21.13.49.07.62-.14.13-.21.07-.49-.14-.62-.21-.13-.49-.07-.62.14,0,0,0,0,0,0-.13.21-.07.48.14.62ZM905.75,388.66c.21.13.49.07.62-.14.14-.21.08-.49-.12-.63-.21-.14-.49-.08-.63.12,0,0,0,.01-.01.02-.13.2-.08.48.12.61,0,0,.01.01.02.01ZM911.35,379.14c.02.11.09.21.18.27.21.13.49.07.62-.14.14-.21.07-.5-.14-.64,0,0,0,0,0,0-.13-.08-.29-.09-.43-.03h-.02c-.08.03-.14.1-.18.17-.08.11-.09.25-.04.37ZM917.32,370.16c.22.13.5.06.63-.15.13-.21.06-.49-.15-.63-.21-.13-.49-.07-.62.14-.14.21-.07.5.14.64,0,0,0,0,0,0ZM945.06,405.19c.07.24.31.39.56.34.23-.05.38-.28.33-.52,0,0,0-.01,0-.02-.05-.24-.29-.4-.53-.35,0,0,0,0,0,0-.24.06-.39.3-.34.54ZM942.62,394.57c.06.24.3.38.54.33.23-.05.38-.28.33-.52,0,0,0-.01,0-.02-.05-.24-.29-.4-.53-.35,0,0,0,0,0,0-.24.07-.38.31-.32.56h0ZM940.17,383.93c.05.24.29.4.53.35,0,0,0,0,0,0,.23-.04.38-.27.34-.5,0-.01,0-.03,0-.04-.05-.24-.29-.4-.53-.35,0,0,0,0,0,0-.24.06-.38.3-.33.54ZM937.71,373.32c.06.24.31.39.55.32.23-.06.38-.3.33-.54-.06-.24-.3-.39-.54-.34-.24.07-.39.31-.34.56h0ZM935.25,362.68c.05.24.3.4.54.35.24-.05.4-.3.35-.54h0c-.07-.25-.31-.4-.56-.34-.23.07-.37.3-.33.54ZM895.41,371.8c.14.2.42.25.62.11h.02c.19-.14.25-.41.11-.6,0,0-.01-.01-.02-.02-.14-.21-.42-.26-.62-.12,0,0,0,0-.01,0-.2.15-.24.43-.1.63ZM921.66,400.21c-.03.25.14.47.38.51.24.04.47-.12.52-.36.04-.25-.12-.48-.37-.53-.25-.04-.49.13-.53.38ZM923.48,389.45c-.05.23.1.46.34.51,0,0,.02,0,.03,0,.24.04.47-.12.52-.36.04-.25-.12-.48-.37-.53-.24-.03-.47.13-.51.38ZM925.27,378.69c-.04.24.12.47.36.52.24.04.47-.12.52-.36.04-.24-.12-.47-.36-.52s-.47.12-.52.36ZM927.07,367.93c-.04.24.12.47.36.52.14.03.28-.01.39-.11h.02c.07-.07.11-.16.13-.26.03-.25-.14-.47-.38-.51-.24-.04-.47.12-.52.36ZM962.51,391.5c.13.19.4.25.59.11,0,0,.01-.01.02-.02.21-.14.26-.42.12-.62,0,0,0,0,0-.01-.15-.2-.43-.24-.63-.1-.2.14-.25.42-.11.62,0,0,0,.01.01.02ZM956.17,382.61c.15.2.43.25.64.11.2-.15.24-.44.09-.64-.14-.19-.41-.24-.61-.11-.2.13-.26.41-.13.61,0,0,0,.01.01.02h0ZM900.68,370.87c.11.1.28.09.38-.02.1-.11.09-.28-.02-.38-.11-.1-.28-.09-.38.02-.1.11-.09.28.02.38ZM925.97,380.18c0,.15.13.26.27.25s.26-.13.25-.27-.13-.26-.27-.25c-.15,0-.26.13-.25.27ZM925.74,373.76c.01.15.14.26.29.25.15,0,.26-.13.25-.27,0-.14-.11-.25-.25-.25,0,0-.01,0-.02,0-.15,0-.27.12-.27.27,0,0,0,0,0,0ZM925.53,367.33c0,.15.13.26.27.25.15,0,.26-.13.26-.27h0c0-.14-.11-.26-.25-.26,0,0-.01,0-.02,0-.14,0-.26.13-.25.27h0ZM913.48,374.85c.14.04.28-.03.34-.16.05-.13,0-.28-.14-.34,0,0,0,0-.01,0-.13-.05-.28,0-.33.13,0,0,0,.01,0,.02-.05.14.02.29.16.34h0ZM915.75,368.83c.14.04.28-.03.34-.16.05-.14-.02-.29-.16-.34-.13-.06-.28,0-.34.12,0,0,0,.01,0,.02-.06.14,0,.3.14.35,0,0,0,0,.02,0ZM937.96,374.06c.06.13.21.19.35.13s.19-.21.13-.35c-.04-.13-.19-.19-.31-.15-.01,0-.02,0-.03.01-.13.05-.19.21-.14.34,0,0,0,0,0,0ZM935.29,368.2c.07.14.23.19.37.13.13-.06.18-.22.12-.34,0,0,0,0,0,0-.05-.13-.19-.19-.31-.15-.01,0-.02,0-.03.01-.13.05-.19.21-.14.34,0,0,0,0,0,0ZM896.09,377.26c.13.09.31.05.4-.08,0,0,0,0,0,0,.09-.13.06-.32-.07-.41,0,0-.01,0-.02-.01-.13-.09-.31-.05-.4.08,0,0,0,0,0,0-.09.14-.05.33.09.42ZM900.03,371.07c.14.09.33.05.43-.1s.05-.33-.1-.42c-.13-.09-.31-.05-.4.08,0,0,0,0,0,0-.1.13-.07.32.06.41,0,0,.01,0,.02.01ZM926.4,382.5c.03.15.17.26.33.23.01,0,.02,0,.03,0,.16-.04.26-.2.22-.36-.04-.16-.2-.26-.36-.24-.17.04-.26.21-.22.37,0,0,0,0,0,0ZM924.81,375.33c.04.17.21.26.37.22h0c.16-.04.26-.2.22-.36-.04-.16-.2-.26-.36-.24-.17.05-.27.21-.24.38ZM923.25,368.14c.02.16.16.27.32.25.01,0,.03,0,.04,0,.16-.04.26-.2.22-.36-.04-.16-.2-.26-.36-.24-.16.04-.26.2-.22.36ZM911.35,379.14s.07.04.12.06c.16.03.32-.08.35-.24,0,0,0,0,0-.01.03-.16-.07-.31-.23-.35h-.02c-.16-.03-.32.08-.35.24,0,0,0,0,0,.01-.02.12.03.23.13.29ZM912.52,371.61c-.03.16.07.32.23.35,0,0,0,0,0,0,.17.03.33-.07.37-.23.02-.17-.09-.33-.25-.37-.16-.03-.32.08-.35.25ZM938.78,373.27c.1.14.28.17.42.07,0,0,0,0,0,0,.13-.1.16-.28.07-.41-.08-.14-.26-.18-.4-.1,0,0-.01,0-.02.01-.14.1-.18.29-.08.43ZM934.59,367.24c.08.13.26.17.39.09,0,0,.01,0,.02-.01.14-.08.18-.26.1-.4,0,0,0-.01-.01-.02-.1-.14-.29-.18-.43-.09-.14.1-.17.29-.07.43ZM901.71,397.04c-.05.28.15.55.43.6.28.05.55-.15.6-.43.05-.28-.15-.55-.43-.6-.29-.05-.55.15-.6.43ZM903.66,384.6c-.04.29.16.55.45.6.28.04.54-.17.58-.45.04-.28-.17-.54-.45-.58-.28-.03-.53.16-.58.43ZM905.62,372.16c-.05.28.15.55.43.6s.55-.15.6-.43-.15-.55-.43-.6c-.28-.05-.55.14-.6.43ZM951.4,397.43c.18.23.51.28.75.12.23-.18.27-.51.09-.74-.17-.22-.49-.27-.72-.11-.23.17-.28.49-.12.73ZM943.98,387.25c.17.23.49.28.73.12.23-.17.29-.49.12-.73-.17-.23-.49-.29-.73-.12h0c-.23.17-.28.49-.12.73h0ZM936.57,377.08c.17.23.49.28.73.12.23-.18.28-.51.12-.75-.18-.23-.51-.27-.74-.09-.22.17-.27.49-.11.72h0ZM929.15,366.9c.17.23.49.28.73.12.23-.18.28-.51.12-.75-.17-.23-.49-.28-.71-.11,0,0,0,0-.01,0-.23.15-.3.46-.15.69,0,.01.02.02.03.04ZM890.33,374c.25.15.57.07.72-.17s.07-.57-.17-.72c-.25-.15-.57-.07-.72.17-.15.25-.07.57.17.72ZM924.52,403.05c.08.27.36.44.64.39.28-.08.44-.36.37-.64-.06-.28-.33-.45-.61-.39,0,0,0,0,0,0-.28.07-.46.35-.39.64h0ZM921.57,390.79c.07.28.35.46.64.39h0c.27-.07.44-.34.37-.62-.06-.28-.34-.45-.62-.39s-.45.34-.39.62ZM918.61,378.56c.06.28.33.45.61.39,0,0,0,0,0,0,.28-.06.47-.34.41-.63-.06-.28-.34-.47-.63-.41-.28.06-.47.34-.41.63,0,0,0,.01,0,.02ZM916.89,407.1c.06.28.34.45.62.39.28-.06.45-.34.39-.62-.06-.27-.33-.45-.6-.39-.28.06-.47.34-.41.62ZM914.45,394.79c.06.28.34.47.62.41.28-.06.45-.33.41-.6-.06-.28-.34-.47-.63-.42-.28.07-.46.34-.41.62h0ZM912.02,382.48c.06.28.34.47.62.41.28-.05.46-.32.41-.6-.05-.28-.32-.46-.61-.41-.28.06-.47.32-.43.61h0ZM909.6,370.17c.04.27.3.46.57.41.01,0,.02,0,.03,0,.28-.06.46-.32.41-.6-.05-.28-.32-.46-.61-.41-.28.06-.46.33-.41.61ZM940.22,364.18c.24.15.57.08.73-.16.15-.24.08-.55-.15-.71-.22-.16-.53-.11-.7.11,0,0-.01.01-.02.02-.17.23-.11.56.13.72,0,0,0,0,0,0ZM893.24,387.8c-.05.28.13.55.41.6,0,0,0,0,0,0,.28.06.56-.12.62-.4.05-.28-.13-.56-.41-.62-.28-.05-.55.13-.61.41h0ZM895.72,375.48c-.06.28.12.55.4.61.28.06.55-.12.61-.4,0,0,0,0,0,0,.05-.28-.13-.55-.41-.62-.28-.05-.55.13-.6.41,0,0,0,0,0,0ZM938.05,391.58c.17.24.49.3.73.14.23-.16.3-.48.14-.71-.15-.24-.46-.31-.7-.17,0,0-.01,0-.02.01-.24.15-.32.48-.16.72,0,0,0,.01.01.02h0ZM931.09,381.14c.17.24.49.3.73.14.23-.16.3-.48.14-.71-.15-.24-.46-.31-.7-.17,0,0-.01,0-.02.01-.24.15-.32.48-.16.72,0,0,0,.01.01.02h0ZM924.13,370.69c.17.24.49.3.73.14.23-.16.3-.48.14-.71-.16-.24-.48-.31-.72-.15s-.31.48-.15.72c0,0,0,0,0,0h0ZM917.15,385.44c.09.2.32.29.52.2.19-.08.29-.31.21-.5-.07-.19-.29-.29-.48-.22-.01,0-.02,0-.04.02-.19.09-.28.31-.2.5h0ZM913.43,376.76c.09.2.32.29.52.2.2-.09.29-.32.2-.52,0,0,0,0,0,0-.08-.2-.31-.29-.51-.21,0,0,0,0-.01,0-.2.09-.29.32-.2.52ZM909.71,368.05c.09.2.32.29.52.2.2-.09.29-.32.2-.52-.09-.2-.32-.29-.52-.2-.2.09-.28.32-.2.52ZM897.09,384.49c0,.21.18.38.4.38.21-.01.38-.19.38-.4,0-.22-.18-.39-.4-.38h0c-.21,0-.38.16-.38.37,0,0,0,.02,0,.03ZM896.97,375.02c0,.22.18.39.4.4.21,0,.39-.18.38-.4h0c0-.21-.16-.38-.37-.39h-.01c-.22,0-.4.16-.4.38,0,0,0,0,0,0h0ZM930.6,370.78c.15.15.39.15.54,0h0c.16-.16.16-.4.02-.55l-.02-.02c-.16-.14-.41-.13-.55.03-.14.16-.13.39.01.54ZM900.76,371.98c.11.16.33.2.49.1.15-.09.21-.29.12-.44,0,0-.01-.02-.02-.03-.09-.16-.29-.22-.45-.13,0,0-.02,0-.02.01-.17.1-.22.31-.13.47,0,0,.01.01.01.02h0Z"/>
      <path class="cls-11" d="M955.2,368.18c.13.06.29,0,.35-.14.06-.13,0-.29-.14-.35s-.29,0-.35.14c-.06.13,0,.29.14.35ZM957.68,362.23c.14.05.3,0,.36-.14.05-.14-.02-.29-.16-.34-.12-.06-.27-.01-.33.11,0,0,0,.02-.01.03-.06.14,0,.29.14.35ZM982.2,368.11c.05.14.21.21.35.15.13-.05.19-.19.15-.32,0-.01,0-.02-.01-.03-.05-.13-.2-.2-.33-.16-.14.05-.21.21-.15.35ZM968.52,367.27c0,.15.13.26.28.27.15,0,.27-.12.27-.28s-.12-.27-.28-.27c-.15,0-.26.13-.27.28ZM968.54,360.82c0,.15.13.26.27.25.14.01.26-.1.27-.23,0,0,0-.01,0-.02,0-.15-.13-.27-.28-.27-.15.01-.26.13-.27.28h0ZM920.06,369.77c.18.21.49.24.7.06,0,0,0,0,.01-.01.21-.18.23-.49.05-.7,0,0,0,0,0,0-.18-.21-.49-.24-.7-.06,0,0,0,0-.01.01-.21.18-.23.49-.05.7,0,0,0,0,0,0ZM956.75,400.39c-.01.28.2.52.47.54.27.03.51-.16.54-.43,0,0,0-.02,0-.03.01-.28-.2-.52-.47-.54-.28-.02-.52.18-.54.46h0ZM957.61,388.21c-.01.28.2.52.48.53.27.01.51-.19.53-.47.02-.28-.18-.52-.46-.54-.28-.01-.52.2-.55.48ZM958.47,376.01c-.02.28.18.51.46.54,0,0,.01,0,.02,0,.27.03.51-.16.54-.43,0,0,0-.02,0-.03,0-.28-.2-.52-.48-.55-.28-.02-.52.19-.54.47h0ZM959.32,363.83c-.01.28.2.52.48.53.28.01.52-.2.53-.47.02-.28-.18-.52-.46-.54h0c-.28-.03-.53.18-.55.46,0,0,0,.01,0,.02h0ZM933.52,388.44c.25.12.55,0,.67-.25s0-.55-.25-.67c-.25-.11-.54,0-.66.23-.12.25-.01.56.24.68ZM938.98,377.5c.25.12.55,0,.67-.25s0-.55-.25-.67c-.25-.11-.54,0-.66.23-.12.25-.01.55.24.68ZM944.45,366.58c.26.12.56,0,.68-.25.12-.25.02-.54-.23-.67-.25-.13-.56-.04-.69.21-.13.25-.04.56.21.69,0,0,.01,0,.02.01ZM979.9,391.82c.09.26.38.4.65.31.26-.08.4-.36.32-.62,0,0,0,0,0,0-.07-.26-.33-.41-.59-.34-.01,0-.02,0-.04.01-.26.1-.41.38-.33.65h0ZM976.03,380.22c.1.26.38.4.65.33.26-.09.4-.38.31-.65-.09-.26-.37-.4-.64-.31,0,0,0,0,0,0-.26.08-.4.36-.32.62t0,0h0ZM972.16,368.64c.08.25.35.4.61.32,0,0,.01,0,.02,0,.27-.08.42-.36.34-.63,0,0,0-.02,0-.02-.09-.27-.38-.4-.64-.31s-.4.38-.31.64h0ZM922.94,382.81c.21.13.49.07.62-.14.13-.21.07-.49-.14-.62-.21-.13-.49-.07-.62.14,0,0,0,0,0,0-.13.21-.07.49.14.62ZM928.73,373.56c.21.13.49.07.62-.14.14-.21.08-.49-.12-.63-.21-.14-.49-.08-.63.12,0,0,0,.01-.01.02-.13.2-.08.48.12.61,0,0,.01,0,.02.01ZM934.33,364.04c.02.11.09.21.18.27.21.13.49.07.62-.14.14-.21.07-.5-.14-.64,0,0,0,0,0,0-.13-.08-.29-.09-.43-.03h-.02c-.08.03-.14.1-.18.17-.08.11-.09.25-.04.37ZM968.03,390.09c.07.24.31.39.56.34.23-.05.38-.28.33-.52,0,0,0-.01,0-.02-.05-.24-.29-.4-.53-.35,0,0,0,0,0,0-.24.06-.39.3-.34.54ZM965.6,379.48c.06.24.3.38.54.33.23-.05.38-.28.33-.52,0,0,0-.01,0-.02-.05-.24-.29-.4-.53-.35,0,0,0,0,0,0-.24.07-.39.31-.32.56h0ZM963.14,368.83c.05.24.29.4.53.35,0,0,0,0,0,0,.23-.04.38-.27.34-.5,0-.01,0-.03,0-.04-.05-.24-.29-.4-.53-.35,0,0,0,0,0,0-.24.06-.38.3-.33.54ZM944.64,385.11c-.03.25.14.47.38.51.24.04.47-.12.52-.36.04-.25-.12-.48-.37-.53-.25-.04-.49.13-.53.38ZM946.45,374.35c-.05.23.1.46.34.51,0,0,.02,0,.03,0,.24.04.47-.12.52-.36.04-.25-.12-.48-.37-.53-.25-.04-.47.13-.51.38ZM948.25,363.59c-.04.24.12.47.36.52.24.04.47-.12.52-.36.04-.24-.12-.47-.36-.52s-.47.12-.52.36ZM985.49,376.4c.13.19.4.25.59.11,0,0,.01-.01.02-.02.21-.14.26-.42.12-.62,0,0,0,0,0-.01-.15-.2-.43-.24-.63-.1-.2.14-.25.42-.11.62,0,0,0,0,.01.02ZM979.15,367.51c.15.2.43.25.64.11.2-.15.24-.44.09-.64-.14-.19-.41-.24-.61-.11-.2.13-.26.41-.13.61,0,0,0,.01.01.02h0ZM948.95,365.08c0,.15.13.26.27.25.15,0,.26-.13.25-.27s-.13-.26-.27-.25c-.15,0-.26.13-.25.27ZM948.71,358.66c.01.15.14.26.29.25.15,0,.26-.13.25-.27,0-.14-.11-.25-.25-.25,0,0-.01,0-.02,0-.15,0-.27.12-.27.27,0,0,0,0,0,0ZM949.38,367.4c.03.15.17.26.33.23.01,0,.02,0,.03,0,.16-.04.26-.2.22-.36-.04-.16-.2-.26-.36-.24-.17.04-.26.21-.22.37h0ZM947.78,360.23c.04.17.21.26.37.22h0c.16-.04.26-.2.22-.36-.04-.16-.2-.26-.36-.24-.16.05-.27.21-.24.38ZM934.33,364.04s.07.04.12.06c.16.03.32-.08.35-.24,0,0,0,0,0-.01.03-.16-.07-.31-.23-.35h-.02c-.16-.03-.32.08-.35.24,0,0,0,0,0,.01-.02.12.03.24.13.29ZM924.68,381.94c-.05.28.15.55.43.6.28.05.55-.15.6-.43.05-.28-.15-.55-.43-.6-.28-.05-.55.15-.6.43ZM926.63,369.5c-.04.29.16.55.45.6.28.04.54-.17.58-.45.04-.28-.17-.54-.45-.58-.28-.03-.53.16-.58.43ZM974.37,382.33c.18.23.51.28.75.12.23-.18.27-.51.09-.74-.17-.22-.49-.27-.72-.11-.23.17-.28.49-.12.73ZM966.95,372.15c.17.23.49.28.73.12.23-.17.29-.49.12-.73-.17-.23-.49-.29-.73-.12h0c-.23.17-.28.49-.12.73h0ZM959.54,361.98c.17.23.49.28.73.12.23-.18.28-.51.12-.75-.18-.23-.51-.27-.74-.09-.22.17-.27.49-.11.72h0ZM947.49,387.95c.08.27.36.44.64.39.28-.08.44-.36.37-.64-.06-.28-.33-.45-.61-.39,0,0,0,0,0,0-.28.07-.45.35-.39.64h0ZM944.54,375.69c.07.28.35.46.64.39h0c.27-.07.44-.34.37-.62-.06-.28-.34-.45-.62-.39s-.45.34-.39.62ZM941.58,363.46c.06.28.33.45.61.39,0,0,0,0,0,0,.28-.06.47-.34.41-.63-.06-.28-.34-.47-.63-.41-.28.06-.47.34-.41.63,0,0,0,.01,0,.02ZM939.86,392c.06.28.34.45.62.39.28-.06.45-.34.39-.62-.06-.27-.33-.45-.6-.39-.28.06-.47.34-.41.62ZM937.42,379.69c.06.28.34.47.62.41.28-.06.45-.33.41-.6-.06-.28-.34-.47-.63-.42-.28.07-.46.34-.41.62h0ZM934.99,367.38c.06.28.34.47.62.41.28-.05.46-.32.41-.6-.05-.28-.32-.46-.61-.41-.28.06-.47.32-.43.61h0ZM916.21,372.7c-.05.28.13.55.41.6,0,0,0,0,0,0,.28.06.56-.12.62-.4.05-.28-.13-.56-.41-.62-.28-.05-.55.13-.61.41h0ZM961.02,376.48c.17.24.49.3.73.14.23-.16.3-.48.14-.71-.15-.24-.46-.31-.7-.17,0,0-.01,0-.02.01-.24.15-.32.48-.16.72,0,0,0,.01.01.02h0ZM954.06,366.04c.17.24.49.3.73.14.23-.16.3-.48.14-.71-.15-.24-.46-.31-.7-.17,0,0-.01,0-.02.01-.24.15-.32.48-.16.72,0,0,0,.01.01.02h0ZM940.13,370.34c.09.2.32.29.52.2.19-.08.29-.31.21-.5-.07-.19-.29-.29-.48-.22-.01,0-.02,0-.04.02-.19.09-.28.31-.2.5h0ZM920.06,369.39c0,.21.18.38.4.38.21-.01.38-.19.38-.4,0-.22-.18-.39-.4-.38h0c-.21,0-.38.16-.38.37,0,.01,0,.02,0,.03Z"/>
      <path class="cls-50" d="M1045.15,309.42s-4.51,9.33-20.27,9.97c-15.76.65-19.31,3.21-30.9,10.62s-33.47,10.29-55.36-23.81c-20.1-31.33-26.9-65.89-23.37-84.29,5.36,1.97,10.87,3.52,16.47,4.66,1.81.37,3.5.66,5.1.88,2.9.43,8.67.72,10.73.84,3.73,12.31,8.07,58.82,35.99,53.27,17.49-3.39,34.44-9.17,50.36-17.18l11.26,45.04h0Z"/>
      <path class="cls-48" d="M950.35,356.96c-13.54,5.99-32.62,10.87-59.34,11.95-6.27.26-12.97.29-20.11.1-21.84-25.49-5.18-52.94,1.06-70.54,6.23-17.61.25-18.23,12.05-48.27,1.3-3.09,2.8-6.08,4.49-8.97,1.97,28.36,13.1,60.18,28.56,87.22,9.61,16.8,20.6,25.62,33.27,28.51Z"/>
      <path class="cls-6" d="M1051.4,321.59s-5.1,14.85-30.47,18.86c-25.37,4.03-30.17,11.46-42.65,14.91-10.12,2.8-19.41,3.54-27.93,1.59-12.67-2.89-23.67-11.71-33.28-28.51-15.46-27.04-26.6-58.86-28.56-87.22,3.13-5.55,6.65-10.87,10.51-15.94,4.14-5.08,7.54-8.89,10.32-11.76,3.71-1.8,32.28-6.73,36.79-6.02,0,0-1.87,42.03,18.42,68.88,2.2,2.9-1.67-2.48,0,0,7.94,11.74,15.17,13.33,21.91,13.33,7.83,0,34.93-7.26,49.53-20.37l15.41,52.24h0Z"/>
      <path class="cls-33" d="M934.85,197.74c5.93,5.09,19.37,13.61,27.46,10.33,9.68-3.93,12.39-11.92,14.18-11.62,1.78.3,5.76.02,6.26-1.85.5-1.85-3.04-8.39-2.1-15.38.09-.65.16-1.28.19-1.9v-.02c.02-.15.04-.3.04-.45,0-.07,0-.14,0-.21,0-.02,0-.05,0-.07,0-.09,0-.2.01-.3,0-.75,0-1.85-.1-3.17-.04-.61-.11-1.29-.22-2-.11-.8-.28-1.66-.49-2.53-.01-.06-.03-.13-.04-.19-.05-.22-.09-.43-.15-.65-.1-.39-.22-.77-.35-1.16-.09-.31-.2-.61-.32-.9-.05-.14-.11-.28-.17-.43-.1-.27-.22-.54-.34-.8-.02-.06-.04-.12-.07-.17,0,.01,0,.03-.02.05-.15.55-.34,1.1-.58,1.62-.07.17-.16.36-.25.55-.34.69-.75,1.35-1.21,1.97-.07.11-.15.21-.24.32-.08.1-.17.21-.26.32-.18.22-.37.45-.58.67-.02.03-.04.05-.07.08-.29.33-.6.65-.93.95-.11.13-.24.23-.36.35,0,0-.01.01-.02.01-.24.23-.51.45-.79.67v.02c-.15.11-.29.22-.44.32-.64.49-1.3.95-1.99,1.36-.24.15-.5.29-.76.44-.12.07-.24.13-.38.2-.12.07-.26.16-.39.22-.07.04-.14.07-.22.1-.2.12-.41.21-.63.31-.22.1-.44.2-.67.3-.22.1-.44.2-.68.29-.61.25-1.25.48-1.92.7-.37.13-.76.24-1.15.37-1.49.43-3,.79-4.53,1.06l-.99.18c-3.05.53-6.02,1.43-8.84,2.68-.42.24-.84.48-1.28.73-1.19.69-2.33,1.47-3.4,2.34-4.55,3.82-8.07,8.73-10.23,14.27h0Z"/>
      <path class="cls-28" d="M983.96,180.97c-1.36,2.04-4.12,2.6-6.16,1.24-.74-.49-1.32-1.19-1.65-2.02-.26-.63.67-1.15.93-.52.64,1.75,2.59,2.66,4.34,2.02.66-.24,1.23-.68,1.63-1.26.39-.56,1.31-.02.91.54Z"/>
      <path class="cls-38" d="M953.27,139.14c-3.33-.97-6.81-1.35-10.27-1.1h-.14c-12.64.41-22.26,7.52-28.27,17.67-3.42,5.2-5.95,10.95-7.48,16.98-3.12,10.93-6.26,31.73-21.29,31.19-.66-.02-.66,1.01,0,1.03,9.6.35,14.51-7.99,17.58-16.01,2.03-5.29,3.34-10.82,4.9-16.22-.42,2.26-.71,4.53-.87,6.82-1.69,24.43-19.41,28.52-19.41,28.52,8.39,5.61,17.4,10.23,26.86,13.77,5.47,2.03,11.1,3.63,16.82,4.78,1.81.37,3.5.66,5.1.88,4.63.77,9.33,1.04,14.02.81,7.57-10.02,4.77-20.2,1.59-28.68,4.76,9.15,7.25,17.61,2.25,27.82-.29.59.6,1.12.89.52,3.01-5.76,3.85-12.4,2.39-18.73-2.1-8.62-9.95-15.56-9.31-24.48.63-2.37,2.71-4.09,7.26-4.96.21-.04.41-.07.63-.11,22.57-3.72,22.1-15.37,22.1-15.4,1.72,4.13,2.46,8.6,2.18,13.07,8.56-22.01-10.79-33.33-27.56-38.18h0Z"/>
    </g>
  </g>
  <g class="cls-77">
    <path class="cls-38" d="M1191.43,911.11c-12.42,6.96-24.99,13.06-37.72,18.29-7.05-13.1-13.29-25.75-18.29-37.72,12.31-6.64,24.88-12.73,37.72-18.29,6.62,11.83,12.68,24.46,18.29,37.72Z"/>
  </g>
  <g class="cls-64">
    <path class="cls-38" d="M1139.7,156.09c-8.78,6.51-17.75,12.37-26.93,17.6-6.64-9.29-12.62-18.31-17.6-26.93,8.73-6.25,17.7-12.12,26.93-17.6,6.19,8.36,12.03,17.38,17.6,26.93Z"/>
  </g>
  <g class="cls-65">
    <path class="cls-38" d="M84.04,558.91c-9.04,8.75-18.42,16.79-28.11,24.13-8.98-9.61-17.16-19.01-24.13-28.11,9.03-8.44,18.4-16.49,28.11-24.13,8.32,8.62,16.35,18.04,24.13,28.11Z"/>
  </g>
  <g class="cls-73">
    <path class="cls-7" d="M1211.19,1034.7c-9.67,3.45-19.34,6.26-29.02,8.44-3.43-10.16-6.33-19.91-8.44-29.02,9.55-3.23,19.23-6.04,29.02-8.44,3.28,9.21,6.06,18.92,8.44,29.02Z"/>
  </g>
  <g class="cls-69">
    <path class="cls-7" d="M1110.19,89.32c-6.19,2.35-12.39,4.29-18.61,5.83-2.35-6.51-4.35-12.76-5.83-18.61,6.12-2.21,12.32-4.15,18.61-5.83,2.24,5.9,4.16,12.12,5.83,18.61Z"/>
  </g>
  <g class="cls-78">
    <path class="cls-7" d="M201.16,101.8c-9.14,7.12-18.51,13.57-28.11,19.35-7.28-9.68-13.85-19.09-19.35-28.11,9.09-6.85,18.46-13.3,28.11-19.35,6.78,8.71,13.2,18.12,19.35,28.11Z"/>
  </g>
  <g class="cls-58">
    <path class="cls-38" d="M1180.7,70.49c-4.34,3.04-8.76,5.77-13.28,8.19-3.1-4.59-5.89-9.03-8.19-13.28,4.31-2.92,8.73-5.65,13.28-8.19,2.9,4.13,5.61,8.58,8.19,13.28Z"/>
  </g>
  <g class="cls-68">
    <path class="cls-38" d="M260.06,64.56c-2.46,2.69-5.02,5.18-7.69,7.48-2.77-2.61-5.3-5.18-7.48-7.69,2.46-2.6,5.02-5.09,7.69-7.48,2.56,2.34,5.05,4.92,7.48,7.69Z"/>
  </g>
  <g class="cls-62">
    <path class="cls-7" d="M130.18,591.31c-3.69,4.25-7.54,8.21-11.57,11.86-4.38-3.93-8.4-7.79-11.86-11.57,3.69-4.12,7.55-8.07,11.57-11.86,4.05,3.51,8,7.4,11.86,11.57Z"/>
  </g>
  <g class="cls-75">
    <path class="cls-7" d="M1131.69,968.02c-5.2,2.91-10.47,5.45-15.8,7.63-2.94-5.49-5.55-10.79-7.63-15.8,5.16-2.77,10.43-5.31,15.8-7.63,2.76,4.96,5.29,10.25,7.63,15.8Z"/>
  </g>
  <g class="cls-63">
    <path class="cls-36" d="M1170.4,197.76c-5.38,2.57-10.8,4.76-16.26,6.6-2.58-5.67-4.84-11.12-6.6-16.26,5.33-2.43,10.74-4.63,16.26-6.6,2.44,5.12,4.62,10.57,6.6,16.26Z"/>
  </g>
  <g>
    <rect class="cls-60" x="16" y="643.96" width="34" height="34" transform="translate(-376.31 140.94) rotate(-35.35)"/>
    <g class="cls-59">
      <path class="cls-7" d="M56.04,664.85c-8.78,7.05-17.79,13.44-27.04,19.18-7.2-9.3-13.72-18.35-19.18-27.04,8.74-6.78,17.75-13.17,27.04-19.18,6.71,8.37,13.07,17.42,19.18,27.04Z"/>
    </g>
  </g>
  <g class="cls-76">
    <path class="cls-36" d="M214.49,17.37c-5.43,5.8-11.08,11.17-16.97,16.11-5.97-5.78-11.42-11.45-16.11-16.97,5.43-5.61,11.08-10.98,16.97-16.11,5.52,5.17,10.88,10.86,16.11,16.97Z"/>
  </g>
  <g class="cls-74">
    <circle class="cls-49" cx="608" cy="883.96" r="9"/>
  </g>
  <g class="cls-71">
    <circle class="cls-49" cx="571" cy="578.96" r="6"/>
  </g>
  <g class="cls-57">
    <circle class="cls-49" cx="509" cy="475.96" r="5"/>
  </g>
</svg>