<?xml version="1.0" encoding="UTF-8"?> <svg xmlns="http://www.w3.org/2000/svg" xmlns:xlink="http://www.w3.org/1999/xlink" viewBox="0 0 848.19 619.8"><defs><style>.cls-1{fill:none;}.cls-2{fill:#343434;}.cls-3{fill:#f0efef;}.cls-4{fill:#5b5d5c;}.cls-5{fill:#cecdce;}.cls-6{fill:#f2f2f2;}.cls-7{clip-path:url(#clip-path);}.cls-8{fill:#fff;}.cls-9{clip-path:url(#clip-path-2);}.cls-10{fill:#336a9c;}.cls-11{fill:#4a79be;}</style><clipPath id="clip-path"><rect class="cls-1" x="333.62" y="314.14" width="393.95" height="172.84"></rect></clipPath><clipPath id="clip-path-2"><polygon class="cls-1" points="275.92 314.14 123.66 314.14 123.66 560.67 275.92 560.9 275.92 314.14"></polygon></clipPath></defs><title>vitrine</title><g id="Calque_2" data-name="Calque 2"><g id="Calque_1-2" data-name="Calque 1"><rect class="cls-2" x="28.33" y="590.57" width="791.53" height="29.23"></rect><rect class="cls-2" x="94.24" width="659.71" height="28.08"></rect><rect class="cls-3" x="67.83" y="54.31" width="712.53" height="509.4"></rect><rect class="cls-4" x="105.55" y="296.75" width="188.49" height="282.21"></rect><rect class="cls-5" x="123.66" y="314.14" width="152.26" height="264.82"></rect><rect class="cls-4" x="320.06" y="296.75" width="421.06" height="224.67"></rect><rect class="cls-6" x="123.66" y="314.14" width="152.26" height="211.71"></rect><rect class="cls-6" x="333.62" y="314.14" width="393.95" height="172.84"></rect><g class="cls-7"><path class="cls-5" d="M551.29,435.24s-1.38,4.55-1.83,6.17-1.71,4.71-2.38,4.53.67-6.24.31-6.6-3.23,2.74-3.5,3.55.63,6.91,0,6.95-2.19-3.09-2.6-6.59,4.64-10.58,4.64-10.58Z"></path><path class="cls-5" d="M581.83,435.66c-.28-14.8-11-16.1-11-16.1s-10.72-1.3-11.18,13.41c-.35,11.28,2.81,42,4.3,55.75.42,3.87,3.16,7,6.42,7.44h0c3.25.39,6-2.11,6.49-5.87C578.52,477,582.05,447,581.83,435.66Z"></path><path class="cls-5" d="M607.1,435.66c-.28-14.8-11-16.1-11-16.1s-10.72-1.3-11.18,13.41c-.35,11.28,2.81,42,4.3,55.75.42,3.87,3.16,7,6.42,7.44h0c3.25.39,6-2.11,6.49-5.87C603.8,477,607.32,447,607.1,435.66Z"></path><path class="cls-5" d="M577,489.14c-.29-6.17-6.3-6.17-6.3-6.17s-6,0-6.29,6.17,3,53.24,3,53.24h7.78S577.33,495.31,577,489.14Z"></path><path class="cls-5" d="M567.72,542.38s-13.53,6-15.13,6.81-2.27,2.31,1.87,2.31h17.27c1.94,0,3.5-1.29,3.5-2.88v-6.24Z"></path><path class="cls-5" d="M601.31,485c-2-5.85-7.76-4.19-7.76-4.19s-5.77,1.66-4.35,7.67,17.61,50.34,17.61,50.34l7.47-2.15S603.29,490.8,601.31,485Z"></path><path class="cls-5" d="M598.65,363s8.08-1.28,8.54,9.68c.4,9.59,1.36,23.74,1.6,29.58.09,1.94-1.73,3.7-4.17,4h0c-2.43.33-4.66-.87-5.1-2.76-1.35-5.68-4.41-19.54-6.47-28.91C590.7,363.94,598.65,363,598.65,363Z"></path><path class="cls-5" d="M596.72,361.89l-.88-.27a44.87,44.87,0,0,0-25.92,0l-.9.27a3.3,3.3,0,0,0-2,2.82c-1.4,9.64-.08,41.07.41,51.46.09,1.89,1.26,3.36,2.67,3.36h25.59c1.41,0,2.58-1.47,2.67-3.36.48-10.39,1.8-41.82.4-51.46A3.3,3.3,0,0,0,596.72,361.89Z"></path><path class="cls-5" d="M605.75,427.57c-2.55-13.72-7.4-18.51-7.4-18.51H567.1s-4.62,6.62-7.16,20.34a5,5,0,0,0,2.25,5.11c3.41,2.19,10,5.3,20.31,5.3s16.9-3.11,20.31-5.3C604.54,433.4,606.12,429.56,605.75,427.57Z"></path><rect class="cls-5" x="576.67" y="347.49" width="12.35" height="15"></rect><path class="cls-5" d="M588.67,352.65s-3.58,4.54-12,4.54v-6.45Z"></path><path class="cls-5" d="M568.39,363s-8.08-1.28-8.54,9.68c-.4,9.59-1.36,23.74-1.6,29.58-.08,1.94,1.73,3.7,4.17,4h0c2.43.33,4.66-.87,5.11-2.76,1.34-5.68,4.4-19.54,6.46-28.91C576.35,363.94,568.39,363,568.39,363Z"></path><path class="cls-5" d="M564,397.45s-5.12-2.32-8.69,8.07c-3.12,9.09-8,22.44-9.88,28a3.46,3.46,0,0,0,1.64,4.42h0a3.45,3.45,0,0,0,4.29-1.94c2.61-5.23,8.8-18,13-26.67C569.08,399.42,564,397.45,564,397.45Z"></path><path class="cls-5" d="M605.8,486c0-3.52,12.84-61.29-7.08-78.69H567s-8.79,11.92-8.79,39.7,1.61,93.21,1.61,93.21H579l4.69-100.46s1.67,35.36,3.17,47.91,13.82,51.07,13.82,51.07l17-4.55S605.8,489.54,605.8,486Z"></path><path class="cls-5" d="M576.67,358.63s-12.68,1.08-16.82,7.08c-3.31,4.82-3,29.79-4.1,33.64s-15.27,30.34-10.37,34.14,7.57,5.11,8.88,3.8,4.69-9.83,4.69-9.83,23.09,3,37.4,3S613,423,611.83,417.68s-1.43-29-3-41.09-1.42-13.5-19.78-18C581.87,361,576.67,358.63,576.67,358.63Z"></path><path class="cls-5" d="M608.78,403.81s-1.62,5.38-11.79,1.24c-8.9-3.63-22.15-8.76-27.56-11a3.45,3.45,0,0,1-2.26-4.13h0a3.46,3.46,0,0,1,4.29-2c5.65,1.48,19.36,5.22,28.63,7.76C610.67,398.65,608.78,403.81,608.78,403.81Z"></path><path class="cls-5" d="M571.64,398.3a4.94,4.94,0,0,1-2.39-5.5c.6-2.41,1.57-5.35,2.89-6.67,2.44-2.44,24.21,5.86,24.21,5.86s-.91-21.34,4.36-29.5c7.77,2.22,7.94,5.9,9.94,24.31s-1.65,23.76-9.94,23.76C594.27,410.56,578.42,402.1,571.64,398.3Z"></path><path class="cls-5" d="M567.4,541.66s-10.58,3.26-14.75,4.63-2.15,5.21-2.15,5.21h24.73v-9.12A8.64,8.64,0,0,1,567.4,541.66Z"></path><path class="cls-5" d="M607,538.05s-11.43,9.44-12.77,10.6-1.57,2.83,2.42,1.73l16.65-4.61c1.86-.52,3-2.18,2.6-3.71l-1.66-6Z"></path><path class="cls-5" d="M606.54,537.44s-9.33,6-13,8.4-.68,5.6-.68,5.6l23.84-6.61-2.43-8.78A8.64,8.64,0,0,1,606.54,537.44Z"></path><path class="cls-5" d="M559.21,392.36c0-.61,4.73-.52,4.73-.52s-6.36-1.49-6.28-2.15,6.49.5,6.49.5-6.69-2.51-6.47-3.13,6.67,1.38,6.67,1.38-6.15-2.91-5.7-3.49,8.63,2.51,8.63,2.51-4.06-2.86-4-3.47c.06-.42,1.15.14,2.92.9a24.67,24.67,0,0,1,5.69,3.53l-1.09,5.27S559.17,393,559.21,392.36Z"></path><path class="cls-5" d="M575.56,355.67h11.09a8,8,0,0,0,8-8V331.3a5.05,5.05,0,0,0-5-5H578.22a5,5,0,0,0-5,5v22A2.36,2.36,0,0,0,575.56,355.67Z"></path><path class="cls-5" d="M573.2,341s-5.57,7.07,0,7.07"></path><path class="cls-5" d="M585.58,342.57s-3.67-4.06-2.81-12.28c-7.14,0-9,1.84-9,1.84s-4.37-3.78,1.25-8.43,19.9-3.46,21.95,5.84.88,18.87-8.1,23.42C589.58,346.08,585.58,342.57,585.58,342.57Z"></path><line class="cls-5" x1="586.53" y1="340.31" x2="581.56" y2="343.7"></line><line class="cls-5" x1="589.14" y1="345.74" x2="583.04" y2="352.05"></line><path class="cls-5" d="M582.34,343.08H571.87a7.17,7.17,0,0,0-1.54,4.24c0,2.43,3.17,7.61,6.38,8.55s7.73-.75,7.73-.75Z"></path><path class="cls-5" d="M584.09,342.44c-.83,2.19-.14,4.48,1.56,5.12s3.74-.6,4.57-2.78.13-4.48-1.56-5.12S584.92,340.26,584.09,342.44Z"></path><rect class="cls-8" x="329.85" y="415.35" width="405.58" height="149.69"></rect><rect class="cls-5" x="329.85" y="525.84" width="405.58" height="39.2"></rect><path class="cls-5" d="M422.56,429.91s1.4,4,1.32,5.64-.63,4.77-1.33,4.74-.71-6-1.14-6.24-2.55,3.24-2.64,4.05,2.13,6.35,1.52,6.52-2.82-2.44-4-5.63,1.57-8.07,1.57-8.07Z"></path><path class="cls-5" d="M497,417.2s4.18,1.38,5.86,1.31,5-.56,4.95-1.23-6.23-.73-6.49-1.15,3.4-2.42,4.24-2.5,6.59,2.1,6.78,1.52-2.52-2.73-5.84-3.87-8.41,1.43-8.41,1.43Z"></path><path class="cls-5" d="M415.54,391.53s-5.6.47-3.61,10.84c1.74,9.08,4.06,22.54,5.12,28.06a3.41,3.41,0,0,0,3.59,2.92h0a3.33,3.33,0,0,0,2.79-3.64c-.29-5.61-1.17-19.22-1.77-28.44C421,390.76,415.54,391.53,415.54,391.53Z"></path><path class="cls-5" d="M457.34,360l-.89-.26a46.62,46.62,0,0,0-25.92,0l-.89.26a3.2,3.2,0,0,0-2,2.71c-1.4,9.26-.08,39.43.41,49.41.08,1.82,1.25,3.23,2.66,3.23h25.59c1.41,0,2.58-1.41,2.67-3.23.49-10,1.81-40.15.41-49.41A3.2,3.2,0,0,0,457.34,360Z"></path><path class="cls-5" d="M421.65,484a1.27,1.27,0,0,0,0-.2C421.45,483.29,421.6,484,421.65,484Z"></path><path class="cls-5" d="M466.44,429.07a56.09,56.09,0,0,0-.95-9.85v-.06C462.94,406,459,405.3,459,405.3h-31.7s-3.11,1.58-5.65,14.76l-.33,2.44a106.47,106.47,0,0,0-.95,12.48c-.23,13.89-.1,38,1.32,49,.18,10.21,3.44,49.34,3.44,49.34h13.09s2.38-45.2,2-51.12a.22.22,0,0,0,0-.08c.88-6,2.13-14.92,3.22-23.85,1.08,8.93,2.33,17.83,3.21,23.85,0,0,0,.05,0,.08-.34,5.92,2.05,51.12,2.05,51.12h13.09S465,494.19,465.2,484C466.65,472.68,466.58,443.79,466.44,429.07Z"></path><rect class="cls-5" x="439.69" y="346.18" width="12.35" height="14.4"></rect><path class="cls-5" d="M432.42,340.8c0,1.87,1.22,3.39,2.74,3.39s2.74-1.52,2.74-3.39-1.23-3.39-2.74-3.39S432.42,338.93,432.42,340.8Z"></path><path class="cls-5" d="M453.88,340.8c0,1.87,1.23,3.39,2.74,3.39s2.75-1.52,2.75-3.39-1.23-3.39-2.75-3.39S453.88,338.93,453.88,340.8Z"></path><path class="cls-5" d="M441.13,353.38h9.52a6,6,0,0,0,6-6V330.08a4.94,4.94,0,0,0-4.92-4.93H440.08a4.94,4.94,0,0,0-4.92,4.93V347.4A6,6,0,0,0,441.13,353.38Z"></path><path class="cls-5" d="M430.65,361.6s-7.56-3-10.57,7.11c-2.64,8.86-6.9,21.86-8.5,27.25-.54,1.79.82,3.85,3.1,4.71h0c2.29.86,4.74.24,5.62-1.43,2.64-5,8.86-17.24,13.07-25.53C438.16,364.26,430.65,361.6,430.65,361.6Z"></path><path class="cls-5" d="M459.58,358.94s-7.95,1.87-4.13,11.74c3.35,8.65,7.95,21.53,10,26.78.68,1.76,3,2.64,5.41,2h0c2.37-.61,4-2.5,3.64-4.35-1-5.52-3.51-18.93-5.24-28C467.27,356.8,459.58,358.94,459.58,358.94Z"></path><path class="cls-5" d="M466,392.54s-4.48,3.78,4.84,9.35c8.17,4.88,20.65,11.72,25.61,14.68a3.56,3.56,0,0,0,4.67-.58h0a3.24,3.24,0,0,0-.93-4.44c-4.52-3.56-15.59-12.1-23.09-17.88C468.55,387.08,466,392.54,466,392.54Z"></path><path class="cls-5" d="M439.69,357.28s-13.35,2.75-18.41,5-9.78,26.53-9.78,26.53l11.94,5.11L418.53,426a7.17,7.17,0,0,0,6.28,8.1c8.53,1.14,23.4,2.32,38.8-.27a7.19,7.19,0,0,0,6.05-7.53c-1.94-28.8-5.91-53-5.91-53l1.5,20.48,11.56-4.23L472,362.11a8.68,8.68,0,0,0-6.73-4.85l-13.12-1.77S446.63,360.19,439.69,357.28Z"></path><path class="cls-5" d="M429.35,533.32s-16.25,0-16.25,8.76h25.44l-.36-8.76"></path><path class="cls-5" d="M457.5,533.32s16.26,0,16.26,8.76H448.31l.37-8.76"></path><path class="cls-5" d="M445.33,354.61a12.38,12.38,0,0,0,11.33-7.35c3.5-7.71,5.15-15.39-1.23-21.5s-15.3-4-18.51-.9-6.11,7.34-4.66,15.51S439.38,354.61,445.33,354.61Z"></path><rect class="cls-5" x="294.04" y="352.05" width="95.39" height="173.45"></rect><rect class="cls-5" x="640.04" y="368.76" width="95.39" height="156.74"></rect></g><rect class="cls-4" x="59.74" y="560.67" width="728.71" height="29.9"></rect><rect class="cls-5" x="123.66" y="345.54" width="123.25" height="180.3"></rect><polygon class="cls-8" points="142.73 405.42 185.45 392.54 185.45 349.82 142.73 362.7 142.73 405.42"></polygon><g class="cls-9"><path class="cls-2" d="M194.64,304.82V530.13l-61.09,18.65V323.47l65.33-18.65m5.64-12.13-80.86,21.68V560.9l80.86-21.67V292.69Z"></path><path class="cls-2" d="M125.67,438.33h0c0,2.78,1.2,4.68,2.68,4.24l71.48-21.45c1.48-.45,2.68-3.06,2.68-5.85h0c0-2.79-1.2-4.68-2.68-4.24l-71.48,21.45C126.87,432.92,125.67,435.54,125.67,438.33Z"></path></g><path class="cls-10" d="M0,246v51.7a120.7,120.7,0,0,0,94.24,0h0V246Z"></path><path class="cls-10" d="M282.73,246v51.7l-1.11.47a117.87,117.87,0,0,1-92,0l-1.1-.47V246"></path><path class="cls-10" d="M471.22,246v51.7h0a120.73,120.73,0,0,1-94.25,0h0V246"></path><path class="cls-10" d="M659.71,246v51.7h0a120.73,120.73,0,0,1-94.25,0h0V246"></path><path class="cls-10" d="M848.19,246v51.7h0a120.7,120.7,0,0,1-94.24,0h0V246"></path><path class="cls-3" d="M188.49,246v51.7h0a120.73,120.73,0,0,1-94.25,0h0V246"></path><path class="cls-3" d="M377,246v51.7h0a114.77,114.77,0,0,1-89.77,1.8l-4.47-1.8V246"></path><path class="cls-3" d="M565.46,246v51.7h0a120.7,120.7,0,0,1-94.24,0h0V246"></path><path class="cls-3" d="M754,246v51.7h0a120.7,120.7,0,0,1-94.24,0h0V246"></path><polyline class="cls-11" points="0 246.04 67.83 148.63 147 148.63 94.24 246.04"></polyline><polyline class="cls-11" points="753.95 246.04 701.19 148.63 780.36 148.63 848.19 246.04"></polyline><polyline class="cls-8" points="94.24 246.04 147 148.63 226.17 148.63 188.49 246.04"></polyline><polyline class="cls-11" points="188.49 246.04 226.17 148.63 305.34 148.63 282.73 246.04"></polyline><polyline class="cls-8" points="282.73 246.04 305.34 148.63 384.51 148.63 376.97 246.04"></polyline><polyline class="cls-11" points="376.97 246.04 384.51 148.63 463.68 148.63 471.22 246.04"></polyline><polyline class="cls-8" points="471.22 246.04 463.68 148.63 542.85 148.63 565.46 246.04"></polyline><polyline class="cls-11" points="565.46 246.04 542.85 148.63 622.02 148.63 659.71 246.04"></polyline><polyline class="cls-8" points="659.71 246.04 622.02 148.63 701.19 148.63 753.95 246.04"></polyline><rect class="cls-4" x="67.83" y="122.4" width="712.53" height="26.23"></rect><rect class="cls-4" x="67.83" y="28.08" width="712.53" height="26.23"></rect></g></g></svg> 